<svg width="1366" height="768" viewBox="0 0 1366 768" fill="none" xmlns="http://www.w3.org/2000/svg">
<g clip-path="url(#clip0)">
<path fill-rule="evenodd" clip-rule="evenodd" d="M614.017 131.71C626.105 25.0674 662.756 0 662.756 0H1367.14V769.868H709.634C708.39 769.792 707.043 769.677 705.669 769.539C704.081 769.635 702.482 769.684 700.874 769.684C649.029 769.684 607 719.097 607 656.695C607 656.287 607.002 655.88 607.005 655.473C605.199 626.104 608.626 589.012 618.575 541.711C646.422 409.333 645.971 403.101 645.66 398.812C645.594 397.898 645.535 397.072 645.757 395.131C649.566 361.857 640.896 326.503 631.416 287.845C620.002 241.301 607.414 189.967 614.017 131.71Z" fill="url(#paint0_linear)"/>
</g>
<defs>
<linearGradient id="paint0_linear" x1="606.544" y1="0.000257101" x2="1532.02" y2="334.978" gradientUnits="userSpaceOnUse">
<stop offset="0.0104167" stop-color="#008EE1"/>
<stop offset="1" stop-color="#6AC7CD"/>
</linearGradient>
<clipPath id="clip0">
<rect width="1366" height="768" fill="white"/>
</clipPath>
</defs>
</svg>
