<svg width="500" height="416" viewBox="0 0 500 416" fill="none" xmlns="http://www.w3.org/2000/svg">
<g clip-path="url(#clip0)">
<path opacity="0.1" d="M499.061 136.709H452.928V192.632H495.69C495.8 193.209 495.905 193.786 496.031 194.358H452.928V239.448L453.144 239.378C454.362 238.949 455.571 238.494 456.772 238.013L457.545 237.697C458.776 237.191 459.985 236.651 461.172 236.076C461.599 235.88 462.02 235.674 462.437 235.464C469.071 232.197 475.186 227.971 480.586 222.919C480.742 222.784 480.887 222.643 481.028 222.508C481.765 221.795 482.488 221.078 483.19 220.34L483.963 219.517C484.791 218.619 485.589 217.691 486.367 216.752L486.708 216.341C489.834 212.507 492.461 208.292 494.525 203.797C494.591 203.661 494.646 203.521 494.706 203.385C495.333 201.97 495.9 200.535 496.392 199.075C496.603 198.458 496.803 197.84 496.979 197.223C497.039 197.038 497.095 196.857 497.145 196.676C499.704 187.72 500 178.412 500 169.154C500 168.075 500 166.991 500 165.917C500 162.179 499.945 158.391 499.874 154.653C499.874 153.679 499.829 152.711 499.804 151.732C499.744 149.247 499.654 146.765 499.533 144.286C499.503 143.593 499.473 142.906 499.428 142.224C499.428 141.827 499.388 141.431 499.363 141.034C499.262 139.564 499.172 138.139 499.061 136.709Z" fill="#FAFBFB"/>
<path opacity="0.1" d="M452.928 74.4536H478.233C474.085 68.6895 469.585 63.1864 464.76 57.9753C460.997 53.8707 457.048 49.8666 452.913 46.0129L452.928 74.4536Z" fill="#FAFBFB"/>
<path opacity="0.1" d="M452.928 76.1797V134.983H498.916C498.916 134.812 498.886 134.637 498.871 134.481C498.831 134.02 498.791 133.558 498.745 133.091C498.7 132.625 498.64 132.007 498.58 131.46C498.52 130.914 498.459 130.281 498.389 129.699C498.319 129.117 498.259 128.52 498.183 127.933C498.108 127.346 498.038 126.759 497.958 126.177C497.877 125.595 497.802 125.003 497.712 124.421C497.642 123.919 497.576 123.457 497.501 122.97C497.396 122.288 497.285 121.601 497.17 120.923C497.157 120.822 497.138 120.721 497.115 120.622C496.284 115.636 495.155 110.705 493.733 105.855C492.229 100.716 490.321 95.7046 488.027 90.8667C485.554 85.7494 482.683 80.8336 479.442 76.1647L452.928 76.1797Z" fill="#FAFBFB"/>
<path opacity="0.1" d="M343.37 136.709V192.632H441.909V136.709H343.37ZM343.37 194.358V232.227C354.841 228.559 367.958 230.04 379.85 233.05C389.057 235.389 398.029 238.57 407.222 240.858C411.327 241.907 415.495 242.694 419.701 243.216L420.734 243.327C421.236 243.377 421.738 243.427 422.24 243.467L423.745 243.573H423.901H424.573C424.65 243.578 424.727 243.578 424.804 243.573L425.617 243.603H425.642C426.028 243.603 426.419 243.603 426.811 243.633H427.313C427.699 243.633 428.09 243.633 428.482 243.633H429.34H430.032C430.328 243.633 430.619 243.633 430.91 243.603C431.382 243.603 431.854 243.563 432.33 243.527L433.208 243.472L434.292 243.387C435.06 243.327 435.798 243.246 436.575 243.156C436.876 243.121 437.183 243.086 437.484 243.041L437.93 242.985C438.688 242.885 439.436 242.765 440.193 242.639C440.75 242.554 441.307 242.449 441.869 242.348V194.358H343.37ZM416.66 74.4336V76.1597H343.37V134.983H441.909V76.1798H436.967V74.4537H441.909V36.4491C422.741 21.0094 400.337 8.91658 375.384 3.3318C364.874 1.00553 354.134 -0.113979 343.37 -0.00501777V74.4537L416.66 74.4336ZM191.362 74.1024L191.709 74.4336H332.346V0.511812C307.308 2.59419 282.891 11.004 263.207 24.9383C253.748 31.627 245.253 39.5551 234.641 44.6883C229.072 47.4516 222.988 49.0238 216.777 49.3046L191.362 74.1024ZM190.394 43.775V60.5093L203.982 47.2473C198.929 45.5011 194.945 44.3069 190.374 43.7951L190.394 43.775ZM189.942 254.301H190.394V290.98C195.522 290.599 200.63 290.074 205.718 289.405C228.47 286.473 250.764 280.698 272.078 272.214C274.366 271.297 276.638 270.351 278.892 269.374C280.394 268.722 281.888 268.053 283.373 267.367C285.601 266.343 287.812 265.291 290.007 264.211C299.718 259.438 309.085 253.995 318.041 247.923C318.598 247.547 319.16 247.165 319.712 246.779C320.822 246.01 321.925 245.233 323.018 244.451C323.565 244.054 324.112 243.658 324.654 243.256L325.768 242.403C326.892 241.565 328.011 240.722 329.145 239.895C330.194 239.142 331.253 238.389 332.326 237.687V194.333H219.351C219.432 194.077 219.507 193.831 219.592 193.56C219.502 193.821 219.422 194.062 219.346 194.333H190.374V254.291L189.942 254.301ZM190.394 76.1697V134.983H332.346V76.1798L190.394 76.1697ZM190.394 136.699V192.632H332.346V136.709L190.394 136.699ZM162.013 45.4961L179.355 62.4211V43.6998C173.544 44.061 167.764 44.6598 162.013 45.4961ZM41.261 136.709V192.632H179.355V136.709H41.261ZM74.6392 274.823C95.5703 282.792 117.455 287.984 139.735 290.268H139.83C144.042 290.713 148.265 291.057 152.5 291.302H152.655C161.532 291.803 170.443 291.919 179.34 291.588V194.358H41.261L41.7628 258.746L74.6392 274.823ZM3.01062 192.632H30.247V136.709H19.4739C18.3549 138.676 17.2711 140.653 16.2425 142.66C15.6905 143.727 15.1536 144.806 14.6318 145.897C7.54166 160.614 3.03571 176.791 3.01062 192.632ZM3.01062 194.358C3.2314 205.719 5.79046 216.868 11.4053 227.169C16.0719 235.725 22.5548 243.226 30.227 249.749V194.358H3.01062ZM20.4624 134.983H30.227V120.431C26.7075 125.095 23.4542 129.953 20.4825 134.983H20.4624ZM81.644 74.4537H176.098L176.44 74.1225L175.938 73.6207L149.379 47.714C141.496 49.3594 133.711 51.445 126.061 53.9611C125.339 54.1969 124.616 54.4629 123.899 54.6887C109.128 59.6987 94.9569 66.3273 81.644 74.4537ZM41.261 107.255V134.983H162.37H162.395H179.37V77.7804L177.433 76.2049H78.8641C65.045 84.8925 52.4061 95.3288 41.261 107.255Z" fill="#FAFBFB"/>
<path opacity="0.1" d="M452.928 105.84V134.983H498.916C498.916 134.812 498.886 134.637 498.871 134.481C498.831 134.02 498.791 133.558 498.745 133.091C498.7 132.625 498.64 132.007 498.58 131.46C498.52 130.914 498.459 130.281 498.389 129.699C498.319 129.117 498.259 128.52 498.183 127.933C498.108 127.346 498.038 126.759 497.958 126.177C497.877 125.595 497.802 125.003 497.712 124.421C497.642 123.919 497.576 123.457 497.501 122.97C497.396 122.288 497.285 121.601 497.17 120.923C497.157 120.822 497.138 120.721 497.115 120.622C496.284 115.636 495.155 110.705 493.733 105.855L452.928 105.84Z" fill="#FAFBFB"/>
<path opacity="0.1" d="M499.061 136.709H452.928V192.632H495.69C495.8 193.209 495.905 193.786 496.031 194.358H452.928V239.448L453.144 239.378C454.362 238.949 455.571 238.494 456.772 238.013L457.545 237.697C458.776 237.191 459.985 236.651 461.172 236.076C461.599 235.88 462.02 235.674 462.437 235.464C469.071 232.197 475.186 227.971 480.586 222.919C480.742 222.784 480.887 222.643 481.028 222.508C481.765 221.795 482.488 221.078 483.19 220.34L483.963 219.517C484.791 218.619 485.589 217.691 486.367 216.752L486.708 216.341C489.834 212.507 492.461 208.292 494.525 203.797C494.591 203.661 494.646 203.521 494.706 203.385C495.333 201.97 495.9 200.535 496.392 199.075C496.603 198.458 496.803 197.84 496.979 197.223C497.039 197.038 497.095 196.857 497.145 196.676C499.704 187.72 500 178.412 500 169.154C500 168.075 500 166.991 500 165.917C500 162.179 499.945 158.391 499.874 154.653C499.874 153.679 499.829 152.711 499.804 151.732C499.744 149.247 499.654 146.765 499.533 144.286C499.503 143.593 499.473 142.906 499.428 142.224C499.428 141.827 499.388 141.431 499.363 141.034C499.262 139.564 499.172 138.139 499.061 136.709Z" fill="#FAFBFB"/>
<path opacity="0.1" d="M407.222 84.5996V134.983H441.909V84.5996H436.967V67.5392H416.66V84.5996H407.222Z" fill="#FAFBFB"/>
<path opacity="0.1" d="M441.909 136.709H407.222V192.627H441.909V136.709Z" fill="#FAFBFB"/>
<path opacity="0.1" d="M441.909 194.358H407.227V240.858C411.331 241.905 415.497 242.692 419.701 243.216L420.734 243.327C421.236 243.382 421.738 243.427 422.24 243.467L423.745 243.572C423.795 243.572 423.85 243.572 423.901 243.572C424.121 243.572 424.347 243.572 424.573 243.603H424.804C425.075 243.603 425.346 243.603 425.622 243.633C426.008 243.633 426.399 243.633 426.791 243.663H427.293C427.684 243.663 428.07 243.663 428.462 243.663H429.32H430.012L430.895 243.633C431.362 243.633 431.839 243.593 432.31 243.557L433.183 243.502L434.272 243.417C435.035 243.352 435.778 243.276 436.55 243.186L437.459 243.071L437.905 243.016C438.663 242.91 439.41 242.8 440.168 242.669C440.73 242.584 441.282 242.479 441.844 242.378L441.909 194.358Z" fill="#FAFBFB"/>
<path opacity="0.1" d="M218.98 78.6485H190.374V134.978H218.98V78.6485Z" fill="#FAFBFB"/>
<path opacity="0.1" d="M190.374 136.709V192.632H332.347V168.512H256.724V182.742H218.975V136.709H190.374Z" fill="#FAFBFB"/>
<path opacity="0.1" d="M189.922 254.32H190.374V291.005C195.502 290.617 200.61 290.092 205.698 289.43C228.457 286.486 250.758 280.703 272.078 272.214C278.18 269.765 284.156 267.099 290.007 264.215C299.718 259.441 309.085 253.997 318.041 247.923C320.279 246.404 322.481 244.85 324.649 243.261C326.154 242.152 327.66 241.023 329.165 239.924C330.214 239.172 331.273 238.419 332.346 237.712V194.358H219.357C219.437 194.102 219.512 193.857 219.592 193.591C219.507 193.846 219.422 194.092 219.346 194.358H190.374V254.295L189.922 254.32Z" fill="#FAFBFB"/>
<path opacity="0.1" d="M115.775 74.4536H134.411V69.2903H126.061V53.9611C125.339 54.1969 124.616 54.4629 123.899 54.6887V69.2903H115.775V74.4536Z" fill="#FAFBFB"/>
<path opacity="0.1" d="M70.8658 134.983H162.37H162.34H162.385H179.355V78.6485H174.548V120.296H152.57V95.6487H134.411V76.1798H115.775V95.6487H97.6206V120.291H70.8658V134.983Z" fill="#FAFBFB"/>
<path opacity="0.1" d="M70.8658 136.709V192.632H179.355V136.709H70.8658ZM74.6542 274.823C95.5853 282.791 117.47 287.984 139.75 290.268H139.845C144.057 290.712 148.28 291.057 152.515 291.301H152.67C161.547 291.803 170.458 291.918 179.355 291.587V194.358H70.8658V214.183H41.261L41.4165 258.445" fill="#FAFBFB"/>
<path opacity="0.1" d="M28.3352 194.358H3.03064C3.25142 205.718 5.8155 216.868 11.4254 227.169C16.0919 235.73 22.5799 243.226 30.247 249.749V214.183H28.3352V194.358Z" fill="#FAFBFB"/>
<path opacity="0.1" d="M3.01062 192.632H28.3353V145.897H14.6318C7.54166 160.614 3.03571 176.791 3.01062 192.632Z" fill="#FAFBFB"/>
<path opacity="0.1" d="M205.698 94.3089H190.374V111.971H205.698V94.3089Z" fill="#FAFBFB"/>
<path opacity="0.1" d="M205.698 130.919H190.374V134.983H205.698V130.919Z" fill="#FAFBFB"/>
<path opacity="0.1" d="M205.698 136.709H190.374V148.576H205.698V136.709Z" fill="#FAFBFB"/>
<path opacity="0.1" d="M205.698 167.523H190.374V185.186H205.698V167.523Z" fill="#FAFBFB"/>
<path opacity="0.1" d="M205.698 204.133H190.374V221.795H205.698V204.133Z" fill="#FAFBFB"/>
<path opacity="0.1" d="M190.374 254.295H189.922H190.374V258.395H205.698V240.732H190.374V254.295Z" fill="#FAFBFB"/>
<path opacity="0.1" d="M190.374 277.342V290.985C195.502 290.597 200.61 290.072 205.698 289.41V277.367L190.374 277.342Z" fill="#FAFBFB"/>
<path opacity="0.1" d="M332.346 191.332H266.674V192.627H332.346V191.332Z" fill="#FAFBFB"/>
<path opacity="0.1" d="M332.346 194.358H266.674V199.331H332.346V194.358Z" fill="#FAFBFB"/>
<path opacity="0.1" d="M332.346 215.629H266.674V223.627H332.346V215.629Z" fill="#FAFBFB"/>
<path opacity="0.1" d="M266.674 239.924V247.923H318.046C320.277 246.407 322.48 244.852 324.654 243.256C326.16 242.152 327.665 241.023 329.17 239.929L266.674 239.924Z" fill="#FAFBFB"/>
<path opacity="0.1" d="M266.674 264.215V272.214H272.078C278.176 269.772 284.151 267.106 290.002 264.215H266.674Z" fill="#FAFBFB"/>
<path opacity="0.1" d="M139.745 153.629H152.67V142.133H139.745V153.629Z" fill="#FAFBFB"/>
<path opacity="0.1" d="M419.666 100.059H432.591V88.5636H419.666V100.059Z" fill="#FAFBFB"/>
<path opacity="0.1" d="M419.666 126.764H432.591V115.268H419.666V126.764Z" fill="#FAFBFB"/>
<path opacity="0.1" d="M419.666 153.463H432.591V141.968H419.666V153.463Z" fill="#FAFBFB"/>
<path opacity="0.1" d="M419.666 180.168H432.591V168.672H419.666V180.168Z" fill="#FAFBFB"/>
<path opacity="0.1" d="M419.666 206.878H432.591V195.382H419.666V206.878Z" fill="#FAFBFB"/>
<path opacity="0.1" d="M419.666 233.577H432.591V222.081H419.666V233.577Z" fill="#FAFBFB"/>
<path opacity="0.1" d="M90.39 153.629H103.316V142.133H90.39V153.629Z" fill="#FAFBFB"/>
<path opacity="0.1" d="M139.745 181.979H152.67V170.484H139.745V181.979Z" fill="#FAFBFB"/>
<path opacity="0.1" d="M90.39 181.979H103.316V170.484H90.39V181.979Z" fill="#FAFBFB"/>
<path opacity="0.1" d="M139.745 210.335H152.67V198.839H139.745V210.335Z" fill="#FAFBFB"/>
<path opacity="0.1" d="M90.39 210.335H103.316V198.839H90.39V210.335Z" fill="#FAFBFB"/>
<path opacity="0.1" d="M139.745 238.69H152.67V227.194H139.745V238.69Z" fill="#FAFBFB"/>
<path opacity="0.1" d="M90.39 238.69H103.316V227.194H90.39V238.69Z" fill="#FAFBFB"/>
<path opacity="0.1" d="M139.745 267.051H152.67V255.555H139.745V267.051Z" fill="#FAFBFB"/>
<path opacity="0.1" d="M90.39 267.051H103.316V255.555H90.39V267.051Z" fill="#FAFBFB"/>
<path opacity="0.1" d="M152.665 291.322V283.91H139.745V290.268L152.665 291.322Z" fill="#FAFBFB"/>
<path opacity="0.1" d="M452.928 120.602V127.18H497.17V120.602H452.928ZM492.764 121.019H496.372V126.769H492.744L492.764 121.019ZM488.359 121.019H491.986V126.769H488.343L488.359 121.019ZM483.963 121.019H487.591V126.769H483.963V121.019ZM479.557 121.019H483.185V126.769H479.557V121.019ZM475.157 121.019H478.81V126.769H475.182L475.157 121.019ZM470.751 121.019H474.379V126.769H470.751V121.019ZM466.346 121.019H469.974V126.769H466.346V121.019ZM461.945 121.019H465.573V126.769H461.945V121.019ZM457.545 121.019H461.172V126.769H457.545V121.019ZM453.144 121.019H456.772V126.769H453.144V121.019Z" fill="#FAFBFB"/>
<path opacity="0.1" d="M452.928 139.75V146.328H497.17V139.75H452.928ZM492.764 140.166H496.372V145.912H492.744L492.764 140.166ZM488.359 140.166H491.986V145.912H488.343L488.359 140.166ZM483.963 140.166H487.591V145.912H483.963V140.166ZM479.557 140.166H483.185V145.912H479.557V140.166ZM475.157 140.166H478.81V145.912H475.182L475.157 140.166ZM470.751 140.166H474.379V145.912H470.751V140.166ZM466.346 140.166H469.974V145.912H466.346V140.166ZM461.945 140.166H465.573V145.912H461.945V140.166ZM457.545 140.166H461.172V145.912H457.545V140.166ZM453.144 140.166H456.772V145.912H453.144V140.166Z" fill="#FAFBFB"/>
<path opacity="0.1" d="M452.928 158.892V165.466H497.17V158.892H452.928ZM492.764 159.304H496.372V165.055H492.744L492.764 159.304ZM488.359 159.304H491.986V165.055H488.343L488.359 159.304ZM483.963 159.304H487.591V165.055H483.963V159.304ZM479.557 159.304H483.185V165.055H479.557V159.304ZM475.157 159.304H478.81V165.055H475.182L475.157 159.304ZM470.751 159.304H474.379V165.055H470.751V159.304ZM466.346 159.304H469.974V165.055H466.346V159.304ZM461.945 159.304H465.573V165.055H461.945V159.304ZM457.545 159.304H461.172V165.055H457.545V159.304ZM453.144 159.304H456.772V165.055H453.144V159.304Z" fill="#FAFBFB"/>
<path opacity="0.1" d="M452.928 178.035V184.609H497.17V178.035H452.928ZM492.764 178.447H496.372V184.197H492.744L492.764 178.447ZM488.359 178.447H491.986V184.197H488.343L488.359 178.447ZM483.963 178.447H487.591V184.197H483.963V178.447ZM479.557 178.447H483.185V184.197H479.557V178.447ZM475.157 178.447H478.81V184.197H475.182L475.157 178.447ZM470.751 178.447H474.379V184.197H470.751V178.447ZM466.346 178.447H469.974V184.197H466.346V178.447ZM461.945 178.447H465.573V184.197H461.945V178.447ZM457.545 178.447H461.172V184.197H457.545V178.447ZM453.144 178.447H456.772V184.197H453.144V178.447Z" fill="#FAFBFB"/>
<path opacity="0.1" d="M452.928 197.178V203.767H494.525C494.586 203.631 494.646 203.491 494.701 203.355H492.764V197.595H496.372V199.025C496.583 198.412 496.783 197.8 496.959 197.178H452.928ZM488.359 197.595H491.986V203.34H488.344L488.359 197.595ZM483.963 197.595H487.591V203.34H483.963V197.595ZM479.557 197.595H483.185V203.34H479.557V197.595ZM475.157 197.595H478.81V203.34H475.182L475.157 197.595ZM470.751 197.595H474.379V203.34H470.751V197.595ZM466.346 197.595H469.974V203.34H466.346V197.595ZM461.945 197.595H465.573V203.34H461.945V197.595ZM457.545 197.595H461.172V203.34H457.545V197.595ZM453.144 197.595H456.772V203.34H453.144V197.595Z" fill="#FAFBFB"/>
<path opacity="0.1" d="M452.928 216.311V222.884H480.581C480.742 222.749 480.882 222.603 481.028 222.473H479.558V216.737H483.185V220.325L483.963 219.497V216.737H486.367C486.482 216.597 486.592 216.456 486.708 216.326L452.928 216.311ZM475.157 216.722H478.81V222.473H475.182L475.157 216.722ZM470.751 216.722H474.379V222.473H470.751V216.722ZM466.346 216.722H469.974V222.473H466.346V216.722ZM461.945 216.722H465.573V222.473H461.945V216.722ZM457.545 216.722H461.172V222.473H457.545V216.722ZM453.144 216.722H456.772V222.473H453.144V216.722Z" fill="#FAFBFB"/>
<path opacity="0.1" d="M452.928 235.469V239.448C453.002 239.428 453.074 239.403 453.144 239.373V235.86H456.772V237.998L457.545 237.682V235.88H461.172V236.081C461.599 235.885 462.02 235.679 462.437 235.474L452.928 235.469Z" fill="#FAFBFB"/>
<path opacity="0.1" d="M162.355 134.993H162.38H162.355ZM189.922 254.321H190.374H189.922ZM219.346 194.358C219.427 194.102 219.502 193.856 219.587 193.585C219.502 193.846 219.422 194.102 219.346 194.358ZM162.355 134.993H162.38H162.355ZM416.66 74.4537V76.1798H436.967V74.4537H416.66ZM189.922 254.321H190.374H189.922ZM219.346 194.358C219.427 194.102 219.502 193.856 219.587 193.585C219.502 193.846 219.422 194.102 219.346 194.358ZM162.355 134.993H162.38H162.355ZM189.922 254.321H190.374H189.922ZM219.346 194.358C219.427 194.102 219.502 193.856 219.587 193.585C219.502 193.846 219.422 194.102 219.346 194.358Z" fill="#FAFBFB"/>
<path opacity="0.1" d="M453.079 413.675C462.662 413.675 470.43 412.814 470.43 411.753C470.43 410.692 462.662 409.831 453.079 409.831C443.496 409.831 435.727 410.692 435.727 411.753C435.727 412.814 443.496 413.675 453.079 413.675Z" fill="#FAFBFB"/>
<path d="M335.347 268.576L326.676 268.099L326.089 243.196L325.954 237.265L335.101 235.579L335.161 243.226L335.347 268.576Z" fill="#D48A9B"/>
<path d="M328.598 264.241L284.04 291.944L283.077 300.374L287.894 300.615V294.593L317.037 278.215L281.873 321.81V328.554H287.653L287.172 321.087L327.876 274.843L332.934 275.325L375.81 323.977L376.774 332.171L382.554 332.412L381.591 323.977L347.631 281.587L370.271 297.243L370.752 303.987L375.329 304.227L374.847 296.038L331.729 262.796L328.598 264.241Z" fill="#D48A9B"/>
<path d="M272.62 216.858C276.828 211.623 280.355 205.875 283.117 199.752C286.183 192.968 289.545 185.136 289.801 182.817C290.303 178.482 302.566 169.811 316.054 169.33C324.85 169.014 338.553 162.149 347.033 157.407C355.01 152.872 363.881 150.132 373.025 149.379C382.946 148.631 392.274 150.578 387.577 162.089L324.504 238.469C324.504 238.469 270.713 247.948 267.397 232.709C267.211 231.941 266.954 231.192 266.629 230.471C266.002 229.031 265.836 225.273 272.62 216.858Z" fill="#FAFBFB"/>
<path opacity="0.2" d="M277.357 218.373C281.592 213.081 285.154 207.283 287.959 201.112C290.819 194.77 293.855 187.659 294.096 185.507C294.558 181.367 306.309 173.083 319.215 172.621C327.63 172.32 340.741 165.767 348.85 161.236C356.488 156.91 364.978 154.3 373.728 153.589C383.216 152.876 392.143 154.738 387.667 165.732L337.635 238.991C337.635 238.991 275.917 247.747 272.65 233.261C272.456 232.492 272.199 231.74 271.882 231.013C271.31 229.578 271.23 226.061 277.357 218.373Z" fill="#DDA2A6"/>
<path opacity="0.1" d="M335.161 243.226C332.261 243.226 329.205 243.226 326.089 243.196L325.954 237.265L335.101 235.584L335.161 243.226Z" fill="black"/>
<g opacity="0.1">
<path opacity="0.1" d="M370.271 295.797L347.631 280.142L350.225 283.378L370.271 297.242L370.752 303.986L375.329 304.227L375.243 302.777L370.752 302.541L370.271 295.797Z" fill="black"/>
<path opacity="0.1" d="M287.894 293.148V294.593L314.905 279.414L317.037 276.77L287.894 293.148Z" fill="black"/>
<path opacity="0.1" d="M281.873 327.108V328.553H287.653L287.558 327.108H281.873Z" fill="black"/>
<path opacity="0.1" d="M287.894 299.169L283.238 298.939L283.077 300.374L287.894 300.614V299.169Z" fill="black"/>
<path opacity="0.1" d="M376.774 330.726L375.81 322.532L332.934 273.88L327.876 273.398L287.172 319.642L287.257 320.992L327.876 274.843L332.934 275.325L375.81 323.977L376.774 332.171L382.554 332.412L382.389 330.957L376.774 330.726Z" fill="black"/>
</g>
<path opacity="0.1" d="M330.043 195.768C330.043 195.768 341.323 204.017 336.386 204.113C331.448 204.208 330.043 195.768 330.043 195.768Z" fill="black"/>
<path d="M282.716 240.898C282.716 240.898 301.382 239.453 308.367 225.965C308.367 225.965 322.577 197.78 334.143 194.649C345.709 191.518 367.14 184.533 376.051 173.695C384.963 162.857 388.701 154.547 388.701 154.547C388.701 154.547 390.999 163.318 383.759 173.66C376.518 184.001 373.884 199.928 368.826 216.813C363.768 233.698 361.841 240.396 352.689 241.4C345.789 242.127 309.31 241.761 291.868 241.4C286.163 241.244 282.716 240.898 282.716 240.898Z" fill="#FAFBFB"/>
<path opacity="0.2" d="M282.716 240.898C282.716 240.898 301.382 239.453 308.367 225.965C308.367 225.965 322.577 197.78 334.143 194.649C345.709 191.518 367.14 184.533 376.051 173.695C384.963 162.857 388.701 154.547 388.701 154.547C388.701 154.547 390.999 163.318 383.759 173.66C376.518 184.001 373.884 199.928 368.826 216.813C363.768 233.698 361.841 240.396 352.689 241.4C345.789 242.127 309.31 241.761 291.868 241.4C286.163 241.244 282.716 240.898 282.716 240.898Z" fill="#DDA2A6"/>
<path d="M287.412 240.898C287.412 240.898 305.256 239.498 311.929 226.437C311.929 226.437 325.517 199.15 336.566 196.119C347.616 193.089 368.108 186.32 376.628 175.828C385.148 165.335 388.716 157.287 388.716 157.287C388.716 157.287 390.899 165.817 383.994 175.828C377.09 185.838 374.556 201.248 369.719 217.575C364.882 233.903 363.045 240.431 354.294 241.365C347.701 242.067 312.832 241.711 296.158 241.365C290.709 241.259 287.412 240.898 287.412 240.898Z" fill="#FAFBFB"/>
<path opacity="0.1" d="M272.961 233.873C272.961 233.873 282.716 237.606 288.255 235.559C293.795 233.512 307.524 227.491 307.524 227.491C307.524 227.491 284.402 228.956 272.961 233.873Z" fill="black"/>
<path d="M338.182 409.169C338.182 409.169 310.143 407.664 303.309 403.649C296.475 399.635 286.8 399.635 286.75 399.635L175.105 375.299L128.691 364.26L120.411 363.171L147.758 331.88L148.591 331.519L188.904 314.082C188.904 314.082 206.968 315.086 210.535 326.857C210.779 327.687 210.947 328.537 211.037 329.396C211.411 333.068 210.394 336.746 208.187 339.703C206.762 341.65 205.011 344.415 204.459 346.848C204.148 348.223 204.218 349.493 204.961 350.461C206.466 351.955 208.128 353.283 209.918 354.42C219.748 360.943 244.596 371.691 288.005 355.228C288.005 355.228 306.57 336.913 320.62 344.691C334.67 352.468 338.182 409.169 338.182 409.169Z" fill="#E1DEE5"/>
<path opacity="0.1" d="M204.479 346.848C204.168 348.223 204.238 349.492 204.981 350.461C206.486 351.955 208.148 353.282 209.938 354.42L125.429 360.747L148.591 331.519L188.904 314.082C188.904 314.082 206.968 315.086 210.535 326.857C210.779 327.687 210.947 328.537 211.037 329.396C211.411 333.068 210.394 336.745 208.187 339.703C206.782 341.65 205.031 344.414 204.479 346.848Z" fill="black"/>
<path d="M121.917 231.791L191.162 233.296V316.184L125.429 360.747L109.623 346.196L112.885 298.025L109.623 253.116L121.917 231.791Z" fill="#A36468"/>
<path d="M82.5271 218.243L163.373 193.33C164.826 192.885 166.349 192.715 167.864 192.828L360.998 206.923C377.517 208.056 393.416 213.664 406.991 223.145C419.49 231.961 431.869 245.494 437.599 265.987C441.744 281.108 441.457 297.102 436.771 312.065L419.711 367.26C419.711 367.26 432.506 247.336 304.804 241.315L82.5271 218.243Z" fill="#D9D6DF"/>
<path d="M125.429 230.035V363.171C125.429 363.171 103.276 360.055 99.3367 355.73C96.1052 352.182 77.384 342.182 69.2602 331.88C67.4789 329.622 66.2044 327.364 65.7177 325.121C62.998 312.737 51.9188 283.474 51.9188 283.474L54.9295 254.872L67.4739 236.307L91.81 225.268H110.627L125.429 230.035Z" fill="#B8797D"/>
<path d="M90.3047 231.791C90.3047 231.791 54.2972 254.371 62.1751 290.704C62.8174 293.665 63.3744 296.64 63.7407 299.651C65.1808 311.403 73.8213 345.172 125.429 360.747V364.26L103.537 358.153L88.6739 349.959L77.3288 339.783L63.4597 322.863L57.0219 309.064L54.6635 290.89L53.3037 270.142L56.6205 252.344L64.4431 240.763L73.9769 233.351L90.3047 231.791Z" fill="#D9D6DF"/>
<path opacity="0.1" d="M125.429 230.035V251.214C109.723 252.921 61.0963 262.755 69.7319 318.954L69.2552 331.86C67.4739 329.602 66.1994 327.344 65.7127 325.101C62.993 312.717 51.9138 283.454 51.9138 283.454L54.9245 254.852L67.4689 236.287L91.805 225.248H110.622L125.429 230.035Z" fill="black"/>
<path opacity="0.1" d="M208.207 339.703C206.782 341.65 205.031 344.415 204.479 346.848C202.291 344.339 201.819 341.454 204.981 339.171C208.94 336.291 210.259 331.293 210.555 326.857C210.8 327.687 210.967 328.536 211.057 329.396C211.432 333.068 210.414 336.746 208.207 339.703Z" fill="white"/>
<path d="M410.94 353.221L401.406 385.585L379.83 406.66L352.734 412.18L310.584 404.653V254.873C310.584 254.873 317.86 250.106 318.613 250.106C319.366 250.106 339.687 253.367 339.687 253.367L385.7 286.369L387.607 287.739L408.18 318.347L410.94 353.221Z" fill="#B8797D"/>
<path d="M310.584 248.6V404.653L314.649 405.38V248.6H310.584Z" fill="#A36468"/>
<path opacity="0.1" d="M386.604 296.771C356.497 272.033 323.029 268.395 310.584 267.944V254.898C310.584 254.898 317.86 250.131 318.613 250.131C319.366 250.131 339.688 253.392 339.688 253.392L385.7 286.394L386.604 296.771Z" fill="black"/>
<path d="M304.227 238.565L115.644 217.992L94.4494 216.868C87.8443 216.486 81.239 217.614 75.1348 220.165C69.0306 222.717 63.5878 226.626 59.2196 231.595C48.1806 244.29 39.836 266.684 52.0242 305.135C52.0242 305.135 64.7342 354.977 126.287 365.685L305.14 406.213C309.104 407.111 313.018 408.22 316.882 409.48C333.119 414.814 388.134 428.633 414.051 381.656C422.932 365.549 425.592 346.768 422.169 328.689C415.932 295.622 392.384 239.508 304.227 238.565ZM396.619 379.509C372.433 418.908 322.597 407.182 307.614 402.555C303.946 401.421 300.233 400.433 296.475 399.63L131.26 364.285C74.3382 354.937 62.5815 311.418 62.5815 311.418C52.9725 282.816 57.1724 264.361 64.9399 252.68C73.0737 240.451 87.2338 233.612 101.906 234.355L121.435 235.358L290.112 257.893C293.524 258.35 296.961 258.651 300.403 258.766C375.414 261.31 398.752 302.556 404.683 330.982C408.165 347.596 405.516 365.027 396.619 379.509Z" fill="#E1DEE5"/>
<path d="M2.12252 322.416C8.29939 326.551 17.6776 324.584 17.6776 324.584C17.6776 324.584 31.8227 317.885 36.0025 317.885C40.1823 317.885 50.3483 313.746 50.3483 313.746L50.002 310.956L48.9684 302.551C55.4062 307.569 62.5615 305.838 66.084 305.471C69.8674 305.08 90.0839 293.063 92.0308 292.27C92.5577 292.059 93.1749 291.372 93.8021 290.483C95.1044 288.492 96.2486 286.402 97.2242 284.231C98.4887 283.117 99.412 282.224 99.3467 282.028C99.2815 281.833 99.8485 280.368 100.586 278.717C103.456 278.215 105.93 277.151 106.718 276.509C107.365 275.991 107.883 275.33 108.232 274.578C108.58 273.825 108.749 273.002 108.725 272.174C108.725 272.174 128.45 252.278 125.856 244.004C123.261 235.73 132.233 235.529 132.233 235.529C132.233 235.529 145.977 229.618 147.889 226.075C149.068 223.893 159.379 219.101 167.137 215.739L168.09 215.327C171.101 221.926 186.395 216.833 189.406 214.058C192.592 211.102 201.95 209.722 201.95 209.722C201.95 209.722 202.351 171.086 205.337 166.178C206.757 163.845 207.098 156.218 207.063 148.852C207.063 148.591 207.063 148.35 207.063 148.069C211.248 147.251 221.203 145.36 225.824 144.903C228.755 144.612 231.811 142.786 234.154 141.009L234.43 141.355C235.235 141.686 236.105 141.828 236.974 141.772C237.743 141.858 238.52 141.713 239.207 141.355C241.003 140.352 247.576 138.4 249.965 137.416C252.353 136.433 249.569 129.338 247.777 127.958C245.986 126.578 244.767 124.807 245.77 124.019C246.774 123.231 243.382 121.259 241.39 120.863C239.398 120.466 233.421 117.712 233.421 117.712C233.421 117.712 231.229 113.196 227.646 113.196C224.063 113.196 219.276 109.648 219.276 109.648C219.081 108.073 215.292 107.877 215.292 107.877C215.292 107.877 200.951 96.8378 198.558 98.2227C196.164 99.6076 189.596 96.0551 189.596 96.0551C189.596 96.0551 181.533 96.9583 179.636 95.473C179.619 94.9853 179.443 94.5166 179.134 94.1383C178.708 92.8036 176.625 90.9771 174.618 89.4567C174.772 88.5144 174.849 87.5613 174.849 86.6066C174.849 86.1952 174.849 85.7837 174.804 85.3773C174.804 85.307 174.804 85.2418 174.804 85.1715L175.09 82.3967C175.11 81.4842 175.347 80.5897 175.782 79.7875C176.119 79.2857 176.615 78.8592 176.992 78.3624C177.079 78.2454 177.16 78.1231 177.232 77.9961L177.293 77.8908C177.348 77.7947 177.398 77.6959 177.443 77.5947L177.488 77.4944C177.599 77.2218 177.685 76.9396 177.744 76.6514V76.5861C177.769 76.4557 177.789 76.3252 177.804 76.1897C177.802 76.1714 177.802 76.1529 177.804 76.1345C177.887 74.9882 177.733 73.8372 177.353 72.7526C176.756 70.891 175.822 69.0946 175.722 67.1527C175.672 66.1893 175.832 65.2058 175.622 64.2625C175.12 62.1099 172.927 60.7501 170.795 59.8469C167.849 58.6125 166.364 57.2627 164.001 55.4262C161.993 53.8707 158.672 54.6535 156.143 54.8141C150.362 55.1854 144.657 56.9265 139.218 58.7229C137.105 59.4254 134.953 60.2282 133.307 61.6583C132.199 62.6007 131.438 63.8865 131.144 65.3112C131.087 65.6425 131.065 65.9789 131.079 66.3148C131.079 66.3449 131.079 66.375 131.079 66.4001C131.079 66.5305 131.079 66.656 131.124 66.7814C131.121 66.8232 131.121 66.8651 131.124 66.9069C131.149 67.0601 131.186 67.2111 131.235 67.3585C131.465 68.086 131.892 68.7434 132.138 69.4659C132.193 69.6302 132.239 69.7978 132.273 69.9677C132.273 69.9677 132.273 70.0028 132.273 70.0179C132.308 70.1785 132.334 70.334 132.354 70.5197C132.574 72.311 131.912 74.1826 131.621 76.0091C131.581 76.265 131.551 76.5109 131.531 76.7919C131.444 77.8486 131.537 78.9125 131.807 79.938C131.804 79.9496 131.804 79.9615 131.807 79.9731C131.837 80.0986 131.882 80.224 131.922 80.3444C131.936 80.3989 131.953 80.4525 131.972 80.505C132.007 80.6104 132.053 80.7158 132.093 80.8161L132.178 81.0269C132.218 81.1172 132.263 81.2075 132.308 81.2978C132.354 81.3881 132.384 81.4484 132.424 81.5186C132.465 81.6011 132.51 81.6815 132.559 81.7595C132.604 81.8397 132.655 81.915 132.705 81.9903C132.755 82.0655 132.8 82.1358 132.855 82.206C132.911 82.2763 132.971 82.3616 133.031 82.4369L133.187 82.6275L133.397 82.8483L133.563 83.0139L133.809 83.2246C133.869 83.2698 133.919 83.32 133.979 83.3601C134.04 83.4003 134.185 83.5056 134.29 83.5709L134.436 83.6712C134.597 83.7666 134.767 83.8519 134.938 83.9321C136.082 84.4339 137.527 84.6397 138.214 85.6482C138.378 85.8837 138.493 86.15 138.551 86.431C138.551 86.4962 138.551 86.5665 138.551 86.6317V86.8073C138.551 87.3894 138.591 87.9664 138.651 88.5334C138.646 88.8455 138.665 89.1574 138.706 89.4667C138.74 89.7 138.804 89.9277 138.897 90.1441C139.7 94.1093 141.822 97.6856 144.918 100.29C144.978 100.596 145.049 100.952 145.124 101.354C143.371 102.669 141.413 103.687 139.328 104.364C134.546 105.764 127.787 112.222 127.787 112.222C127.787 112.222 124.426 136.453 123.618 139.409C122.81 142.364 122.213 153.794 122.213 153.794C122.213 153.794 121.415 158.521 120.206 160.885C119.358 162.55 119.513 169.711 121.871 174.061C121.487 174.917 120.995 175.719 120.406 176.45C115.624 181.969 101.279 181.769 96.4966 181.769C92.096 181.769 90.7362 184.438 90.5506 184.859C81.7946 187.368 53.4442 195.437 50.0823 196.902C46.0982 198.643 43.9054 215.849 43.9054 215.849C43.9054 215.849 35.581 244.41 35.9774 248.154C36.3738 251.897 33.1875 262.324 33.1875 262.324C33.1875 262.324 33.1875 274.11 31.8377 274.908C31.8261 274.919 31.8124 274.928 31.7976 274.933C30.4026 275.525 30.5983 281.241 30.5983 281.241C30.5983 281.241 31.627 281.537 33.2276 281.943C32.8011 284.828 31.2205 288.868 30.0012 291.738C29.379 290.95 28.7719 290.624 28.4106 291.537C27.407 294.046 12.4742 311.779 8.68576 311.779C6.88438 311.779 3.90383 313.254 1.94188 315.246C-0.205718 317.439 -1.11895 320.254 2.12252 322.416ZM70.6401 219.768C87.5751 221.344 105.704 218.569 105.704 218.569C105.704 218.569 104.309 223.511 103.115 225.483C101.921 227.455 98.5288 238.685 98.5288 241.038C98.5288 243.392 93.1498 263.694 91.5592 264.677C90.8918 265.094 90.2947 266.127 89.823 267.186C89.4041 268.165 89.0521 269.17 88.7693 270.197C88.7927 270.708 88.8379 271.195 88.9048 271.657C87.7156 272.746 86.4561 273.89 85.3371 274.903C85.3371 274.903 78.2119 278.867 75.8034 281.035C73.3948 283.203 62.2554 285.862 62.2554 285.862C59.4935 287.05 56.8116 288.416 54.227 289.952C50.7697 292.034 47.3125 294.683 46.4093 297.298C46.8007 292.892 47.438 287.588 47.8645 284.216L48.4967 284.191C54.0815 283.845 53.2485 278.516 52.9525 277.196C52.9123 277.006 52.8822 276.9 52.8822 276.9C56.8663 272.565 65.8281 240.271 64.6338 236.708C63.4396 233.145 65.6374 230.009 66.104 230.009C66.5707 230.009 67.223 226.07 66.2295 223.903C65.236 221.735 70.6401 219.768 70.6401 219.768ZM207.575 132.85L206.516 133.111V132.885C206.516 132.885 206.902 132.885 207.575 132.85ZM149.69 103.12C149.529 103.321 149.369 103.511 149.188 103.697L148.982 103.908C148.982 103.542 148.982 103.17 148.982 102.814C149.223 102.909 149.454 103.025 149.69 103.12ZM129.734 141.345L129.805 142.454C129.805 142.454 129.699 143.132 129.498 144.291L129.734 141.345ZM221.283 130.336L217.806 130.934C218.308 130.748 218.785 130.547 219.256 130.321C219.606 130.158 219.981 130.056 220.365 130.02C220.805 130.067 221.239 130.16 221.66 130.296C221.533 130.3 221.408 130.313 221.283 130.336Z" fill="url(#paint0_linear)"/>
<path d="M103.722 272.58C103.722 272.58 99.708 280.864 99.9138 281.451C100.119 282.039 91.3083 289.068 91.3083 289.068L81.7294 282.229L82.7329 277.533C82.7329 277.533 93.486 267.843 94.2738 266.724C95.0616 265.605 103.722 272.58 103.722 272.58Z" fill="#EFB7B9"/>
<path d="M49.0787 300.609C55.7272 307.062 63.5449 305.125 67.2631 304.719C70.9812 304.313 90.8165 292.4 92.7232 291.618C93.225 291.407 93.8522 290.724 94.4644 289.841C95.7437 287.863 96.8661 285.788 97.8213 283.634C97.6908 283.67 91.1878 285.531 89.547 283.634C89.547 283.634 86.8073 280.278 86.2202 280.278C85.6331 280.278 86.175 274.387 86.175 274.387C86.175 274.387 79.1803 278.321 76.837 280.473C74.4937 282.626 63.5399 285.26 63.5399 285.26C60.8309 286.439 58.2026 287.795 55.672 289.32C50.4937 292.481 45.2752 296.942 49.0787 300.609Z" fill="#67647E"/>
<path opacity="0.1" d="M49.0787 300.609C55.7273 307.062 63.5449 305.125 67.2631 304.719C70.9813 304.313 90.8165 292.4 92.7232 291.618C93.225 291.407 93.8522 290.725 94.4644 289.841C92.1512 288.462 77.0377 298.071 72.8077 299.832C68.5777 301.593 57.8749 300.609 51.7983 298.071C48.7877 296.801 51.8385 292.902 55.662 289.32C50.4937 292.481 45.2753 296.942 49.0787 300.609Z" fill="black"/>
<path d="M49.8615 280.277C49.8615 280.277 47.0766 301.197 47.7841 303.936C48.4917 306.676 30.3073 294.553 30.3073 294.553C30.3073 294.553 36.6698 281.441 34.8232 278.431C32.9767 275.42 49.8615 280.277 49.8615 280.277Z" fill="#EFB7B9"/>
<path d="M32.4599 280.669C32.4599 280.669 43.8001 283.991 50.0522 283.599C55.5316 283.258 54.7137 277.969 54.4277 276.66C54.3876 276.474 54.3574 276.369 54.3574 276.369C58.2663 272.063 67.0674 240 65.8983 236.482C64.7292 232.965 66.8517 229.859 67.3535 229.859C67.8552 229.859 68.4523 225.945 67.4739 223.797C66.4954 221.65 71.7791 219.693 71.7791 219.693C88.398 221.253 106.191 218.499 106.191 218.499C106.191 218.499 104.821 223.406 103.647 225.363C102.473 227.32 99.1309 238.459 99.1309 240.808C99.1309 243.156 93.8523 263.292 92.2867 264.271C91.6344 264.682 91.0473 265.706 90.5857 266.78C90.1734 267.759 89.828 268.765 89.552 269.79C90.1391 282.892 104.997 277.819 107.149 276.047C107.456 275.793 107.735 275.507 107.982 275.194C108.737 274.205 109.132 272.987 109.101 271.742C109.101 271.742 128.46 251.997 125.916 243.783C123.372 235.569 132.173 235.378 132.173 235.378C132.173 235.378 145.666 229.513 147.542 225.99C148.701 223.828 158.817 219.076 166.434 215.734C171.206 213.642 174.995 212.111 174.995 212.111L171.823 200.741L169.314 191.774L164.608 190.008L149.554 184.348L122.549 180.559L120.075 180.881L93.8372 184.278C93.8372 184.278 55.5316 195.236 51.6177 196.952C47.7039 198.669 45.5563 215.754 45.5563 215.754C45.5563 215.754 37.3472 244.104 37.7486 247.838C38.1501 251.571 35.0089 261.887 35.0089 261.887C35.0089 261.887 35.0089 273.584 33.6792 274.377C33.6661 274.38 33.6522 274.38 33.6391 274.377C32.2642 275.019 32.4599 280.669 32.4599 280.669Z" fill="#444053"/>
<path opacity="0.1" d="M71.759 219.668C88.3779 221.228 106.171 218.474 106.171 218.474C107.345 214.775 123.778 204.609 123.778 204.609C110.295 201.288 71.759 219.668 71.759 219.668Z" fill="black"/>
<path d="M89.552 269.72C90.1391 282.822 104.997 277.749 107.149 275.977C107.456 275.723 107.735 275.437 107.982 275.124C102.789 277.036 93.5813 278.516 90.5857 266.729C90.1742 267.702 89.8289 268.701 89.552 269.72Z" fill="#444053"/>
<path d="M32.4599 280.669C32.4599 280.669 43.8001 283.991 50.0522 283.599C55.5316 283.258 54.7137 277.969 54.4277 276.66C48.6874 276.479 38.8024 275.942 33.6692 274.387C33.6561 274.391 33.6421 274.391 33.6291 274.387C32.2642 275.019 32.4599 280.669 32.4599 280.669Z" fill="#444053"/>
<path opacity="0.1" d="M89.552 269.72C90.1391 282.822 104.997 277.749 107.149 275.977C107.456 275.723 107.735 275.437 107.982 275.124C102.789 277.036 93.5813 278.516 90.5857 266.729C90.1742 267.702 89.8289 268.701 89.552 269.72Z" fill="black"/>
<path opacity="0.1" d="M32.4599 280.669C32.4599 280.669 43.8001 283.991 50.0522 283.599C55.5316 283.258 54.7137 277.969 54.4277 276.66C48.6874 276.479 38.8024 275.942 33.6692 274.387C33.6561 274.391 33.6421 274.391 33.6291 274.387C32.2642 275.019 32.4599 280.669 32.4599 280.669Z" fill="black"/>
<path d="M4.49585 321.533C10.5573 325.638 19.7498 323.681 19.7498 323.681C19.7498 323.681 33.629 317.037 37.7385 317.037C41.8481 317.037 51.7983 312.928 51.7983 312.928L51.4621 310.163L49.8464 296.896C49.8464 296.896 34.6175 296.505 34.0053 295.135C34.0053 295.135 31.2706 288.401 30.2922 290.89C29.3137 293.379 14.6518 310.961 10.9336 310.961C9.16236 310.961 6.23701 312.426 4.31521 314.403C2.2228 316.596 1.32462 319.386 4.49585 321.533Z" fill="#67647E"/>
<path opacity="0.1" d="M57.0922 205.979C57.0922 205.979 69.8022 214.008 66.2848 215.754C62.7673 217.5 57.0922 205.979 57.0922 205.979Z" fill="black"/>
<path opacity="0.1" d="M51.7983 221.424C51.7983 221.424 62.7471 231.821 58.6426 232.097C54.538 232.373 51.7983 221.424 51.7983 221.424Z" fill="black"/>
<path opacity="0.1" d="M40.0819 254.446C40.0819 254.446 45.6416 264.898 43.5492 266.709C41.4568 268.521 40.0819 254.446 40.0819 254.446Z" fill="black"/>
<path opacity="0.1" d="M101.283 265.029C99.3266 266.98 119.849 258.576 115.163 258.184C110.476 257.793 101.283 265.029 101.283 265.029Z" fill="black"/>
<path d="M142.339 118.384L142.996 118.289C145.425 117.918 154.241 116.533 162.149 114.817C164.076 114.395 165.942 113.959 167.669 113.507C173.725 111.921 177.789 110.21 175.195 108.805C171.763 106.944 169.957 103.562 169.003 100.651C168.913 100.365 168.828 100.089 168.747 99.8134C168.326 98.3401 168.062 96.8264 167.96 95.2975C167.96 95.2975 145.881 87.4748 150.167 95.2975C152.279 99.136 150.859 102.267 148.867 104.46C147.497 105.91 145.886 107.11 144.105 108.007L142.339 118.384Z" fill="#EFB7B9"/>
<path opacity="0.1" d="M165.998 112.323C165.998 112.323 158.095 117.993 150.021 113.301C141.947 108.61 131.39 154.753 131.39 154.753L120.441 181.733C120.441 181.733 113.351 187.599 122.177 190.143C131.004 192.687 150.583 187.599 155.556 195.031C160.528 202.462 169.942 203.631 170.905 203.631C171.868 203.631 175.592 175.667 175.592 175.667L176.56 135.194L165.998 112.323Z" fill="black"/>
<path d="M122.549 188.578C131.375 191.117 150.959 186.034 155.932 193.465C158.027 196.493 160.953 198.85 164.357 200.254C166.554 201.241 168.899 201.861 171.296 202.09C171.422 202.09 171.608 201.589 171.823 200.69C173.198 195.03 175.983 174.126 175.983 174.126L176.946 133.653L167.659 113.507L166.389 110.757C165.145 111.587 163.794 112.247 162.375 112.719C159.319 113.753 154.898 114.335 150.423 111.716C148.054 110.341 145.47 113.341 143.006 118.269C137.065 130.131 131.792 153.167 131.792 153.167L120.833 180.183C120.572 180.407 120.324 180.644 120.09 180.895C118.535 182.521 115.619 186.581 122.549 188.578Z" fill="#F3F5F9"/>
<path opacity="0.1" d="M164.618 189.938C164.186 193.352 164.098 196.802 164.357 200.234C164.673 205.117 165.287 209.977 166.193 214.786C166.25 215.088 166.33 215.385 166.434 215.674C171.206 213.581 174.995 212.051 174.995 212.051L171.823 200.681C173.198 195.021 175.983 174.117 175.983 174.117L176.946 133.643L167.659 113.507C173.715 111.921 177.779 110.21 175.185 108.805C171.422 106.763 169.611 102.889 168.737 99.8135C167.147 102.031 165.284 104.041 163.193 105.795L163.072 105.895L162.37 112.719L162.154 114.817L161.703 119.167C161.703 119.167 163.855 170.589 165.416 173.524C166.976 176.46 166.198 182.125 164.834 188.773C164.748 189.15 164.698 189.536 164.618 189.938Z" fill="black"/>
<path d="M165.606 187.991C164.241 194.639 165.411 205.588 166.976 213.993C168.542 222.398 185.161 216.928 188.292 213.993C191.423 211.057 200.605 209.693 200.605 209.693C200.605 209.693 200.997 171.372 203.932 166.485C205.322 164.166 205.658 156.6 205.623 149.289C205.598 142.725 205.272 136.368 205.151 134.235C205.121 133.734 205.106 133.458 205.106 133.458C205.106 133.458 217.811 111.951 217.615 110.376C217.42 108.8 213.707 108.62 213.707 108.62C213.707 108.62 199.657 97.6708 197.283 99.0356C194.91 100.4 188.482 96.888 188.482 96.888C188.482 96.888 180.308 97.8163 178.617 96.2357C178.514 96.1481 178.434 96.0374 178.381 95.9128C178.329 95.7882 178.307 95.653 178.316 95.5182C178.507 93.0093 169.987 87.6704 169.721 87.4898C176.906 93.9526 165.29 103.913 163.971 105.007L163.85 105.107L162.48 118.379C162.48 118.379 164.633 169.801 166.193 172.737C167.754 175.672 166.976 181.342 165.606 187.991Z" fill="#67647E"/>
<path d="M166.364 133.111C166.904 133.111 167.342 132.673 167.342 132.133C167.342 131.593 166.904 131.154 166.364 131.154C165.824 131.154 165.385 131.593 165.385 132.133C165.385 132.673 165.824 133.111 166.364 133.111Z" fill="#444053"/>
<path opacity="0.1" d="M164.362 105.795L170.303 111.54L179.009 96.9884C178.906 96.9008 178.825 96.7902 178.773 96.6655C178.721 96.5409 178.698 96.4057 178.708 96.2709C178.898 93.762 170.373 88.4231 170.112 88.2425C177.298 94.7405 165.702 104.701 164.362 105.795Z" fill="black"/>
<path opacity="0.1" d="M168.321 164.392C168.861 164.392 169.299 163.954 169.299 163.414C169.299 162.873 168.861 162.435 168.321 162.435C167.78 162.435 167.342 162.873 167.342 163.414C167.342 163.954 167.78 164.392 168.321 164.392Z" fill="black"/>
<path d="M168.321 164.001C168.861 164.001 169.299 163.563 169.299 163.022C169.299 162.482 168.861 162.044 168.321 162.044C167.78 162.044 167.342 162.482 167.342 163.022C167.342 163.563 167.78 164.001 168.321 164.001Z" fill="#444053"/>
<path d="M163.97 105.012L169.911 110.757L178.617 96.2057C178.514 96.118 178.434 96.0074 178.381 95.8828C178.329 95.7581 178.307 95.623 178.316 95.4882C178.507 92.9793 169.987 87.6404 169.721 87.4597C176.906 93.9577 165.29 103.913 163.97 105.012Z" fill="#67647E"/>
<path d="M158.663 159.763L170.562 160.036C171.033 160.046 171.424 159.673 171.434 159.202L172.053 132.163C172.064 131.692 171.69 131.302 171.219 131.291L159.32 131.019C158.849 131.008 158.459 131.381 158.448 131.852L157.83 158.891C157.819 159.362 158.192 159.753 158.663 159.763Z" fill="#D1D9EC"/>
<path d="M158.733 160.399L170.632 160.671C171.103 160.682 171.493 160.309 171.504 159.838L172.122 132.799C172.133 132.328 171.76 131.938 171.289 131.927L159.39 131.655C158.919 131.644 158.529 132.017 158.518 132.488L157.9 159.527C157.889 159.998 158.262 160.388 158.733 160.399Z" fill="#DFE6F5"/>
<path d="M165.365 142.349C166.546 142.349 167.503 141.392 167.503 140.211C167.503 139.031 166.546 138.074 165.365 138.074C164.185 138.074 163.228 139.031 163.228 140.211C163.228 141.392 164.185 142.349 165.365 142.349Z" fill="white"/>
<path opacity="0.1" d="M91.6997 186.229C96.587 188.382 128.656 182.717 133.347 181.342C138.039 179.967 144.888 169.415 141.561 161.773C138.234 154.131 142.73 146.72 142.73 146.72C142.73 146.72 149.755 131.666 151.336 128.731C152.916 125.795 156.163 117.26 156.615 115.83C156.633 115.67 156.618 115.507 156.57 115.352C156.523 115.198 156.444 115.055 156.339 114.932C155.064 113.01 150.147 109.588 150.147 109.588C148.767 110.09 148.596 106.131 148.641 103.226C148.671 101.6 148.767 100.305 148.767 100.305C148.767 100.305 148.119 100.963 147.061 101.861C146.674 102.187 146.233 102.548 145.741 102.919C143.908 104.388 141.833 105.528 139.609 106.286C134.918 107.676 128.269 114.084 128.269 114.084L130.226 144.11C130.226 144.11 125.71 172.35 121.034 177.825C116.357 183.299 102.262 183.103 97.5705 183.103C92.8789 183.103 91.6997 186.229 91.6997 186.229Z" fill="black"/>
<path d="M91.3082 185.06C96.1955 187.208 128.264 181.548 132.956 180.168C137.647 178.788 144.497 168.241 141.17 160.599C137.843 152.957 142.339 145.545 142.339 145.545C142.339 145.545 149.364 130.492 150.944 127.557C152.525 124.621 155.771 116.086 156.223 114.656C156.241 114.495 156.226 114.333 156.178 114.178C156.131 114.024 156.052 113.881 155.947 113.758C154.663 111.841 149.77 108.429 149.77 108.429C148.39 108.931 148.22 104.977 148.265 102.071C148.295 100.441 148.39 99.146 148.39 99.146C148.39 99.146 147.743 99.8034 146.684 100.707C146.298 101.028 145.856 101.389 145.365 101.76C143.522 103.232 141.437 104.372 139.203 105.127C134.511 106.517 127.863 112.925 127.863 112.925L129.82 142.951C129.82 142.951 125.304 171.191 120.627 176.666C115.95 182.14 101.861 181.944 97.164 181.944C92.4673 181.944 91.3082 185.06 91.3082 185.06Z" fill="#67647E"/>
<path opacity="0.1" d="M144.491 99.8987C144.491 99.8987 144.677 100.927 144.993 102.513C146.047 107.882 148.556 119.604 150.367 119.152C151.667 118.826 153.88 116.528 155.566 114.541C154.296 112.604 149.389 109.182 149.389 109.182C148.009 109.683 147.838 105.729 147.883 102.824L146.303 101.459L144.491 99.8987Z" fill="black"/>
<path d="M144.883 99.131C144.883 99.131 145.068 100.16 145.385 101.745C146.438 107.114 148.947 118.836 150.759 118.384C152.058 118.058 154.271 115.76 155.957 113.773C154.662 111.841 149.77 108.429 149.77 108.429C148.39 108.931 148.22 104.977 148.265 102.071L146.684 100.707L144.883 99.131Z" fill="#67647E"/>
<path d="M132.369 156.705C132.369 156.705 142.148 154.753 144.883 150.453C147.618 146.153 166.244 142.424 163.95 146.94C161.657 151.456 144.883 166.153 144.883 166.153L137.602 176.575L127.878 174.107L123.778 166.133L132.369 156.705Z" fill="#EFB7B9"/>
<path opacity="0.1" d="M155.5 167.864C155.5 167.864 146.032 171.377 144.607 176.073C143.182 180.77 155.5 167.864 155.5 167.864Z" fill="black"/>
<path opacity="0.1" d="M161.306 173.329C161.306 173.329 162.169 178.211 150.302 177.845L161.306 173.329Z" fill="black"/>
<path opacity="0.1" d="M212.532 110.757L216.838 110.366C216.838 110.366 221.529 113.878 225.047 113.878C228.564 113.878 230.717 118.394 230.717 118.394C230.717 118.394 236.582 121.134 238.539 121.525C240.496 121.917 243.818 123.869 242.84 124.651C241.861 125.434 243.035 127.195 244.796 128.56C246.558 129.925 249.312 136.97 246.944 137.949C244.576 138.927 238.148 140.879 236.407 141.857C234.666 142.836 232.498 141.857 232.498 141.857C232.498 141.857 222.141 128.365 216.858 130.909C211.574 133.453 204.338 133.438 204.338 133.438L198.668 121.515L212.532 110.757Z" fill="black"/>
<path d="M122.549 175.095C123.472 176.47 124.666 177.433 126.197 177.629C130.024 178.076 133.902 177.717 137.582 176.575C137.582 176.575 117.887 170.318 136.849 155.104H131.782L130.075 154.462L130.848 150.413L131.962 113.888L127.858 112.91C127.858 112.91 124.551 136.96 123.763 139.89C122.975 142.821 122.383 154.166 122.383 154.166C122.383 154.166 121.601 158.857 120.426 161.191C119.538 162.967 119.784 170.92 122.549 175.095Z" fill="#67647E"/>
<path opacity="0.1" d="M123.347 175.095C124.265 176.47 125.464 177.433 126.995 177.629C130.822 178.076 134.7 177.717 138.38 176.575C138.38 176.575 118.685 170.318 137.647 155.094H132.584L130.893 154.452C128.068 159.394 123.703 168.17 123.347 175.095Z" fill="black"/>
<path d="M122.549 175.095C123.472 176.47 124.666 177.433 126.197 177.629C130.024 178.076 133.902 177.717 137.582 176.575C137.582 176.575 117.887 170.318 136.849 155.104H131.781L130.075 154.462C127.306 159.394 122.92 168.17 122.549 175.095Z" fill="#67647E"/>
<path opacity="0.1" d="M148.862 104.475C152.203 105.991 155.931 106.437 159.536 105.753C163.14 105.068 166.445 103.287 168.998 100.651C168.908 100.365 168.823 100.089 168.742 99.8134C168.321 98.3401 168.057 96.8264 167.955 95.2975C167.955 95.2975 145.876 87.4748 150.162 95.2975C152.274 99.1511 150.854 102.282 148.862 104.475Z" fill="black"/>
<path d="M138.43 87.4898V87.6654C138.43 88.2425 138.47 88.8145 138.53 89.3765C138.591 89.9385 138.671 90.4503 138.771 90.9772C139.539 94.8109 141.547 98.2853 144.486 100.864C147.425 103.442 151.132 104.981 155.033 105.242C158.934 105.504 162.812 104.473 166.069 102.311C169.326 100.148 171.78 96.9723 173.053 93.2753C173.173 92.9291 173.278 92.5828 173.374 92.2316C173.803 90.6876 174.019 89.0923 174.016 87.4898C174.016 87.0834 174.016 86.6719 173.971 86.2705C173.643 81.6769 171.547 77.3893 168.124 74.3091C164.7 71.2289 160.215 69.5961 155.613 69.754C151.01 69.9119 146.648 71.8482 143.444 75.1558C140.239 78.4634 138.442 82.8846 138.43 87.4898Z" fill="#EFB7B9"/>
<path opacity="0.1" d="M138.43 87.6655C138.527 88.2303 138.561 88.8042 138.53 89.3765C138.524 89.6868 138.541 89.9971 138.581 90.3048C138.614 90.5364 138.678 90.7626 138.771 90.9772C139.489 92.6632 141.837 93.7571 143.388 92.6682C143.985 92.179 144.459 91.557 144.773 90.8518C146.418 87.7959 148.701 84.2835 152.299 84.2233C153.835 84.1932 155.275 84.8405 156.76 85.2268C158.245 85.6132 160.001 85.6483 161.105 84.6398C161.958 83.862 162.36 82.5373 163.499 82.2663C164.638 81.9954 165.692 83.0391 166.213 84.0627C166.735 85.0863 167.152 86.2906 168.221 86.8225C168.692 87.0533 169.224 87.1236 169.726 87.3744C171.853 88.5386 170.875 92.618 173.083 93.2804C173.152 93.3018 173.222 93.3186 173.293 93.3306C173.329 92.9693 173.369 92.598 173.404 92.2367C173.605 90.2496 173.804 88.2626 174.001 86.2756C173.673 81.6819 171.577 77.3943 168.154 74.3141C164.73 71.2339 160.246 69.6011 155.643 69.759C151.04 69.9169 146.678 71.8532 143.474 75.1608C140.269 78.4684 138.472 82.8896 138.46 87.4949L138.43 87.6655Z" fill="black"/>
<path d="M170.037 60.9308C172.129 61.8189 174.307 63.1837 174.774 65.3163C174.979 66.2546 174.824 67.2281 174.874 68.1814C174.974 70.1082 175.878 71.8946 176.475 73.7411C177.072 75.5877 177.273 77.7553 176.098 79.3108C175.732 79.8126 175.245 80.209 174.914 80.7208C174.482 81.5275 174.248 82.4253 174.232 83.3401L173.263 92.9642C170.785 92.4975 171.888 88.1973 169.691 87.0031C169.234 86.7522 168.687 86.6819 168.21 86.4461C167.152 85.9443 166.74 84.715 166.203 83.6913C165.666 82.6677 164.648 81.619 163.489 81.895C162.33 82.171 161.948 83.4957 161.1 84.2684C159.991 85.2719 158.23 85.2318 156.75 84.8555C155.27 84.4791 153.825 83.8519 152.294 83.8519C148.691 83.9121 146.403 87.4246 144.767 90.4804C144.453 91.1876 143.977 91.8114 143.378 92.3018C141.631 93.5262 138.862 91.9807 138.576 89.9334C138.405 88.7844 138.766 87.5048 138.104 86.5314C137.442 85.558 136.006 85.3522 134.887 84.8304C132.027 83.5157 131.144 79.9481 131.616 76.9575C131.962 74.7999 132.82 72.582 132.118 70.5047C131.872 69.7871 131.455 69.1348 131.23 68.4173C130.602 66.4102 131.626 64.1823 133.237 62.7522C134.847 61.3221 136.96 60.5344 139.037 59.8419C144.371 58.0506 149.971 56.3295 155.646 55.9581C158.13 55.7976 161.386 55.0198 163.358 56.5703C165.702 58.3667 167.147 59.7064 170.037 60.9308Z" fill="#585268"/>
<path opacity="0.1" d="M165.385 117.662C165.926 117.662 166.364 117.224 166.364 116.683C166.364 116.143 165.926 115.705 165.385 115.705C164.845 115.705 164.407 116.143 164.407 116.683C164.407 117.224 164.845 117.662 165.385 117.662Z" fill="black"/>
<path d="M165.385 117.27C165.926 117.27 166.364 116.832 166.364 116.292C166.364 115.751 165.926 115.313 165.385 115.313C164.845 115.313 164.407 115.751 164.407 116.292C164.407 116.832 164.845 117.27 165.385 117.27Z" fill="#444053"/>
<path opacity="0.1" d="M171.643 179.059C172.183 179.059 172.621 178.621 172.621 178.081C172.621 177.54 172.183 177.102 171.643 177.102C171.102 177.102 170.664 177.54 170.664 178.081C170.664 178.621 171.102 179.059 171.643 179.059Z" fill="black"/>
<path d="M171.643 178.668C172.183 178.668 172.621 178.229 172.621 177.689C172.621 177.149 172.183 176.711 171.643 176.711C171.102 176.711 170.664 177.149 170.664 177.689C170.664 178.229 171.102 178.668 171.643 178.668Z" fill="#444053"/>
<path opacity="0.1" d="M168.321 195.286C168.861 195.286 169.299 194.848 169.299 194.308C169.299 193.768 168.861 193.33 168.321 193.33C167.78 193.33 167.342 193.768 167.342 194.308C167.342 194.848 167.78 195.286 168.321 195.286Z" fill="black"/>
<path d="M168.321 194.895C168.861 194.895 169.299 194.457 169.299 193.917C169.299 193.376 168.861 192.938 168.321 192.938C167.78 192.938 167.342 193.376 167.342 193.917C167.342 194.457 167.78 194.895 168.321 194.895Z" fill="#444053"/>
<path opacity="0.1" d="M134.717 132.133C134.717 132.133 132.564 146.735 134.717 149.279C136.869 151.823 134.717 132.133 134.717 132.133Z" fill="black"/>
<path opacity="0.1" d="M198.653 159.249C198.653 159.249 202.758 168.095 198.653 176.575C194.549 185.055 192.005 188.502 193.375 193.917C194.744 199.331 198.653 159.249 198.653 159.249Z" fill="black"/>
<path opacity="0.1" d="M4.49585 321.533C10.5573 325.638 19.7498 323.681 19.7498 323.681C19.7498 323.681 33.629 317.038 37.7385 317.038C41.8481 317.038 51.7983 312.928 51.7983 312.928L51.4621 310.163C47.4128 310.941 38.2002 312.803 37.1364 313.711C35.7665 314.885 18.952 320.555 18.952 320.555C18.952 320.555 7.50149 319.125 4.31521 314.418C2.2228 316.596 1.32462 319.386 4.49585 321.533Z" fill="black"/>
<g opacity="0.1">
<path opacity="0.1" d="M174.874 66.6159C174.874 66.4051 174.874 66.1944 174.874 65.9786C174.874 66.2245 174.874 66.4804 174.874 66.7112C174.884 66.6811 174.874 66.651 174.874 66.6159Z" fill="black"/>
<path opacity="0.1" d="M134.893 83.2498C136.011 83.7515 137.401 83.9522 138.109 84.9458C138.816 85.9393 138.41 87.1987 138.581 88.3478C138.877 90.3951 141.636 91.9455 143.383 90.7162C143.982 90.2258 144.458 89.602 144.773 88.8947C146.413 85.8389 148.701 82.3265 152.299 82.2663C153.835 82.2412 155.275 82.8885 156.76 83.2698C158.245 83.6512 160.001 83.6913 161.11 82.6828C161.958 81.91 162.36 80.5803 163.499 80.3094C164.638 80.0384 165.687 81.0821 166.213 82.1057C166.74 83.1293 167.152 84.3336 168.22 84.8655C168.692 85.0963 169.224 85.1665 169.701 85.4174C171.899 86.6167 170.795 90.937 173.273 91.3785C173.608 88.1672 173.931 84.9591 174.242 81.7545C174.262 80.8497 174.496 79.9626 174.924 79.1653C175.255 78.6635 175.742 78.242 176.108 77.7503C176.552 77.143 176.829 76.4303 176.911 75.683C177.119 76.9521 176.832 78.2525 176.108 79.3158C175.742 79.8176 175.255 80.214 174.924 80.7258C174.49 81.5301 174.252 82.4261 174.232 83.3401C173.897 86.5481 173.574 89.7561 173.263 92.9641C170.785 92.4975 171.888 88.1973 169.691 87.003C169.234 86.7522 168.687 86.6819 168.21 86.4461C167.152 85.9443 166.74 84.7149 166.203 83.6913C165.666 82.6677 164.648 81.619 163.489 81.895C162.33 82.1709 161.948 83.4956 161.1 84.2684C159.991 85.2719 158.23 85.2318 156.75 84.8554C155.27 84.4791 153.825 83.8519 152.289 83.8519C148.691 83.9121 146.403 87.4245 144.762 90.4804C144.448 91.1876 143.972 91.8114 143.373 92.3018C141.626 93.5261 138.857 91.9807 138.571 89.9334C138.4 88.7844 138.761 87.5048 138.099 86.5314C137.437 85.5579 136.001 85.3522 134.882 84.8304C132.268 83.6261 131.305 80.5402 131.526 77.7352C131.726 80.0284 132.76 82.2663 134.893 83.2498Z" fill="black"/>
<path opacity="0.1" d="M131.235 66.8767C131.46 67.5942 131.877 68.2515 132.123 68.9641C132.382 69.796 132.457 70.6743 132.344 71.5382C132.304 71.197 132.23 70.8607 132.123 70.5346C131.877 69.8171 131.46 69.1648 131.235 68.4472C131.036 67.785 130.997 67.0854 131.119 66.405C131.148 66.5643 131.187 66.7218 131.235 66.8767Z" fill="black"/>
</g>
<path d="M241.54 227.877L201.237 222.834C200.953 222.799 200.685 222.685 200.462 222.506C200.238 222.326 200.07 222.088 199.974 221.818C199.879 221.549 199.861 221.257 199.922 220.978C199.983 220.698 200.12 220.441 200.319 220.235L217.224 202.673C217.388 202.502 217.589 202.371 217.812 202.291C218.035 202.211 218.273 202.184 218.509 202.211L249.323 205.663C249.557 205.69 249.782 205.769 249.981 205.896C250.179 206.023 250.346 206.194 250.468 206.396C250.59 206.598 250.665 206.825 250.685 207.059C250.706 207.294 250.672 207.531 250.587 207.751L243.171 226.913C243.044 227.232 242.816 227.5 242.52 227.674C242.225 227.849 241.88 227.92 241.54 227.877Z" fill="#746D83"/>
<path opacity="0.1" d="M241.54 227.877L201.237 222.834C200.953 222.799 200.685 222.685 200.462 222.506C200.238 222.326 200.07 222.088 199.974 221.818C199.879 221.549 199.861 221.257 199.922 220.978C199.983 220.698 200.12 220.441 200.319 220.235L217.224 202.673C217.388 202.502 217.589 202.371 217.812 202.291C218.035 202.211 218.273 202.184 218.509 202.211L249.323 205.663C249.557 205.69 249.782 205.769 249.981 205.896C250.179 206.023 250.346 206.194 250.468 206.396C250.59 206.598 250.665 206.825 250.685 207.059C250.706 207.294 250.672 207.531 250.587 207.751L243.171 226.913C243.044 227.232 242.816 227.5 242.52 227.674C242.225 227.849 241.88 227.92 241.54 227.877Z" fill="black"/>
<path d="M241.083 227.425L200.786 222.362C200.502 222.326 200.233 222.212 200.01 222.032C199.788 221.852 199.619 221.613 199.524 221.343C199.429 221.073 199.41 220.782 199.471 220.502C199.532 220.222 199.669 219.965 199.867 219.758L216.772 202.196C216.937 202.026 217.138 201.895 217.361 201.814C217.583 201.733 217.821 201.704 218.057 201.729L248.866 205.182C249.101 205.208 249.327 205.288 249.526 205.415C249.725 205.542 249.892 205.714 250.015 205.916C250.138 206.118 250.212 206.345 250.233 206.581C250.254 206.816 250.221 207.053 250.135 207.274L242.714 226.437C242.591 226.76 242.364 227.032 242.069 227.211C241.773 227.39 241.426 227.466 241.083 227.425Z" fill="#746D83"/>
<path d="M217.068 209.075L229.171 210.049L246.432 208.925H246.136L230.145 207.379C226.482 206.035 229.021 198.116 229.021 198.116L216.772 198.739L215.794 198.789C211.464 208.925 217.068 209.075 217.068 209.075Z" fill="#D1D9EC"/>
<path opacity="0.1" d="M217.068 209.075L229.171 210.049L246.432 208.925H246.136L228.685 209.547L216.993 208.277C213.671 207.404 215.573 201.644 216.772 198.744L215.794 198.794C211.464 208.925 217.068 209.075 217.068 209.075Z" fill="black"/>
<path d="M195.868 137.105L199.572 190.219L200.073 197.188C200.123 197.958 200.467 198.678 201.032 199.202C201.598 199.726 202.343 200.013 203.114 200.003H204.238L259.985 199.667C260.203 199.665 260.417 199.617 260.615 199.527C260.814 199.438 260.991 199.308 261.136 199.146C261.281 198.984 261.392 198.794 261.459 198.587C261.527 198.381 261.552 198.162 261.531 197.946L261.029 190.971L257.105 144.266C257.044 143.657 256.81 143.078 256.43 142.598C256.05 142.118 255.541 141.756 254.963 141.556L201.83 133.588C200.023 132.961 198.182 133.182 197.033 134.14C196.609 134.5 196.281 134.959 196.078 135.477C195.875 135.994 195.803 136.553 195.868 137.105Z" fill="#4C4C56"/>
<path d="M199.571 190.219L200.073 197.188C200.123 197.958 200.467 198.678 201.032 199.202C201.598 199.726 202.343 200.013 203.114 200.003H204.238L259.985 199.667C260.203 199.665 260.417 199.617 260.615 199.527C260.813 199.438 260.991 199.308 261.136 199.146C261.281 198.984 261.391 198.794 261.459 198.587C261.527 198.381 261.552 198.162 261.531 197.946L261.029 190.971L199.571 190.219Z" fill="#DFE6F5"/>
<path d="M236.944 197.494C237.357 197.494 237.691 196.825 237.691 195.999C237.691 195.173 237.357 194.504 236.944 194.504C236.531 194.504 236.196 195.173 236.196 195.999C236.196 196.825 236.531 197.494 236.944 197.494Z" fill="white"/>
<path d="M234.776 215.874C234.776 215.874 219.532 210.119 215.423 214.304C215.423 214.304 214.75 215.578 217.515 215.874L228.684 216.773C228.684 216.773 233.281 217.219 234.776 215.874Z" fill="#D1D9EC"/>
<path d="M234.37 214.379C231.359 213.155 222.362 209.989 216.592 213.491C216.592 213.491 222.974 212.783 226.482 214.811C229.989 216.838 234.776 215.874 234.776 215.874L234.846 215.749C234.913 215.629 234.954 215.497 234.966 215.36C234.979 215.224 234.961 215.086 234.916 214.957C234.871 214.827 234.799 214.709 234.705 214.609C234.611 214.51 234.496 214.431 234.37 214.379Z" fill="#DFE6F5"/>
<path d="M195.868 137.105L200.053 197.198C200.103 197.968 200.446 198.688 201.012 199.212C201.578 199.736 202.323 200.022 203.094 200.013H204.218C203.448 199.278 202.792 198.433 202.271 197.504C202.271 197.504 198.161 137.12 197.86 135.625C197.728 135.065 197.442 134.554 197.032 134.15C196.611 134.509 196.284 134.966 196.081 135.482C195.878 135.997 195.805 136.555 195.868 137.105Z" fill="#DFE6F5"/>
<path opacity="0.1" d="M195.868 137.105L200.053 197.198C200.103 197.968 200.446 198.688 201.012 199.212C201.578 199.736 202.323 200.022 203.094 200.013H204.218C203.448 199.278 202.792 198.433 202.271 197.504C202.271 197.504 198.161 137.12 197.86 135.625C197.728 135.065 197.442 134.554 197.032 134.15C196.611 134.509 196.284 134.966 196.081 135.482C195.878 135.997 195.805 136.555 195.868 137.105Z" fill="black"/>
<path opacity="0.1" d="M188.678 153.764C193.194 152.761 203.731 149.67 203.731 149.67L205.618 149.289C205.593 142.725 205.267 136.368 205.146 134.235H205.101C205.101 134.235 196.104 137.171 193.957 138.751C191.809 140.332 185.155 139.92 185.155 139.92C185.155 139.92 174.799 140.477 166.203 150.076C157.608 159.675 184.182 154.753 188.678 153.764Z" fill="black"/>
<path d="M232.629 136.318C233.031 136.501 233.379 136.784 233.642 137.139C233.905 137.494 234.074 137.91 234.133 138.348C234.191 138.786 234.138 139.232 233.978 139.644C233.817 140.056 233.555 140.42 233.216 140.703C230.832 142.675 227.355 145.034 224.033 145.365C218.514 145.922 205.166 148.596 203.842 148.877C203.77 148.889 203.7 148.906 203.631 148.927C202.532 149.249 192.918 152.064 188.678 152.992C184.162 153.995 157.568 158.868 166.193 149.289C174.111 140.467 183.52 139.253 184.97 139.138C185.085 139.128 185.201 139.128 185.316 139.138C186.32 139.183 192 139.379 193.962 137.959C194.984 137.317 196.066 136.778 197.193 136.348C201.445 134.589 205.879 133.309 210.415 132.534L219.613 130.929C220.136 130.838 220.675 130.908 221.158 131.129L232.629 136.318Z" fill="#EFB7B9"/>
<path d="M213.315 110.757L217.615 110.366C217.615 110.366 222.312 113.878 225.829 113.878C229.347 113.878 231.499 118.394 231.499 118.394C231.499 118.394 237.365 121.134 239.322 121.525C241.279 121.917 244.601 123.869 243.622 124.651C242.644 125.434 243.818 127.195 245.579 128.56C247.341 129.925 250.095 136.97 247.727 137.949C245.358 138.927 238.931 140.879 237.19 141.857C235.448 142.836 233.281 141.857 233.281 141.857C233.281 141.857 222.904 128.355 217.62 130.899C212.337 133.443 205.106 133.438 205.106 133.438L199.436 121.515L213.315 110.757Z" fill="#67647E"/>
<path d="M470.781 356.628C470.3 357.287 469.916 358.012 469.642 358.78C469.567 358.966 469.502 359.182 469.432 359.388C469.304 359.329 469.171 359.282 469.035 359.247C468.45 359.099 467.845 359.048 467.244 359.097C467.244 358.861 467.244 358.62 467.279 358.359C467.349 355.715 467.038 352.032 464.519 353.592C462.096 355.097 463.822 357.606 465.382 359.212L465.784 359.608C464.364 360.612 464.093 362.985 463.852 365.449C463.611 367.913 461.524 370.607 460.139 372.138C459.998 372.298 459.868 372.434 459.747 372.564C459.189 372.119 458.542 371.797 457.851 371.618C457.159 371.439 456.438 371.407 455.733 371.525L455.548 370.848C454.424 366.789 452.09 359.759 449.115 358.218C449.24 358.063 449.371 357.902 449.506 357.717C450.771 356.066 452.191 353.607 450.088 352.98C447.986 352.353 447.8 355.112 447.916 357.175C447.916 357.436 447.936 357.682 447.976 357.912C447.555 357.931 447.142 358.037 446.763 358.221C446.384 358.406 446.047 358.666 445.773 358.986L445.452 358.6C443.746 356.593 440.615 353.396 439.671 355.81C438.788 358.058 441.543 360.978 443.48 362.669L443.6 362.775C442.296 368.048 447.976 372.348 451.032 374.23L451.423 374.471C447.208 379.438 444.609 388.751 444.609 388.751L456.411 390.859C456.411 390.859 464.233 384.105 463.235 377.763H463.315C471.133 376.197 472.914 367.857 471.695 362.91L471.835 362.85C473.258 362.265 474.505 361.321 475.453 360.11C477.616 357.074 473.024 353.642 470.781 356.628Z" fill="#FAFBFB"/>
<path opacity="0.1" d="M470.781 356.628C470.3 357.287 469.916 358.012 469.642 358.78C469.567 358.966 469.502 359.182 469.432 359.388C469.304 359.329 469.171 359.282 469.035 359.247C468.45 359.099 467.845 359.048 467.244 359.097C467.244 358.861 467.244 358.62 467.279 358.359C467.349 355.715 467.038 352.032 464.519 353.592C462.096 355.097 463.822 357.606 465.382 359.212L465.784 359.608C464.364 360.612 464.093 362.985 463.852 365.449C463.611 367.913 461.524 370.607 460.139 372.138C459.998 372.298 459.868 372.434 459.747 372.564C459.189 372.119 458.542 371.797 457.851 371.618C457.159 371.439 456.438 371.407 455.733 371.525L455.548 370.848C454.424 366.789 452.09 359.759 449.115 358.218C449.24 358.063 449.371 357.902 449.506 357.717C450.771 356.066 452.191 353.607 450.088 352.98C447.986 352.353 447.8 355.112 447.916 357.175C447.916 357.436 447.936 357.682 447.976 357.912C447.555 357.931 447.142 358.037 446.763 358.221C446.384 358.406 446.047 358.666 445.773 358.986L445.452 358.6C443.746 356.593 440.615 353.396 439.671 355.81C438.788 358.058 441.543 360.978 443.48 362.669L443.6 362.775C442.296 368.048 447.976 372.348 451.032 374.23L451.423 374.471C447.208 379.438 444.609 388.751 444.609 388.751L456.411 390.859C456.411 390.859 464.233 384.105 463.235 377.763H463.315C471.133 376.197 472.914 367.857 471.695 362.91L471.835 362.85C473.258 362.265 474.505 361.321 475.453 360.11C477.616 357.074 473.024 353.642 470.781 356.628Z" fill="black"/>
<path d="M447.283 360.03L445.903 364.069C445.903 364.069 445.141 363.527 444.172 362.674C442.235 360.983 439.481 358.063 440.364 355.815C441.307 353.401 444.438 356.588 446.144 358.605C446.832 359.408 447.283 360.03 447.283 360.03Z" fill="#6AB98E"/>
<path d="M450.209 357.722C449.787 358.278 449.334 358.811 448.854 359.317C448.733 358.613 448.651 357.903 448.608 357.19C448.493 355.128 448.709 352.378 450.781 352.995C452.853 353.612 451.463 356.071 450.209 357.722Z" fill="#6AB98E"/>
<path d="M467.997 358.359C467.951 359.689 467.821 360.753 467.821 360.753C467.214 360.278 466.639 359.763 466.1 359.212C464.539 357.596 462.813 355.093 465.237 353.592C467.771 352.032 468.067 355.715 467.997 358.359Z" fill="#6AB98E"/>
<path d="M476.146 360.1C475.197 361.312 473.951 362.256 472.528 362.84C472.133 363.014 471.728 363.162 471.313 363.282L469.688 360.998C469.858 360.244 470.083 359.503 470.36 358.781C470.634 358.012 471.018 357.287 471.499 356.628C473.747 353.642 478.339 357.074 476.146 360.1Z" fill="#6AB98E"/>
<path opacity="0.1" d="M446.144 358.605C446.832 359.408 447.283 360.03 447.283 360.03L445.903 364.069C445.903 364.069 445.141 363.527 444.172 362.674C444.386 361.381 444.919 360.161 445.723 359.127C445.863 358.936 446.009 358.765 446.144 358.605Z" fill="black"/>
<path opacity="0.1" d="M450.209 357.722C449.787 358.278 449.334 358.811 448.854 359.317C448.733 358.613 448.651 357.903 448.608 357.19C449.184 357.197 449.743 357.383 450.209 357.722Z" fill="black"/>
<path d="M456.983 373.759L453.551 375.264C452.925 374.95 452.315 374.605 451.724 374.23C448.116 372.012 440.861 366.428 445.703 359.844C450.545 353.261 454.619 365.068 456.24 370.843C456.732 372.574 456.983 373.759 456.983 373.759Z" fill="#6AB98E"/>
<path opacity="0.1" d="M466.1 359.212C466.602 358.699 467.279 358.394 467.997 358.359C467.952 359.689 467.821 360.753 467.821 360.753C467.214 360.278 466.639 359.763 466.1 359.212Z" fill="black"/>
<path opacity="0.1" d="M472.527 362.83C472.133 363.004 471.727 363.151 471.313 363.271L469.688 360.988C469.858 360.234 470.083 359.493 470.36 358.77C471.409 359.393 472.181 360.918 472.527 362.83Z" fill="black"/>
<path d="M464.008 377.753C463.817 377.793 463.626 377.828 463.43 377.858C451.925 379.604 459.637 373.397 459.637 373.397C459.637 373.397 460.139 372.92 460.856 372.138C462.241 370.632 464.334 367.928 464.57 365.449C464.931 361.721 465.352 358.223 469.753 359.247C474.073 360.261 474.896 375.575 464.008 377.753Z" fill="#6AB98E"/>
<path d="M463.792 406.399H441.809V412.18H463.792V406.399Z" fill="#D4DFEC"/>
<path d="M467.038 387.613H438.317V407.784H467.038V387.613Z" fill="#D4DFEC"/>
<path opacity="0.1" d="M463.792 406.399H441.809V412.18H463.792V406.399Z" fill="black"/>
<path opacity="0.1" d="M467.038 387.613H438.317V407.784H467.038V387.613Z" fill="black"/>
<path d="M465.237 406.399H443.254V412.18H465.237V406.399Z" fill="#D4DFEC"/>
<path opacity="0.1" d="M456.23 370.858C456.732 372.584 456.973 373.768 456.973 373.768L453.541 375.274C452.915 374.96 452.305 374.615 451.714 374.24C453.069 372.529 454.584 371.245 456.23 370.858Z" fill="black"/>
<path opacity="0.1" d="M464.008 377.753C463.817 377.793 463.626 377.828 463.431 377.858C451.925 379.604 459.637 373.397 459.637 373.397C459.637 373.397 460.139 372.921 460.856 372.138C463.004 373.869 463.892 375.796 464.008 377.753Z" fill="black"/>
<path d="M445.301 388.757C445.301 388.757 451.744 365.675 460.776 372.8C469.808 379.925 457.103 390.864 457.103 390.864L445.301 388.757Z" fill="#6AB98E"/>
<path opacity="0.1" d="M448.553 364.185C448.952 364.185 449.275 363.861 449.275 363.462C449.275 363.063 448.952 362.739 448.553 362.739C448.154 362.739 447.83 363.063 447.83 363.462C447.83 363.861 448.154 364.185 448.553 364.185Z" fill="black"/>
<path opacity="0.1" d="M448.493 367.556C448.892 367.556 449.215 367.233 449.215 366.834C449.215 366.435 448.892 366.112 448.493 366.112C448.094 366.112 447.77 366.435 447.77 366.834C447.77 367.233 448.094 367.556 448.493 367.556Z" fill="black"/>
<path opacity="0.1" d="M469.447 364.847C469.846 364.847 470.169 364.523 470.169 364.124C470.169 363.725 469.846 363.402 469.447 363.402C469.048 363.402 468.724 363.725 468.724 364.124C468.724 364.523 469.048 364.847 469.447 364.847Z" fill="black"/>
<path opacity="0.1" d="M452.587 382.133C452.986 382.133 453.31 381.81 453.31 381.411C453.31 381.012 452.986 380.688 452.587 380.688C452.188 380.688 451.865 381.012 451.865 381.411C451.865 381.81 452.188 382.133 452.587 382.133Z" fill="black"/>
<path opacity="0.1" d="M467.941 370.447C468.341 370.447 468.664 370.123 468.664 369.724C468.664 369.325 468.341 369.002 467.941 369.002C467.542 369.002 467.219 369.325 467.219 369.724C467.219 370.123 467.542 370.447 467.941 370.447Z" fill="black"/>
<path opacity="0.1" d="M460.475 377.918C460.874 377.918 461.198 377.595 461.198 377.196C461.198 376.796 460.874 376.473 460.475 376.473C460.076 376.473 459.752 376.796 459.752 377.196C459.752 377.595 460.076 377.918 460.475 377.918Z" fill="black"/>
<path opacity="0.1" d="M451.022 365.63C451.421 365.63 451.744 365.306 451.744 364.907C451.744 364.508 451.421 364.185 451.022 364.185C450.623 364.185 450.299 364.508 450.299 364.907C450.299 365.306 450.623 365.63 451.022 365.63Z" fill="black"/>
<path opacity="0.1" d="M467.46 367.014C467.859 367.014 468.182 366.691 468.182 366.292C468.182 365.893 467.859 365.569 467.46 365.569C467.061 365.569 466.737 365.893 466.737 366.292C466.737 366.691 467.061 367.014 467.46 367.014Z" fill="black"/>
<path opacity="0.1" d="M464.991 372.614C465.39 372.614 465.714 372.291 465.714 371.892C465.714 371.493 465.39 371.169 464.991 371.169C464.592 371.169 464.269 371.493 464.269 371.892C464.269 372.291 464.592 372.614 464.991 372.614Z" fill="black"/>
<path opacity="0.1" d="M457.404 381.591C457.803 381.591 458.127 381.267 458.127 380.869C458.127 380.47 457.803 380.146 457.404 380.146C457.005 380.146 456.682 380.47 456.682 380.869C456.682 381.267 457.005 381.591 457.404 381.591Z" fill="black"/>
<path opacity="0.1" d="M455.839 378.038C456.238 378.038 456.561 377.715 456.561 377.316C456.561 376.917 456.238 376.594 455.839 376.594C455.44 376.594 455.116 376.917 455.116 377.316C455.116 377.715 455.44 378.038 455.839 378.038Z" fill="black"/>
<path opacity="0.1" d="M452.105 370.025C452.505 370.025 452.828 369.702 452.828 369.303C452.828 368.904 452.505 368.58 452.105 368.58C451.706 368.58 451.383 368.904 451.383 369.303C451.383 369.702 451.706 370.025 452.105 370.025Z" fill="black"/>
<path opacity="0.1" d="M465.237 406.399H443.254V408.511H465.237V406.399Z" fill="black"/>
<path d="M468.484 387.613H439.762V407.784H468.484V387.613Z" fill="#D4DFEC"/>
<path opacity="0.1" d="M458.368 384.843C458.767 384.843 459.09 384.519 459.09 384.12C459.09 383.721 458.767 383.398 458.368 383.398C457.969 383.398 457.645 383.721 457.645 384.12C457.645 384.519 457.969 384.843 458.368 384.843Z" fill="black"/>
<path opacity="0.1" d="M454.032 385.746C454.431 385.746 454.755 385.422 454.755 385.023C454.755 384.624 454.431 384.301 454.032 384.301C453.633 384.301 453.31 384.624 453.31 385.023C453.31 385.422 453.633 385.746 454.032 385.746Z" fill="black"/>
</g>
<defs>
<linearGradient id="paint0_linear" x1="125.429" y1="325.051" x2="125.429" y2="54.4478" gradientUnits="userSpaceOnUse">
<stop stop-color="#808080" stop-opacity="0.25"/>
<stop offset="0.54" stop-color="#808080" stop-opacity="0.12"/>
<stop offset="1" stop-color="#808080" stop-opacity="0.1"/>
</linearGradient>
<clipPath id="clip0">
<rect width="500" height="415.561" fill="white"/>
</clipPath>
</defs>
</svg>
