<svg width="475" height="339" viewBox="0 0 475 339" fill="none" xmlns="http://www.w3.org/2000/svg">
<g clip-path="url(#clip0)">
<path opacity="0.1" d="M426.54 287.462C422.999 289.287 419.288 290.864 415.628 292.436C402.104 298.146 388.376 303.905 373.847 305.865C346.561 309.496 318.404 299.548 291.595 305.756C269.139 310.938 250.566 326.82 228.627 333.893C218.425 337.18 207.811 338.469 197.103 338.469H195.72C194.394 338.452 193.077 338.419 191.771 338.369C180.913 337.961 170.01 336.355 159.366 334.3C125.758 327.834 91.5532 315.982 65.8584 294.162C140.675 280.494 294.789 259.514 426.54 287.462Z" fill="#252223"/>
<path opacity="0.3" d="M452.618 123.848V92.0157H433.717V123.848H411.335V74.6073H394.921V37.801H381.492V0H353.639V37.801H340.209V74.6073H324.293V30.3403H315.34V7.95812H309.869V30.3403H278.037V171.597H253.665V156.675H238.743V171.597H214.372V123.848H170.602V92.0157H151.702V123.848H150.707V185.026H130.812V149.215H106.937V185.026H87.0419V74.6073H71.623V37.801H14.9215V74.6073H0V269.084H87.0419H150.707H214.372H278.037H324.293H411.335H475V123.848H452.618Z" fill="#3F5AF2"/>
<path opacity="0.4" d="M30.3403 86.0471H9.45026V97.9843H30.3403V86.0471Z" fill="white"/>
<path opacity="0.4" d="M56.2042 97.9843H77.0942V86.0471H56.2042V97.9843Z" fill="white"/>
<path opacity="0.4" d="M30.3403 109.424H9.45026V121.361H30.3403V109.424Z" fill="white"/>
<path opacity="0.4" d="M56.2042 121.361H77.0942V109.424H56.2042V121.361Z" fill="white"/>
<path opacity="0.4" d="M30.3403 132.801H9.45026V144.738H30.3403V132.801Z" fill="white"/>
<path opacity="0.4" d="M56.2042 144.738H77.0942V132.801H56.2042V144.738Z" fill="white"/>
<path opacity="0.4" d="M30.3403 156.178H9.45026V168.115H30.3403V156.178Z" fill="white"/>
<path opacity="0.4" d="M56.2042 168.115H77.0942V156.178H56.2042V168.115Z" fill="white"/>
<path opacity="0.4" d="M30.3403 179.555H9.45026V191.492H30.3403V179.555Z" fill="white"/>
<path opacity="0.4" d="M56.2042 191.492H77.0942V179.555H56.2042V191.492Z" fill="white"/>
<path opacity="0.4" d="M30.3403 202.932H9.45026V214.869H30.3403V202.932Z" fill="white"/>
<path opacity="0.4" d="M56.2042 214.869H77.0942V202.932H56.2042V214.869Z" fill="white"/>
<path opacity="0.4" d="M30.3403 226.309H9.45026V238.246H30.3403V226.309Z" fill="white"/>
<path opacity="0.4" d="M56.2042 238.246H77.0942V226.309H56.2042V238.246Z" fill="white"/>
<path opacity="0.4" d="M143.246 196.963H94.5026V202.932H143.246V196.963Z" fill="white"/>
<path opacity="0.4" d="M143.246 205.916H94.5026V211.885H143.246V205.916Z" fill="white"/>
<path opacity="0.4" d="M143.246 214.869H94.5026V220.838H143.246V214.869Z" fill="white"/>
<path opacity="0.4" d="M270.576 199.948H221.832V205.916H270.576V199.948Z" fill="white"/>
<path opacity="0.4" d="M270.576 208.901H221.832V214.869H270.576V208.901Z" fill="white"/>
<path opacity="0.4" d="M270.576 217.853H221.832V223.822H270.576V217.853Z" fill="white"/>
<path opacity="0.4" d="M143.246 223.822H94.5026V229.791H143.246V223.822Z" fill="white"/>
<path opacity="0.4" d="M143.246 232.775H94.5026V238.743H143.246V232.775Z" fill="white"/>
<path opacity="0.4" d="M143.246 241.728H94.5026V247.696H143.246V241.728Z" fill="white"/>
<path opacity="0.4" d="M174.581 135.288H161.152V152.696H174.581V135.288Z" fill="white"/>
<path opacity="0.4" d="M190.497 152.696H203.927V135.288H190.497V152.696Z" fill="white"/>
<path opacity="0.4" d="M174.581 163.141H161.152V180.55H174.581V163.141Z" fill="white"/>
<path opacity="0.4" d="M190.497 180.55H203.927V163.141H190.497V180.55Z" fill="white"/>
<path opacity="0.4" d="M174.581 190.995H161.152V208.403H174.581V190.995Z" fill="white"/>
<path opacity="0.4" d="M190.497 208.403H203.927V190.995H190.497V208.403Z" fill="white"/>
<path opacity="0.4" d="M174.581 218.848H161.152V236.257H174.581V218.848Z" fill="white"/>
<path opacity="0.4" d="M190.497 236.257H203.927V218.848H190.497V236.257Z" fill="white"/>
<path opacity="0.4" d="M295.942 41.7801H278.037V64.6597H295.942V41.7801Z" fill="white"/>
<path opacity="0.4" d="M295.942 74.6074H278.037V97.4869H295.942V74.6074Z" fill="white"/>
<path opacity="0.4" d="M295.942 107.435H278.037V130.314H295.942V107.435Z" fill="white"/>
<path opacity="0.4" d="M295.942 140.262H278.037V163.141H295.942V140.262Z" fill="white"/>
<path opacity="0.4" d="M295.942 173.089H278.037V195.969H295.942V173.089Z" fill="white"/>
<path opacity="0.4" d="M295.942 205.916H278.037V228.796H295.942V205.916Z" fill="white"/>
<path opacity="0.4" d="M401.139 88.5341H334.49V107.932H401.139V88.5341Z" fill="white"/>
<path opacity="0.4" d="M401.387 130.314H334.738V149.712H401.387V130.314Z" fill="white"/>
<path opacity="0.4" d="M401.636 172.094H334.987V191.492H401.636V172.094Z" fill="white"/>
<path opacity="0.4" d="M401.885 213.874H335.236V233.272H401.885V213.874Z" fill="white"/>
<path opacity="0.4" d="M23.8743 48.2461H14.9214V67.1466H23.8743V48.2461Z" fill="white"/>
<path opacity="0.4" d="M475 135.288H452.618V164.136H475V135.288Z" fill="white"/>
<path opacity="0.4" d="M475 177.068H452.618V205.916H475V177.068Z" fill="white"/>
<path opacity="0.4" d="M475 218.848H452.618V247.696H475V218.848Z" fill="white"/>
<path d="M24.705 238.52C24.705 238.52 -14.4539 262.145 57.7312 298.519C57.7312 298.519 73.6474 268.994 56.05 244.921C52.6371 240.229 47.6217 236.951 41.9538 235.709C36.286 234.467 30.3595 235.346 25.2969 238.181L24.705 238.52Z" fill="#3F5AF2"/>
<path d="M25.1576 238.022C25.1576 238.022 58.6662 263.662 57.7312 298.519" stroke="#535461" stroke-width="0.474346" stroke-miterlimit="10"/>
<path d="M59.5516 299.862C59.5516 299.862 47.2812 258.201 61.8545 227.537C67.9723 214.67 70.0016 200.221 67.1764 186.255C65.8255 179.624 63.8693 173.13 61.3322 166.857" stroke="#535461" stroke-width="0.948691" stroke-miterlimit="10"/>
<path d="M70.3796 147.504C70.3796 152.612 61.1332 167.399 61.1332 167.399C61.1332 167.399 51.8869 152.592 51.8869 147.504C51.8583 146.272 52.0763 145.046 52.528 143.9C52.9797 142.753 53.656 141.709 54.5172 140.827C55.3784 139.946 56.4071 139.246 57.5428 138.767C58.6786 138.289 59.8984 138.043 61.1307 138.043C62.363 138.043 63.5829 138.289 64.7186 138.767C65.8544 139.246 66.8831 139.946 67.7443 140.827C68.6055 141.709 69.2818 142.753 69.7335 143.9C70.1852 145.046 70.4032 146.272 70.3746 147.504H70.3796Z" fill="#3F5AF2"/>
<path d="M85.6791 175.785C82.9037 180.072 67.0969 187.473 67.0969 187.473C67.0969 187.473 67.3853 170.02 70.1607 165.733C71.5221 163.742 73.6076 162.361 75.9724 161.886C78.3372 161.411 80.7941 161.879 82.8188 163.19C84.8436 164.501 86.2759 166.551 86.8103 168.903C87.3446 171.255 86.9387 173.723 85.6791 175.78V175.785Z" fill="#3F5AF2"/>
<path d="M85.0076 224.115C80.4466 226.413 63.0681 224.827 63.0681 224.827C63.0681 224.827 72.1254 209.905 76.6864 207.607C78.8687 206.561 81.3745 206.411 83.6657 207.192C85.9568 207.972 87.8507 209.619 88.9407 211.78C90.0306 213.941 90.2298 216.444 89.4954 218.75C88.7609 221.056 87.1515 222.983 85.0126 224.115H85.0076Z" fill="#3F5AF2"/>
<path d="M76.2686 260.569C72.1652 263.603 54.7618 264.975 54.7618 264.975C54.7618 264.975 61.1681 248.741 65.2715 245.702C66.2468 244.968 67.3578 244.435 68.5402 244.133C69.7227 243.831 70.9533 243.766 72.161 243.941C73.3688 244.117 74.5298 244.53 75.5771 245.157C76.6244 245.784 77.5372 246.611 78.263 247.593C78.9888 248.574 79.5132 249.689 79.8059 250.874C80.0986 252.059 80.1538 253.29 79.9684 254.496C79.783 255.702 79.3606 256.86 78.7256 257.902C78.0906 258.944 77.2555 259.851 76.2686 260.569Z" fill="#3F5AF2"/>
<path d="M47.684 188.463C51.3447 192.019 68.4099 195.705 68.4099 195.705C68.4099 195.705 64.2319 178.759 60.5712 175.198C59.7077 174.318 58.677 173.62 57.5396 173.144C56.4023 172.668 55.1813 172.425 53.9485 172.428C52.7157 172.431 51.4959 172.681 50.361 173.162C49.2261 173.644 48.1989 174.347 47.3399 175.231C46.4808 176.116 45.8073 177.163 45.3589 178.311C44.9105 179.459 44.6962 180.686 44.7287 181.918C44.7613 183.151 45.0399 184.364 45.5483 185.487C46.0567 186.61 46.7845 187.62 47.689 188.458L47.684 188.463Z" fill="#3F5AF2"/>
<path d="M38.005 231.223C42.566 233.521 59.9445 231.934 59.9445 231.934C59.9445 231.934 50.8872 217.013 46.3262 214.715C44.1438 213.668 41.6381 213.519 39.3469 214.299C37.0557 215.08 35.1619 216.727 34.0719 218.888C32.9819 221.049 32.7828 223.551 33.5172 225.858C34.2516 228.164 35.8611 230.09 38 231.223H38.005Z" fill="#3F5AF2"/>
<path d="M34.2995 274.077C38.4029 277.112 55.8063 278.484 55.8063 278.484C55.8063 278.484 49.4 262.245 45.2916 259.211C43.3189 257.776 40.8589 257.178 38.4478 257.549C36.0366 257.92 33.8696 259.228 32.4188 261.189C30.9681 263.151 30.3512 265.606 30.7025 268.02C31.0538 270.434 32.3449 272.611 34.2945 274.077H34.2995Z" fill="#3F5AF2"/>
<path opacity="0.25" d="M70.3796 147.504C70.3796 152.612 61.1332 167.399 61.1332 167.399C61.1332 167.399 51.8869 152.592 51.8869 147.504C51.8583 146.272 52.0763 145.046 52.528 143.9C52.9797 142.753 53.656 141.709 54.5172 140.827C55.3784 139.946 56.4071 139.246 57.5428 138.767C58.6786 138.289 59.8984 138.043 61.1307 138.043C62.363 138.043 63.5829 138.289 64.7186 138.767C65.8544 139.246 66.8831 139.946 67.7443 140.827C68.6055 141.709 69.2818 142.753 69.7335 143.9C70.1852 145.046 70.4032 146.272 70.3746 147.504H70.3796Z" fill="black"/>
<path opacity="0.25" d="M85.6791 175.785C82.9037 180.072 67.0969 187.473 67.0969 187.473C67.0969 187.473 67.3853 170.02 70.1607 165.733C71.5221 163.742 73.6076 162.361 75.9724 161.886C78.3372 161.411 80.7941 161.879 82.8188 163.19C84.8436 164.501 86.2759 166.551 86.8103 168.903C87.3446 171.255 86.9387 173.723 85.6791 175.78V175.785Z" fill="black"/>
<path opacity="0.25" d="M85.0076 224.115C80.4466 226.413 63.0681 224.827 63.0681 224.827C63.0681 224.827 72.1254 209.905 76.6864 207.607C78.8687 206.561 81.3745 206.411 83.6657 207.192C85.9568 207.972 87.8507 209.619 88.9407 211.78C90.0306 213.941 90.2298 216.444 89.4954 218.75C88.7609 221.056 87.1515 222.983 85.0126 224.115H85.0076Z" fill="black"/>
<path opacity="0.25" d="M76.2686 260.569C72.1652 263.603 54.7618 264.975 54.7618 264.975C54.7618 264.975 61.1681 248.741 65.2715 245.702C66.2468 244.968 67.3578 244.435 68.5402 244.133C69.7227 243.831 70.9533 243.766 72.161 243.941C73.3688 244.117 74.5298 244.53 75.5771 245.157C76.6244 245.784 77.5372 246.611 78.263 247.593C78.9888 248.574 79.5132 249.689 79.8059 250.874C80.0986 252.059 80.1538 253.29 79.9684 254.496C79.783 255.702 79.3606 256.86 78.7256 257.902C78.0906 258.944 77.2555 259.851 76.2686 260.569Z" fill="black"/>
<path opacity="0.25" d="M47.684 188.463C51.3447 192.019 68.4099 195.705 68.4099 195.705C68.4099 195.705 64.2319 178.759 60.5712 175.198C59.7077 174.318 58.677 173.62 57.5396 173.144C56.4023 172.668 55.1813 172.425 53.9485 172.428C52.7157 172.431 51.4959 172.681 50.361 173.162C49.2261 173.644 48.1989 174.347 47.3399 175.231C46.4808 176.116 45.8073 177.163 45.3589 178.311C44.9105 179.459 44.6962 180.686 44.7287 181.918C44.7613 183.151 45.0399 184.364 45.5483 185.487C46.0567 186.61 46.7845 187.62 47.689 188.458L47.684 188.463Z" fill="black"/>
<path opacity="0.25" d="M38.005 231.223C42.566 233.521 59.9445 231.934 59.9445 231.934C59.9445 231.934 50.8872 217.013 46.3262 214.715C44.1438 213.668 41.6381 213.519 39.3469 214.299C37.0557 215.08 35.1619 216.727 34.0719 218.888C32.9819 221.049 32.7828 223.551 33.5172 225.858C34.2516 228.164 35.8611 230.09 38 231.223H38.005Z" fill="black"/>
<path opacity="0.25" d="M34.2995 274.077C38.4029 277.112 55.8063 278.484 55.8063 278.484C55.8063 278.484 49.4 262.245 45.2916 259.211C43.3189 257.776 40.8589 257.178 38.4478 257.549C36.0366 257.92 33.8696 259.228 32.4188 261.189C30.9681 263.151 30.3512 265.606 30.7025 268.02C31.0538 270.434 32.3449 272.611 34.2945 274.077H34.2995Z" fill="black"/>
<path d="M442.561 289.103C442.561 289.103 430.29 247.443 444.864 216.779C450.981 203.912 453.011 189.463 450.186 175.496C448.835 168.865 446.878 162.372 444.341 156.098" stroke="#535461" stroke-width="0.948691" stroke-miterlimit="10"/>
<path d="M453.409 136.745C453.409 141.853 444.162 156.641 444.162 156.641C444.162 156.641 434.916 141.834 434.916 136.745C434.887 135.513 435.105 134.288 435.557 133.142C436.009 131.995 436.685 130.95 437.546 130.069C438.408 129.188 439.436 128.487 440.572 128.009C441.708 127.531 442.928 127.285 444.16 127.285C445.392 127.285 446.612 127.531 447.748 128.009C448.883 128.487 449.912 129.188 450.773 130.069C451.635 130.95 452.311 131.995 452.763 133.142C453.214 134.288 453.432 135.513 453.404 136.745H453.409Z" fill="#3F5AF2"/>
<path d="M468.688 165.026C465.913 169.314 450.106 176.715 450.106 176.715C450.106 176.715 450.394 159.262 453.17 154.974C453.814 153.922 454.663 153.01 455.665 152.29C456.667 151.571 457.804 151.06 459.007 150.786C460.21 150.513 461.456 150.483 462.67 150.699C463.885 150.914 465.045 151.371 466.08 152.041C467.116 152.712 468.007 153.583 468.701 154.603C469.395 155.623 469.877 156.772 470.12 157.982C470.363 159.191 470.362 160.437 470.116 161.646C469.87 162.855 469.385 164.003 468.688 165.022V165.026Z" fill="#3F5AF2"/>
<path d="M468.022 213.357C463.461 215.655 446.082 214.068 446.082 214.068C446.082 214.068 455.139 199.147 459.7 196.849C461.883 195.802 464.389 195.653 466.68 196.433C468.971 197.213 470.865 198.861 471.955 201.022C473.045 203.183 473.244 205.685 472.509 207.992C471.775 210.298 470.166 212.224 468.027 213.357H468.022Z" fill="#3F5AF2"/>
<path d="M459.283 249.81C455.179 252.844 437.776 254.217 437.776 254.217C437.776 254.217 444.182 237.982 448.286 234.943C450.258 233.508 452.718 232.911 455.129 233.282C457.541 233.652 459.708 234.961 461.158 236.922C462.609 238.883 463.226 241.338 462.875 243.752C462.523 246.166 461.232 248.344 459.283 249.81Z" fill="#3F5AF2"/>
<path d="M430.693 177.69C434.354 181.246 451.419 184.932 451.419 184.932C451.419 184.932 447.241 167.986 443.58 164.425C441.821 162.716 439.455 161.776 437.003 161.811C434.551 161.846 432.213 162.855 430.504 164.614C428.795 166.373 427.855 168.739 427.89 171.191C427.926 173.643 428.934 175.981 430.693 177.69Z" fill="#3F5AF2"/>
<path d="M421.034 220.465C425.595 222.763 442.974 221.176 442.974 221.176C442.974 221.176 433.916 206.254 429.355 203.957C427.175 202.926 424.678 202.788 422.397 203.572C420.116 204.356 418.232 206 417.147 208.154C416.061 210.308 415.86 212.8 416.586 215.1C417.312 217.4 418.908 219.325 421.034 220.465Z" fill="#3F5AF2"/>
<path d="M417.309 263.319C421.412 266.353 438.815 267.726 438.815 267.726C438.815 267.726 432.409 251.491 428.306 248.452C426.333 247.017 423.873 246.42 421.462 246.791C419.051 247.161 416.884 248.47 415.433 250.431C413.982 252.392 413.365 254.847 413.717 257.261C414.068 259.675 415.359 261.853 417.309 263.319Z" fill="#3F5AF2"/>
<path d="M387.212 285.05C387.212 285.05 380.617 262.668 388.451 246.184C391.779 239.294 392.783 231.51 391.31 224.001C390.584 220.442 389.534 216.958 388.172 213.591" stroke="#535461" stroke-width="0.948691" stroke-miterlimit="10"/>
<path d="M393.041 203.171C393.041 205.916 388.068 213.869 388.068 213.869C388.068 213.869 383.094 205.911 383.094 203.171C383.094 201.852 383.618 200.586 384.55 199.654C385.483 198.721 386.748 198.197 388.068 198.197C389.387 198.197 390.652 198.721 391.585 199.654C392.517 200.586 393.041 201.852 393.041 203.171Z" fill="#3F5AF2"/>
<path d="M401.253 218.371C399.761 220.674 391.266 224.653 391.266 224.653C391.266 224.653 391.42 215.272 392.912 212.969C393.251 212.389 393.705 211.883 394.245 211.483C394.785 211.083 395.401 210.797 396.055 210.641C396.709 210.486 397.388 210.464 398.05 210.578C398.712 210.693 399.345 210.94 399.909 211.305C400.473 211.671 400.958 212.147 401.333 212.704C401.708 213.262 401.966 213.89 402.092 214.551C402.217 215.211 402.208 215.89 402.064 216.547C401.92 217.203 401.644 217.824 401.253 218.371Z" fill="#3F5AF2"/>
<path d="M400.895 244.339C398.443 245.572 389.102 244.722 389.102 244.722C389.102 244.722 393.971 236.704 396.419 235.471C397.587 234.943 398.914 234.886 400.123 235.314C401.332 235.741 402.33 236.618 402.907 237.763C403.485 238.908 403.598 240.231 403.223 241.458C402.848 242.684 402.014 243.718 400.895 244.344V244.339Z" fill="#3F5AF2"/>
<path d="M396.195 263.931C393.986 265.562 384.636 266.299 384.636 266.299C384.636 266.299 388.078 257.574 390.286 255.943C391.348 255.234 392.643 254.961 393.901 255.181C395.16 255.4 396.285 256.096 397.045 257.123C397.805 258.15 398.14 259.429 397.982 260.697C397.824 261.964 397.184 263.122 396.195 263.931Z" fill="#3F5AF2"/>
<path d="M380.836 225.185C382.825 227.095 391.972 229.079 391.972 229.079C391.972 229.079 389.729 219.972 387.759 218.062C387.299 217.571 386.744 217.179 386.128 216.908C385.512 216.638 384.847 216.496 384.174 216.489C383.502 216.483 382.835 216.614 382.214 216.873C381.593 217.132 381.031 217.515 380.562 217.997C380.093 218.48 379.727 219.053 379.486 219.681C379.245 220.309 379.134 220.98 379.159 221.652C379.185 222.325 379.347 222.985 379.635 223.593C379.923 224.201 380.331 224.744 380.836 225.19V225.185Z" fill="#3F5AF2"/>
<path d="M375.633 248.164C378.085 249.397 387.426 248.547 387.426 248.547C387.426 248.547 382.557 240.529 380.109 239.296C378.941 238.768 377.614 238.711 376.405 239.138C375.196 239.566 374.198 240.443 373.621 241.588C373.043 242.733 372.93 244.056 373.305 245.283C373.68 246.509 374.514 247.543 375.633 248.169V248.164Z" fill="#3F5AF2"/>
<path d="M373.643 271.198C375.852 272.829 385.203 273.565 385.203 273.565C385.203 273.565 381.741 264.836 379.552 263.205C378.49 262.482 377.188 262.199 375.921 262.414C374.654 262.63 373.52 263.327 372.756 264.361C371.992 265.394 371.658 266.684 371.823 267.958C371.988 269.233 372.641 270.394 373.643 271.198Z" fill="#3F5AF2"/>
<path opacity="0.1" d="M131.647 23.7152H128.225C128.549 23.7299 128.872 23.6789 129.176 23.5652C129.479 23.4515 129.756 23.2775 129.99 23.0537C130.225 22.8298 130.411 22.5608 130.539 22.2629C130.666 21.965 130.732 21.6443 130.732 21.3203C130.732 20.9963 130.666 20.6756 130.539 20.3777C130.411 20.0798 130.225 19.8108 129.99 19.5869C129.756 19.3631 129.479 19.1891 129.176 19.0754C128.872 18.9617 128.549 18.9106 128.225 18.9254H100.506C99.8897 18.9535 99.308 19.2181 98.8818 19.6641C98.4556 20.1102 98.2178 20.7034 98.2178 21.3203C98.2178 21.9372 98.4556 22.5304 98.8818 22.9764C99.308 23.4225 99.8897 23.6871 100.506 23.7152H103.928C103.604 23.7004 103.281 23.7514 102.978 23.8651C102.674 23.9788 102.397 24.1529 102.163 24.3767C101.928 24.6006 101.742 24.8696 101.615 25.1675C101.487 25.4654 101.421 25.7861 101.421 26.1101C101.421 26.4341 101.487 26.7548 101.615 27.0527C101.742 27.3506 101.928 27.6196 102.163 27.8435C102.397 28.0673 102.674 28.2413 102.978 28.355C103.281 28.4687 103.604 28.5197 103.928 28.505H99.1382C98.8145 28.4902 98.4912 28.5412 98.1878 28.6549C97.8844 28.7686 97.6071 28.9427 97.3729 29.1665C97.1386 29.3903 96.9521 29.6593 96.8247 29.9573C96.6973 30.2552 96.6317 30.5759 96.6317 30.8999C96.6317 31.2239 96.6973 31.5445 96.8247 31.8425C96.9521 32.1404 97.1386 32.4094 97.3729 32.6332C97.6071 32.8571 97.8844 33.0311 98.1878 33.1448C98.4912 33.2585 98.8145 33.3095 99.1382 33.2948H126.857C127.181 33.3095 127.504 33.2585 127.808 33.1448C128.111 33.0311 128.388 32.8571 128.623 32.6332C128.857 32.4094 129.043 32.1404 129.171 31.8425C129.298 31.5445 129.364 31.2239 129.364 30.8999C129.364 30.5759 129.298 30.2552 129.171 29.9573C129.043 29.6593 128.857 29.3903 128.623 29.1665C128.388 28.9427 128.111 28.7686 127.808 28.6549C127.504 28.5412 127.181 28.4902 126.857 28.505H131.647C131.971 28.5197 132.294 28.4687 132.598 28.355C132.901 28.2413 133.178 28.0673 133.412 27.8435C133.647 27.6196 133.833 27.3506 133.961 27.0527C134.088 26.7548 134.154 26.4341 134.154 26.1101C134.154 25.7861 134.088 25.4654 133.961 25.1675C133.833 24.8696 133.647 24.6006 133.412 24.3767C133.178 24.1529 132.901 23.9788 132.598 23.8651C132.294 23.7514 131.971 23.7004 131.647 23.7152Z" fill="#252223"/>
<path opacity="0.1" d="M254.003 83.8984H250.581C250.905 83.9132 251.228 83.8622 251.532 83.7485C251.835 83.6348 252.112 83.4607 252.346 83.2369C252.581 83.0131 252.767 82.7441 252.895 82.4461C253.022 82.1482 253.088 81.8275 253.088 81.5035C253.088 81.1795 253.022 80.8589 252.895 80.5609C252.767 80.263 252.581 79.994 252.346 79.7702C252.112 79.5463 251.835 79.3723 251.532 79.2586C251.228 79.1449 250.905 79.0939 250.581 79.1086H222.862C222.246 79.1367 221.664 79.4013 221.238 79.8474C220.812 80.2934 220.574 80.8866 220.574 81.5035C220.574 82.1204 220.812 82.7136 221.238 83.1597C221.664 83.6057 222.246 83.8703 222.862 83.8984H226.284C225.96 83.8837 225.637 83.9347 225.334 84.0484C225.03 84.1621 224.753 84.3361 224.519 84.5599C224.284 84.7838 224.098 85.0528 223.971 85.3507C223.843 85.6486 223.777 85.9693 223.777 86.2933C223.777 86.6173 223.843 86.938 223.971 87.2359C224.098 87.5339 224.284 87.8028 224.519 88.0267C224.753 88.2505 225.03 88.4246 225.334 88.5383C225.637 88.652 225.96 88.703 226.284 88.6882H221.494C221.171 88.6735 220.847 88.7245 220.544 88.8382C220.24 88.9519 219.963 89.1259 219.729 89.3497C219.495 89.5736 219.308 89.8426 219.181 90.1405C219.053 90.4384 218.988 90.7591 218.988 91.0831C218.988 91.4071 219.053 91.7278 219.181 92.0257C219.308 92.3236 219.495 92.5926 219.729 92.8165C219.963 93.0403 220.24 93.2144 220.544 93.3281C220.847 93.4418 221.171 93.4928 221.494 93.478H249.213C249.537 93.4928 249.86 93.4418 250.164 93.3281C250.467 93.2144 250.744 93.0403 250.979 92.8165C251.213 92.5926 251.399 92.3236 251.527 92.0257C251.654 91.7278 251.72 91.4071 251.72 91.0831C251.72 90.7591 251.654 90.4384 251.527 90.1405C251.399 89.8426 251.213 89.5736 250.979 89.3497C250.744 89.1259 250.467 88.9519 250.164 88.8382C249.86 88.7245 249.537 88.6735 249.213 88.6882H254.003C254.327 88.703 254.65 88.652 254.954 88.5383C255.257 88.4246 255.534 88.2505 255.768 88.0267C256.003 87.8028 256.189 87.5339 256.317 87.2359C256.444 86.938 256.51 86.6173 256.51 86.2933C256.51 85.9693 256.444 85.6486 256.317 85.3507C256.189 85.0528 256.003 84.7838 255.768 84.5599C255.534 84.3361 255.257 84.1621 254.954 84.0484C254.65 83.9347 254.327 83.8837 254.003 83.8984Z" fill="#252223"/>
<path opacity="0.1" d="M462.406 5.31205H458.984C459.308 5.32681 459.631 5.27579 459.935 5.1621C460.238 5.0484 460.515 4.87437 460.75 4.65053C460.984 4.42669 461.17 4.15768 461.298 3.85976C461.425 3.56183 461.491 3.24118 461.491 2.91716C461.491 2.59314 461.425 2.27248 461.298 1.97455C461.17 1.67663 460.984 1.40762 460.75 1.18378C460.515 0.959942 460.238 0.785918 459.935 0.672219C459.631 0.558519 459.308 0.507508 458.984 0.522262H431.265C430.649 0.550355 430.067 0.814943 429.641 1.261C429.215 1.70705 428.977 2.30023 428.977 2.91716C428.977 3.53408 429.215 4.12726 429.641 4.57331C430.067 5.01937 430.649 5.28396 431.265 5.31205H434.687C434.364 5.2973 434.04 5.34831 433.737 5.46201C433.433 5.57571 433.156 5.74973 432.922 5.97357C432.688 6.19741 432.501 6.46642 432.374 6.76435C432.246 7.06227 432.181 7.38293 432.181 7.70695C432.181 8.03097 432.246 8.35163 432.374 8.64955C432.501 8.94747 432.688 9.21648 432.922 9.44032C433.156 9.66416 433.433 9.83818 433.737 9.95188C434.04 10.0656 434.364 10.1166 434.687 10.1018H429.897C429.574 10.0871 429.25 10.1381 428.947 10.2518C428.644 10.3655 428.366 10.5395 428.132 10.7634C427.898 10.9872 427.711 11.2562 427.584 11.5541C427.457 11.8521 427.391 12.1727 427.391 12.4967C427.391 12.8208 427.457 13.1414 427.584 13.4393C427.711 13.7373 427.898 14.0063 428.132 14.2301C428.366 14.4539 428.644 14.628 428.947 14.7417C429.25 14.8554 429.574 14.9064 429.897 14.8916H457.617C458.233 14.8635 458.815 14.5989 459.241 14.1529C459.667 13.7068 459.905 13.1137 459.905 12.4967C459.905 11.8798 459.667 11.2866 459.241 10.8406C458.815 10.3945 458.233 10.1299 457.617 10.1018H462.406C462.73 10.1166 463.053 10.0656 463.357 9.95188C463.66 9.83818 463.937 9.66416 464.172 9.44032C464.406 9.21648 464.592 8.94747 464.72 8.64955C464.847 8.35163 464.913 8.03097 464.913 7.70695C464.913 7.38293 464.847 7.06227 464.72 6.76435C464.592 6.46642 464.406 6.19741 464.172 5.97357C463.937 5.74973 463.66 5.57571 463.357 5.46201C463.053 5.34831 462.73 5.2973 462.406 5.31205Z" fill="#252223"/>
<path d="M272.665 281.857H272.774C272.774 281.857 255.321 233.894 250.432 227.393C250.432 227.393 245.314 224.369 245.548 219.251L239.266 188.771C239.266 188.771 239.36 188.677 239.519 188.503L239.654 188.354L239.808 188.175C240.645 187.18 241.346 186.077 241.892 184.897L241.991 184.668C242.225 184.134 242.421 183.583 242.578 183.022C242.795 183.099 243.025 183.133 243.254 183.121C243.484 183.109 243.709 183.052 243.916 182.952C243.916 182.952 243.916 182.788 243.916 182.495C243.916 182.495 243.857 180.689 243.852 177.864C243.852 177.078 243.852 176.223 243.852 175.312C244.046 174.611 244.21 173.875 244.349 173.089L244.095 172.97V172.855L243.881 172.756C244.056 166.066 244.623 157.516 246.259 151.692C246.315 151.486 246.375 151.282 246.438 151.08C248.373 144.718 248.427 136.954 248.925 130.389C249.311 131.214 249.643 132.063 249.92 132.93C250.165 132.655 250.448 132.415 250.76 132.219L252.71 147.822V166.225C252.71 166.225 249.452 189.96 259.673 185.539C269.895 181.117 262.464 164.828 262.464 164.828C262.464 164.828 262.464 155.755 263.861 151.1C264.781 148.036 264.19 138.128 263.672 131.702C264.667 131.876 265.254 132.015 265.254 132.015C265.48 131.083 265.582 130.124 265.557 129.165C265.771 118.437 252.541 101.153 247.154 94.5573C245.619 92.2029 243.471 90.3114 240.942 89.0861L230.591 84.0725C230.591 84.0725 225.702 82.8788 223.797 79.0987C223.797 79.0341 223.762 78.9694 223.747 78.9047C223.963 78.8086 224.175 78.7041 224.384 78.5914C225.965 77.8309 227.35 76.7181 228.433 75.3385C230.636 72.5382 231.691 69.0317 232.695 65.6147C233.879 61.5958 235.073 57.4924 234.914 53.3045C234.754 49.1165 232.994 44.7644 229.442 42.5411C226.408 40.6411 222.176 40.283 220.291 37.239C219.793 36.4183 219.475 35.4435 218.798 34.7819C218.806 34.6454 218.764 34.5108 218.679 34.4029C218.595 34.2951 218.475 34.2212 218.341 34.195L213.128 33.1704C213.055 33.156 212.98 33.1561 212.907 33.1708C212.834 33.1854 212.764 33.2144 212.702 33.256C212.64 33.2976 212.587 33.3509 212.546 33.4131C212.505 33.4752 212.476 33.5449 212.462 33.6181V33.6927C207.8 33.822 203.226 34.984 199.067 37.0948C197.59 37.8084 196.173 38.64 194.83 39.5817C192.915 40.9346 191.03 42.7301 190.756 45.0529C190.622 46.2118 190.9 47.4005 190.667 48.5346C190.035 51.5736 185.961 53.5532 186.558 56.6021C186.961 58.6712 189.304 59.5615 191.497 59.5864C190.887 61.7677 190.731 64.0512 191.041 66.2951C191.35 68.5389 192.118 70.6952 193.295 72.63C194.473 74.5648 196.036 76.2368 197.887 77.5421C199.738 78.8474 201.838 79.7582 204.056 80.2178C205.651 82.4636 207.049 84.8434 208.234 87.3304C205.553 89.877 199.938 95.7859 203.38 97.7754L196.217 115.472L196.914 133.711L193.895 136.407L194.556 137.233C191.174 141.172 183.345 149.782 177.62 152.075C176.796 152.405 175.998 152.798 175.233 153.248C174.187 153.912 173.024 154.368 171.806 154.591C171.274 154.65 170.748 154.753 170.234 154.9L168.866 152.065C168.75 151.823 168.587 151.607 168.387 151.429C168.187 151.25 167.954 151.113 167.7 151.025C167.447 150.936 167.179 150.899 166.912 150.914C166.644 150.93 166.382 150.998 166.141 151.115L165.3 151.518L163.31 152.478L162.48 152.88L161.853 153.184C161.367 153.419 160.993 153.838 160.815 154.348C160.637 154.858 160.669 155.418 160.903 155.904L162.559 159.336C160.207 161.411 159.053 163.887 162.261 166.195C163.493 167.097 164.987 167.569 166.514 167.538L167.508 169.622C167.625 169.864 167.788 170.08 167.988 170.258C168.188 170.437 168.421 170.574 168.674 170.662C168.927 170.751 169.195 170.788 169.463 170.773C169.731 170.757 169.993 170.689 170.234 170.572L171.691 169.866L174.517 168.503C174.758 168.387 174.974 168.224 175.153 168.024C175.331 167.824 175.468 167.59 175.557 167.337C175.645 167.084 175.682 166.816 175.667 166.548C175.651 166.281 175.583 166.019 175.467 165.778L174.641 164.062C176.489 162.625 178.183 161 179.694 159.212C179.694 159.212 183.942 156.551 186.444 155.954C188.1 155.561 193.904 151.746 197.506 149.329L198.53 176.188C198.304 176.537 198.041 176.861 197.744 177.153L198.545 176.586V176.785C198.438 176.914 198.323 177.037 198.202 177.153L198.55 176.904V177.227C198.437 177.364 198.316 177.493 198.187 177.615L198.555 177.357L198.704 180.177L200.455 177.272L200.564 180.177L200.972 179.5C196.058 187.851 189.657 200.147 186.235 212.517C186.235 212.517 180.883 221.823 181.579 231.362L171.806 278.614L171.995 278.683C168.812 280.981 162.102 285.194 155.521 285.363C155.521 285.363 139.7 284.896 144.122 288.387C148.543 291.879 187.866 296.997 187.866 296.997L189.358 285.234L189.707 285.363C189.707 285.363 189.707 285.298 189.707 285.179L190.204 285.363C190.204 285.363 189.254 279.514 192.736 276.256C196.217 272.998 204.369 239.947 203.678 234.839C203.678 234.839 209.925 219.226 217.744 206.777L226.936 230.412L237.172 248.094C237.172 248.094 250.79 278.375 250.352 285.119C247.492 288.601 242.394 294.072 238.569 293.928C238.569 293.928 222.981 296.952 233.685 299.747C244.389 302.543 275.798 292.088 275.798 292.088L272.665 281.857ZM204.524 173.596L204.618 173.542C204.121 174.293 203.623 175.123 203.056 176.029L204.524 173.596Z" fill="url(#paint0_linear)"/>
<path d="M197.744 177.163C197.361 177.441 197.152 177.595 197.152 177.595C197.37 177.481 197.569 177.335 197.744 177.163Z" fill="url(#paint1_linear)"/>
<path d="M198.207 177.63C197.824 177.909 197.615 178.063 197.615 178.063C197.832 177.948 198.032 177.802 198.207 177.63Z" fill="url(#paint2_linear)"/>
<path d="M198.207 177.163C197.824 177.441 197.615 177.595 197.615 177.595C197.832 177.481 198.032 177.335 198.207 177.163Z" fill="url(#paint3_linear)"/>
<path d="M251.452 279.404C251.452 279.404 243.285 290.974 237.838 290.745C237.838 290.745 222.638 293.694 233.073 296.415C243.508 299.136 274.132 288.929 274.132 288.929L270.491 277.067L251.452 279.404Z" fill="#333333"/>
<path d="M214.929 199.077L226.498 228.796L236.505 246.06C236.505 246.06 250.228 276.569 249.323 282.468L271.208 278.952C271.208 278.952 254.192 232.198 249.432 225.871C249.432 225.871 244.458 222.922 244.667 217.913L238.544 188.195C238.544 188.195 244.513 182.445 241.171 175.263C241.002 174.895 240.806 174.523 240.584 174.148C236.008 166.434 218.788 170.726 218.788 170.726L214.929 199.077Z" fill="#535461"/>
<path opacity="0.03" d="M214.929 199.077L226.498 228.796L236.505 246.06C236.505 246.06 250.228 276.569 249.323 282.468L271.208 278.952C271.208 278.952 254.192 232.198 249.432 225.871C249.432 225.871 244.458 222.922 244.667 217.913L238.544 188.195C238.544 188.195 244.513 182.445 241.171 175.263C241.002 174.895 240.806 174.523 240.584 174.148C236.008 166.434 218.788 170.726 218.788 170.726L214.929 199.077Z" fill="black"/>
<g opacity="0.1">
<path opacity="0.1" d="M249.412 225.871C249.412 225.871 244.439 222.922 244.647 217.913L238.525 188.195C238.525 188.195 244.493 182.445 241.151 175.263C240.982 174.895 240.786 174.523 240.564 174.148C238.365 170.408 233.173 169.493 228.413 169.548C232.979 169.587 237.784 170.587 239.882 174.148C240.105 174.523 240.3 174.895 240.469 175.263C243.797 182.465 237.843 188.195 237.843 188.195L243.966 217.928C243.737 222.902 248.731 225.886 248.731 225.886C253.496 232.238 270.506 278.967 270.506 278.967L249.308 282.374C249.308 282.409 249.308 282.448 249.308 282.483L271.193 278.967C271.193 278.967 254.177 232.223 249.412 225.871Z" fill="black"/>
</g>
<path d="M174.78 274.416C174.78 274.416 165.708 282.13 156.874 282.374C156.874 282.374 141.456 281.921 145.758 285.323C150.06 288.725 188.403 293.719 188.403 293.719L190.109 280.444L174.78 274.416Z" fill="#333333"/>
<g opacity="0.1">
<path opacity="0.1" d="M208.125 168.931C208.125 168.931 193.153 190.03 187.235 211.353C187.235 211.353 182.017 220.425 182.698 229.726L173.188 275.779L190.657 282.359C190.657 282.359 189.751 276.689 193.143 273.51C196.536 270.332 204.484 238.122 203.807 233.133C203.807 233.133 214.695 205.911 225.583 195.247C236.47 184.584 241.892 182.126 243.488 172.92C243.498 172.92 217.878 160.535 208.125 168.931Z" fill="black"/>
</g>
<path d="M207.657 168.931C207.657 168.931 192.686 190.03 186.767 211.353C186.767 211.353 181.549 220.425 182.231 229.726L172.701 275.779L190.169 282.359C190.169 282.359 189.264 276.689 192.656 273.51C196.048 270.332 203.996 238.122 203.32 233.133C203.32 233.133 214.208 205.911 225.095 195.247C235.983 184.584 241.404 182.126 243.001 172.92C243.046 172.92 217.426 160.535 207.657 168.931Z" fill="#535461"/>
<g opacity="0.1">
<path opacity="0.1" d="M217.341 165.787C228.587 165.922 242.593 172.691 242.593 172.691C240.992 181.898 235.575 184.355 224.687 195.019C213.8 205.682 202.907 232.899 202.907 232.899C203.588 237.873 195.65 270.103 192.243 273.277C189.259 276.042 189.587 280.693 189.711 281.857L190.428 282.125C190.428 282.125 189.522 276.455 192.915 273.277C196.307 270.098 204.27 237.873 203.588 232.899C203.588 232.899 214.476 205.677 225.364 195.014C236.252 184.35 241.673 181.893 243.27 172.686C243.275 172.716 228.691 165.648 217.341 165.787Z" fill="black"/>
</g>
<path d="M196.556 136.039C196.556 136.039 185.728 149.523 178.421 152.453C177.617 152.775 176.839 153.157 176.093 153.597C175.073 154.243 173.939 154.687 172.751 154.905C171.877 154.99 171.022 155.215 170.219 155.571C166.419 157.322 157.655 162.037 163.44 166.215C170.697 171.433 180.455 159.411 180.455 159.411C180.455 159.411 184.598 156.815 187.036 156.233C189.473 155.651 200.639 147.847 200.639 147.847L196.556 136.039Z" fill="#FDA57D"/>
<path d="M198.595 133.313L194.287 137.173L200.639 145.111L198.595 133.313Z" fill="#4D8AF0"/>
<g opacity="0.1">
<path opacity="0.1" d="M198.595 133.313L194.287 137.173L200.639 145.111L198.595 133.313Z" fill="black"/>
</g>
<path d="M209.517 88.161C209.517 88.161 199.192 97.0094 203.514 99.5013L196.551 116.741L198.953 179.804L208.796 163.47L202.071 128.081C202.071 128.081 200.152 106.982 205.673 101.993L210.955 91.5482L209.517 88.161Z" fill="#4D8AF0"/>
<g opacity="0.1">
<path opacity="0.1" d="M211.333 88.161C211.333 88.161 201.007 97.0094 205.329 99.5013L198.366 116.741L200.768 179.804L210.612 163.47L203.887 128.081C203.887 128.081 201.967 106.982 207.488 101.993L212.77 91.5482L211.333 88.161Z" fill="black"/>
</g>
<path d="M201.544 78.8699C201.544 78.8699 209.94 89.0762 209.711 94.9751C209.482 100.874 225.593 84.7688 225.593 84.7688C225.593 84.7688 219.47 77.2832 221.057 69.35C222.643 61.4168 201.544 78.8699 201.544 78.8699Z" fill="#FDA57D"/>
<path d="M249.412 130.14L251.68 148.29V166.195C251.68 166.195 248.502 189.334 258.485 185.026C268.467 180.719 261.205 164.837 261.205 164.837C261.205 164.837 261.205 155.989 262.568 151.453C263.931 146.917 261.872 126.957 261.872 126.957L249.412 130.14Z" fill="#FDA57D"/>
<path d="M218.331 87.2657C218.331 87.2657 212.208 93.1647 209.03 91.1205L204.673 101.948C202.01 108.567 200.802 115.682 201.131 122.809L202.683 163.713L209.487 162.808L211.756 124.012L215.158 100.421L218.331 87.2657Z" fill="#F2F2F2"/>
<g opacity="0.1">
<path opacity="0.1" d="M223.439 81.0286C223.439 81.0286 215.381 86.5843 213.128 91.3492C213.128 91.3492 212.899 96.5668 211.089 98.8348C209.279 101.103 207.458 112.448 207.005 126.057C206.553 139.665 204.519 157.814 204.519 157.814C204.519 157.814 201.116 175.506 197.486 177.322C197.486 177.322 214.272 164.619 222.439 168.926C230.606 173.233 239.907 183.673 242.628 182.082C242.628 182.082 241.971 162.186 244.951 151.597C245.007 151.395 245.065 151.198 245.125 151.005C248.303 140.56 246.259 126.28 249.89 120.168C249.89 120.168 249.89 109.081 247.796 100.8C247.254 98.685 246.257 96.7146 244.874 95.0262C243.491 93.3379 241.755 91.9726 239.788 91.026L229.701 86.1417C229.701 86.1417 224.344 85.3359 223.439 81.0286Z" fill="black"/>
</g>
<g opacity="0.1">
<path opacity="0.1" d="M223.439 81.0286C223.439 81.0286 215.839 87.0419 213.571 91.8019C213.571 91.8019 213.342 97.0194 211.532 99.2875C209.721 101.556 207.901 112.901 207.448 126.509C206.996 140.118 204.961 158.267 204.961 158.267C204.961 158.267 201.559 175.959 197.928 177.774C197.928 177.774 214.715 165.071 222.882 169.379C231.049 173.686 240.35 184.126 243.071 182.534C243.071 182.534 242.414 162.639 245.393 152.05C245.45 151.848 245.508 151.65 245.568 151.458C248.746 141.013 246.702 126.733 250.332 120.62C250.332 120.62 250.332 109.534 248.238 101.252C247.697 99.1377 246.7 97.1672 245.317 95.4788C243.933 93.7905 242.197 92.4252 240.231 91.4786L230.144 86.5943C230.144 86.5943 224.344 85.3359 223.439 81.0286Z" fill="black"/>
</g>
<path d="M223.325 80.9141C223.325 80.9141 215.839 86.5843 213.571 91.3591C213.571 91.3591 213.342 96.5767 211.532 98.8448C209.721 101.113 207.901 112.458 207.448 126.066C206.996 139.675 204.961 157.824 204.961 157.824C204.961 157.824 201.559 175.516 197.928 177.332C197.928 177.332 214.715 164.629 222.882 168.936C231.049 173.243 240.335 183.658 243.061 182.087C243.061 182.087 242.404 162.191 245.384 151.602C245.44 151.4 245.498 151.203 245.558 151.01C248.736 140.565 246.692 126.285 250.323 120.173C250.323 120.173 250.323 109.086 248.229 100.804C247.687 98.69 246.69 96.7195 245.307 95.0312C243.923 93.3428 242.187 91.9775 240.221 91.0309L230.134 86.1466C230.134 86.1466 225.026 84.8832 223.325 80.9141Z" fill="#4D8AF0"/>
<g opacity="0.1">
<path opacity="0.1" d="M244.08 94.1843C244.08 94.1843 267.104 120.386 263.931 132.861C263.931 132.861 252.133 130.14 248.96 133.766C248.96 133.766 246.473 125.37 238.977 120.61C231.482 115.85 224.568 85.3358 244.08 94.1843Z" fill="black"/>
</g>
<path d="M244.08 93.7317C244.08 93.7317 267.104 119.934 263.931 132.408C263.931 132.408 252.133 129.687 248.96 133.313C248.96 133.313 246.473 124.918 238.977 120.158C231.482 115.398 224.568 84.8833 244.08 93.7317Z" fill="#4D8AF0"/>
<g opacity="0.1">
<path opacity="0.1" d="M221.624 74.4482C221.265 72.6178 221.564 72.4586 221.962 70.4691C223.548 62.511 202.454 79.999 202.454 79.999C202.454 79.999 203.628 81.4264 205.086 83.5254C206.161 83.7471 207.256 83.8587 208.353 83.8586C214.123 83.8636 218.774 78.9942 221.624 74.4482Z" fill="black"/>
</g>
<path d="M207.443 82.7246C216.338 82.7246 223.548 75.5141 223.548 66.6194C223.548 57.7247 216.338 50.5142 207.443 50.5142C198.549 50.5142 191.338 57.7247 191.338 66.6194C191.338 75.5141 198.549 82.7246 207.443 82.7246Z" fill="#FDA57D"/>
<g opacity="0.1">
<path opacity="0.1" d="M192.974 62.2126C190.602 62.5309 187.578 61.7152 187.12 59.3924C186.543 56.4081 190.512 54.4932 191.129 51.5288C191.358 50.4147 191.084 49.2558 191.219 48.1317C191.487 45.8586 193.323 44.1128 195.198 42.7898C201.115 38.6394 208.313 36.7219 215.511 37.3783C216.41 37.3897 217.285 37.6666 218.028 38.1741C218.808 38.8157 219.112 39.8602 219.644 40.7207C221.484 43.705 225.613 44.0382 228.567 45.8885C232.049 48.0521 233.745 52.2997 233.899 56.3783C234.053 60.4568 232.904 64.4607 231.735 68.3801C230.741 71.7126 229.746 75.1346 227.577 77.8602C225.409 80.5859 221.862 82.4958 218.485 81.6751C220.032 80.561 218.908 77.9746 217.232 77.0644C215.556 76.1542 213.476 76 212.044 74.7466C210.612 73.4932 210.184 71.444 209.716 69.5788C209.129 67.2262 208.274 64.8387 206.558 63.1128C203.181 59.7555 197.108 61.6555 192.974 62.2126Z" fill="black"/>
</g>
<path d="M193.427 61.9888C191.054 62.3071 188.03 61.4914 187.573 59.1686C186.996 56.1843 190.965 54.2694 191.582 51.305C191.81 50.1908 191.537 49.032 191.671 47.9079C191.94 45.6348 193.775 43.889 195.65 42.566C201.568 38.4155 208.765 36.4981 215.963 37.1545C216.862 37.1659 217.738 37.4427 218.48 37.9503C219.261 38.5919 219.564 39.6364 220.097 40.4969C221.937 43.4812 226.065 43.8144 229.02 45.6647C232.501 47.8283 234.197 52.0759 234.352 56.1545C234.506 60.233 233.357 64.2369 232.188 68.1563C231.193 71.4888 230.198 74.9107 228.03 77.6364C225.861 80.362 222.315 82.272 218.938 81.4513C220.485 80.3372 219.36 77.7508 217.684 76.8406C216.008 75.9304 213.929 75.7762 212.497 74.5228C211.064 73.2694 210.641 71.2202 210.144 69.355C209.557 67.0024 208.702 64.6149 206.986 62.889C203.638 59.5267 197.56 61.4317 193.427 61.9888Z" fill="#72351C"/>
<path d="M217.167 45.6448L218.624 38.184C218.639 38.1125 218.639 38.0388 218.625 37.9672C218.61 37.8956 218.582 37.8275 218.541 37.7669C218.501 37.7063 218.448 37.6544 218.388 37.6142C218.327 37.5739 218.258 37.5462 218.187 37.5325L213.039 36.5377C212.967 36.5233 212.893 36.5232 212.822 36.5374C212.75 36.5516 212.682 36.5799 212.622 36.6206C212.561 36.6613 212.509 36.7136 212.469 36.7745C212.429 36.8354 212.401 36.9037 212.387 36.9754L210.93 44.4361L205.956 62.8791L215.083 64.6597L217.167 45.6448Z" fill="#CBDAE3"/>
<g opacity="0.1">
<path opacity="0.1" d="M209.597 74.9008C213.981 74.9008 217.535 71.3467 217.535 66.9626C217.535 62.5784 213.981 59.0244 209.597 59.0244C205.213 59.0244 201.659 62.5784 201.659 66.9626C201.659 71.3467 205.213 74.9008 209.597 74.9008Z" fill="black"/>
</g>
<path d="M209.597 75.1246C213.981 75.1246 217.535 71.5705 217.535 67.1864C217.535 62.8022 213.981 59.2482 209.597 59.2482C205.213 59.2482 201.659 62.8022 201.659 67.1864C201.659 71.5705 205.213 75.1246 209.597 75.1246Z" fill="#CBDAE3"/>
<path d="M209.597 72.389C212.47 72.389 214.799 70.0597 214.799 67.1864C214.799 64.3131 212.47 61.9838 209.597 61.9838C206.724 61.9838 204.394 64.3131 204.394 67.1864C204.394 70.0597 206.724 72.389 209.597 72.389Z" fill="#E9E9E9"/>
<path d="M209.597 68.773C210.473 68.773 211.183 68.0627 211.183 67.1864C211.183 66.3101 210.473 65.5997 209.597 65.5997C208.721 65.5997 208.01 66.3101 208.01 67.1864C208.01 68.0627 208.721 68.773 209.597 68.773Z" fill="#F48681"/>
<path opacity="0.05" d="M217.299 44.9677L211.066 43.7504L211.022 43.9749L217.256 45.1923L217.299 44.9677Z" fill="black"/>
<path d="M164.719 152.731L164.715 152.733C162.797 153.657 161.992 155.962 162.917 157.879L167.747 167.897C168.671 169.815 170.975 170.62 172.893 169.695L172.897 169.693C174.815 168.769 175.62 166.465 174.696 164.547L169.866 154.529C168.941 152.611 166.637 151.806 164.719 152.731Z" fill="#CBDAE3"/>
<g opacity="0.1">
<path opacity="0.1" d="M164.719 152.731L164.715 152.733C162.797 153.657 161.992 155.962 162.917 157.879L167.747 167.897C168.671 169.815 170.975 170.62 172.893 169.695L172.897 169.693C174.815 168.769 175.62 166.465 174.696 164.547L169.866 154.529C168.941 152.611 166.637 151.806 164.719 152.731Z" fill="black"/>
</g>
<path d="M170.732 154.238C169.78 152.264 167.407 151.435 165.433 152.387C163.458 153.339 162.629 155.711 163.581 157.686L168.312 167.498C169.264 169.472 171.636 170.301 173.611 169.349C175.585 168.397 176.414 166.025 175.462 164.05L170.732 154.238Z" fill="#CBDAE3"/>
<path d="M168.72 152.312L163.317 154.917L169.523 167.789L174.926 165.183L168.72 152.312Z" fill="#F2F2F2"/>
<path d="M173.412 168.685C173.751 168.521 173.85 168.024 173.633 167.573C173.416 167.123 172.965 166.89 172.626 167.054C172.287 167.217 172.188 167.715 172.405 168.165C172.623 168.616 173.073 168.848 173.412 168.685Z" fill="#F2F2F2"/>
</g>
<defs>
<linearGradient id="paint0_linear" x1="143.321" y1="166.698" x2="275.798" y2="166.698" gradientUnits="userSpaceOnUse">
<stop stop-color="#808080" stop-opacity="0.25"/>
<stop offset="0.54" stop-color="#808080" stop-opacity="0.12"/>
<stop offset="1" stop-color="#808080" stop-opacity="0.1"/>
</linearGradient>
<linearGradient id="paint1_linear" x1="504.263" y1="378.969" x2="504.968" y2="378.969" gradientUnits="userSpaceOnUse">
<stop stop-color="#808080" stop-opacity="0.25"/>
<stop offset="0.54" stop-color="#808080" stop-opacity="0.12"/>
<stop offset="1" stop-color="#808080" stop-opacity="0.1"/>
</linearGradient>
<linearGradient id="paint2_linear" x1="505.277" y1="379.846" x2="505.987" y2="379.846" gradientUnits="userSpaceOnUse">
<stop stop-color="#808080" stop-opacity="0.25"/>
<stop offset="0.54" stop-color="#808080" stop-opacity="0.12"/>
<stop offset="1" stop-color="#808080" stop-opacity="0.1"/>
</linearGradient>
<linearGradient id="paint3_linear" x1="505.277" y1="378.969" x2="505.987" y2="378.969" gradientUnits="userSpaceOnUse">
<stop stop-color="#808080" stop-opacity="0.25"/>
<stop offset="0.54" stop-color="#808080" stop-opacity="0.12"/>
<stop offset="1" stop-color="#808080" stop-opacity="0.1"/>
</linearGradient>
<clipPath id="clip0">
<rect width="475" height="338.469" fill="white"/>
</clipPath>
</defs>
</svg>
