<svg width="40" height="40" viewBox="0 0 40 40" fill="none" xmlns="http://www.w3.org/2000/svg">
<path d="M21.6833 21.98C22.7117 24.6683 23.47 27.435 23.9517 30.2683C20.2317 31.7033 16.2267 31.0083 13.2383 28.6767C15.4267 25.2467 18.22 23.0133 21.6833 21.98ZM20.8 19.8367C20.5617 19.3033 20.315 18.7733 20.055 18.245C16.9667 19.2183 13.275 19.71 9 19.7167L8.98333 20C8.98333 22.6733 9.94333 25.1283 11.535 27.0383C13.9483 23.4167 17.045 21.0117 20.8 19.8367ZM15.03 10.1833C12.2 11.6217 10.0817 14.24 9.31 17.3917C13.0367 17.365 16.26 16.9567 18.9617 16.1633C17.8183 14.115 16.51 12.12 15.03 10.1833ZM26.715 11.2883C24.8533 9.85167 22.53 8.985 20 8.985C19.065 8.985 18.1633 9.115 17.2983 9.335C18.7533 11.2917 20.045 13.3083 21.175 15.3767C23.5283 14.38 25.375 13.015 26.715 11.2883ZM40 8.33333V31.6667C40 36.2683 36.27 40 31.6667 40H8.33333C3.73 40 0 36.2683 0 31.6667V8.33333C0 3.73167 3.73 0 8.33333 0H31.6667C36.27 0 40 3.73167 40 8.33333ZM33.3333 20C33.3333 12.6367 27.3633 6.66667 20 6.66667C12.6367 6.66667 6.66667 12.6367 6.66667 20C6.66667 27.3633 12.6367 33.3333 20 33.3333C27.3633 33.3333 33.3333 27.3633 33.3333 20ZM22.24 17.43C22.54 18.0483 22.82 18.6717 23.0933 19.2967C25.4917 18.8833 28.1233 18.9083 30.9833 19.3783C30.8433 16.915 29.9033 14.6667 28.405 12.895C26.8683 14.81 24.805 16.32 22.24 17.43ZM23.9817 21.4917C24.9133 23.985 25.6283 26.5417 26.1133 29.155C28.6133 27.48 30.3817 24.805 30.87 21.71C28.36 21.275 26.065 21.1983 23.9817 21.4917Z" fill="#F7F7F7"/>
</svg>
