<svg width="40" height="40" viewBox="0 0 40 40" fill="none" xmlns="http://www.w3.org/2000/svg">
<g clip-path="url(#clip0)">
<path d="M20.0001 0C8.95671 0 0 9.18139 0 20.5056C0 29.5657 5.73002 37.2519 13.6784 39.9637C14.6767 40.1534 15.0001 39.5177 15.0001 38.9777V35.1603C9.43671 36.4009 8.27837 32.7406 8.27837 32.7406C7.36836 30.3705 6.05669 29.74 6.05669 29.74C4.24168 28.4669 6.19503 28.4942 6.19503 28.4942C8.20337 28.6378 9.26004 30.608 9.26004 30.608C11.0434 33.742 13.9384 32.8363 15.0801 32.3117C15.2584 30.9874 15.7767 30.0817 16.3501 29.5708C11.9084 29.0496 7.23836 27.2913 7.23836 19.4359C7.23836 17.1957 8.02003 15.3672 9.29837 13.9319C9.09171 13.4141 8.4067 11.3276 9.49337 8.5047C9.49337 8.5047 11.1734 7.95447 14.9951 10.6065C16.5901 10.152 18.3001 9.92471 20.0001 9.91617C21.7001 9.92471 23.4118 10.152 25.0101 10.6065C28.8285 7.95447 30.5051 8.5047 30.5051 8.5047C31.5935 11.3293 30.9085 13.4158 30.7018 13.9319C31.9851 15.3672 32.7601 17.1974 32.7601 19.4359C32.7601 27.3118 28.0818 29.0462 23.6284 29.5537C24.3451 30.1894 25.0001 31.4368 25.0001 33.3507V38.9777C25.0001 39.5228 25.3201 40.1636 26.3351 39.962C34.2768 37.2467 40.0002 29.5622 40.0002 20.5056C40.0002 9.18139 31.0451 0 20.0001 0Z" fill="#F7F7F7"/>
</g>
<defs>
<clipPath id="clip0">
<rect width="40" height="40" fill="white"/>
</clipPath>
</defs>
</svg>
