<svg width="40" height="41" viewBox="0 0 40 41" fill="none" xmlns="http://www.w3.org/2000/svg">
<path d="M20 0C8.95667 0 0 8.99498 0 20.0893C0 28.9654 5.73 36.4955 13.6783 39.1523C14.6767 39.3382 15 38.7154 15 38.1864V34.4464C9.43667 35.6618 8.27833 32.0759 8.27833 32.0759C7.36833 29.7539 6.05667 29.1362 6.05667 29.1362C4.24167 27.889 6.195 27.9157 6.195 27.9157C8.20333 28.0564 9.26 29.9866 9.26 29.9866C11.0433 33.0569 13.9383 32.1696 15.08 31.6557C15.2583 30.3583 15.7767 29.471 16.35 28.9704C11.9083 28.4598 7.23833 26.7372 7.23833 19.0413C7.23833 16.8465 8.02 15.0552 9.29833 13.649C9.09167 13.1417 8.40667 11.0977 9.49333 8.33203C9.49333 8.33203 11.1733 7.79297 14.995 10.3912C16.59 9.94587 18.3 9.72321 20 9.71484C21.7 9.72321 23.4117 9.94587 25.01 10.3912C28.8283 7.79297 30.505 8.33203 30.505 8.33203C31.5933 11.0993 30.9083 13.1434 30.7017 13.649C31.985 15.0552 32.76 16.8482 32.76 19.0413C32.76 26.7573 28.0817 28.4565 23.6283 28.9537C24.345 29.5765 25 30.7985 25 32.6735V38.1864C25 38.7204 25.32 39.3482 26.335 39.1507C34.2767 36.4905 40 28.9621 40 20.0893C40 8.99498 31.045 0 20 0Z" fill="white"/>
</svg>
