<svg width="41" height="40" viewBox="0 0 41 40" fill="none" xmlns="http://www.w3.org/2000/svg">
<path d="M40.7509 20C40.7509 31.045 31.7614 40 20.6739 40C11.0001 40 2.92575 33.1817 1.02512 24.105L8.99571 27.4433C9.47254 29.845 11.6057 31.6883 14.2074 31.6667C17.0901 31.6383 19.4023 29.31 19.4207 26.4517L19.4324 26.4467L25.4589 21.9733C29.3137 22.0133 32.3855 18.9183 32.3855 15.155C32.3855 11.3883 29.317 8.33333 25.5375 8.33333C21.7998 8.33333 18.7649 11.3183 18.6946 15.025L14.2776 21.18C13.16 21.1567 12.1545 21.4617 11.2811 22.03L0.750732 17.62C1.93528 7.69833 10.3961 0 20.6739 0C31.7614 0 40.7509 8.955 40.7509 20ZM13.0161 29.1283L10.4329 28.0467C11.0687 29.4767 12.5008 30.4817 14.1957 30.475C16.4476 30.455 18.2479 28.625 18.2278 26.3833C18.2077 24.1683 16.3807 22.3667 14.1589 22.3667C13.6787 22.3683 13.2052 22.45 12.72 22.6333L15.2999 23.7133C16.8023 24.3433 17.5067 26.065 16.8743 27.56C16.2452 29.0533 14.5169 29.7567 13.0161 29.1283V29.1283ZM25.5375 19.7917C22.9727 19.7917 20.8847 17.71 20.8847 15.155C20.8847 12.5983 22.9727 10.5183 25.5375 10.5183C28.104 10.5183 30.1904 12.5983 30.1904 15.155C30.1904 17.71 28.104 19.7917 25.5375 19.7917ZM25.5375 18.655C27.4766 18.655 29.051 17.085 29.051 15.1533C29.051 13.2233 27.4783 11.65 25.5375 11.65C23.5967 11.65 22.0207 13.2217 22.0207 15.1533C22.0224 17.085 23.5984 18.655 25.5375 18.655V18.655Z" fill="white"/>
</svg>
