<svg width="1920" height="1080" viewBox="0 0 1920 1080" fill="none" xmlns="http://www.w3.org/2000/svg">
<g clip-path="url(#clip0)">
<path fill-rule="evenodd" clip-rule="evenodd" d="M880.316 184.768C897.003 35.1656 947.6 0 947.6 0H1920V1080H1189.51C1189.47 1080 1189.42 1080 1189.37 1080C1189.32 1080 1189.27 1080 1189.22 1080H1012.31C1002.61 1079.4 988.377 1077.02 988.377 1077.02C897.155 1045.43 839.972 985.232 886.609 759.934C904.065 675.607 913.466 627.77 918.488 600.107C922.591 583.589 924.933 564.732 924.974 544.702C927.751 500.833 916.529 454.328 904.336 403.8C888.579 338.506 871.201 266.493 880.316 184.768Z" fill="url(#paint0_linear)"/>
</g>
<defs>
<linearGradient id="paint0_linear" x1="1074.11" y1="5.90381e-05" x2="2047.34" y2="957.279" gradientUnits="userSpaceOnUse">
<stop stop-color="#3F5AF2"/>
<stop offset="1" stop-color="#D73FF2"/>
</linearGradient>
<clipPath id="clip0">
<rect width="1920" height="1080" fill="white"/>
</clipPath>
</defs>
</svg>
