<svg width="576" height="355" viewBox="0 0 576 355" fill="none" xmlns="http://www.w3.org/2000/svg">
<path d="M289.072 319.661C432.002 319.661 547.87 312.562 547.87 303.806C547.87 295.049 432.002 287.951 289.072 287.951C146.143 287.951 30.275 295.049 30.275 303.806C30.275 312.562 146.143 319.661 289.072 319.661Z" fill="#3F3D56"/>
<path opacity="0.1" d="M289.072 314.035C410.817 314.035 509.51 309.341 509.51 303.55C509.51 297.759 410.817 293.065 289.072 293.065C167.328 293.065 68.6343 297.759 68.6343 303.55C68.6343 309.341 167.328 314.035 289.072 314.035Z" fill="black"/>
<path d="M108.528 354.44C168.466 354.44 217.056 350.204 217.056 344.978C217.056 339.752 168.466 335.516 108.528 335.516C48.5896 335.516 0 339.752 0 344.978C0 350.204 48.5896 354.44 108.528 354.44Z" fill="#3F3D56"/>
<path opacity="0.1" d="M108.528 351.083C159.582 351.083 200.97 348.281 200.97 344.825C200.97 341.37 159.582 338.568 108.528 338.568C57.4738 338.568 16.0862 341.37 16.0862 344.825C16.0862 348.281 57.4738 351.083 108.528 351.083Z" fill="black"/>
<path d="M484.961 0H100.345V301.76H484.961V0Z" fill="#3F3D56"/>
<path d="M288.277 41.2384H193.392C193.241 41.2387 193.091 41.2092 192.951 41.1514C192.811 41.0937 192.684 41.0089 192.577 40.902C192.469 40.795 192.384 40.668 192.326 40.5281C192.268 40.3882 192.239 40.2383 192.239 40.0869C192.239 39.9355 192.268 39.7855 192.326 39.6457C192.384 39.5058 192.469 39.3787 192.577 39.2718C192.684 39.1648 192.811 39.08 192.951 39.0223C193.091 38.9646 193.241 38.935 193.392 38.9354H288.277C288.582 38.936 288.874 39.0576 289.09 39.2735C289.305 39.4894 289.426 39.7819 289.426 40.0869C289.426 40.3919 289.305 40.6844 289.09 40.9003C288.874 41.1161 288.582 41.2378 288.277 41.2384V41.2384Z" fill="#F2F2F2"/>
<path d="M392.143 53.905H242.907C242.602 53.905 242.309 53.7837 242.093 53.5677C241.877 53.3518 241.756 53.0589 241.756 52.7535C241.756 52.4481 241.877 52.1552 242.093 51.9393C242.309 51.7233 242.602 51.602 242.907 51.602H392.143C392.294 51.602 392.444 51.6318 392.584 51.6896C392.723 51.7475 392.85 51.8323 392.957 51.9393C393.064 52.0462 393.149 52.1731 393.207 52.3128C393.265 52.4525 393.295 52.6023 393.295 52.7535C393.295 52.9047 393.265 53.0545 393.207 53.1942C393.149 53.3339 393.064 53.4608 392.957 53.5677C392.85 53.6747 392.723 53.7595 392.584 53.8174C392.444 53.8752 392.294 53.905 392.143 53.905V53.905Z" fill="#F2F2F2"/>
<path d="M288.737 66.5716H193.853C193.548 66.5716 193.255 66.4503 193.039 66.2343C192.823 66.0184 192.702 65.7255 192.702 65.4201C192.702 65.1147 192.823 64.8218 193.039 64.6058C193.255 64.3899 193.548 64.2686 193.853 64.2686H288.737C289.043 64.2686 289.336 64.3899 289.552 64.6058C289.768 64.8218 289.889 65.1147 289.889 65.4201C289.889 65.7255 289.768 66.0184 289.552 66.2343C289.336 66.4503 289.043 66.5716 288.737 66.5716V66.5716Z" fill="#F2F2F2"/>
<path d="M392.143 66.8019H297.259C296.953 66.8019 296.66 66.6806 296.444 66.4646C296.228 66.2487 296.107 65.9558 296.107 65.6504C296.107 65.345 296.228 65.0521 296.444 64.8361C296.66 64.6202 296.953 64.4989 297.259 64.4989H392.143C392.448 64.4989 392.741 64.6202 392.957 64.8361C393.173 65.0521 393.294 65.345 393.294 65.6504C393.294 65.9558 393.173 66.2487 392.957 66.4646C392.741 66.6806 392.448 66.8019 392.143 66.8019V66.8019Z" fill="#F2F2F2"/>
<path d="M288.968 79.2382H194.083C193.778 79.2382 193.485 79.1169 193.269 78.9009C193.053 78.685 192.932 78.3921 192.932 78.0867C192.932 77.7813 193.053 77.4884 193.269 77.2724C193.485 77.0565 193.778 76.9352 194.083 76.9352H288.968C289.273 76.9352 289.566 77.0565 289.782 77.2724C289.998 77.4884 290.119 77.7813 290.119 78.0867C290.119 78.3921 289.998 78.685 289.782 78.9009C289.566 79.1169 289.273 79.2382 288.968 79.2382V79.2382Z" fill="#F2F2F2"/>
<path d="M289.198 91.9048H194.314C194.008 91.9048 193.715 91.7835 193.499 91.5675C193.284 91.3516 193.162 91.0587 193.162 90.7533C193.162 90.4479 193.284 90.155 193.499 89.9391C193.715 89.7231 194.008 89.6018 194.314 89.6018H289.198C289.503 89.6018 289.796 89.7231 290.012 89.9391C290.228 90.155 290.35 90.4479 290.35 90.7533C290.35 91.0587 290.228 91.3516 290.012 91.5675C289.796 91.7835 289.503 91.9048 289.198 91.9048V91.9048Z" fill="#F2F2F2"/>
<path d="M332.265 41.4687H305.089C304.783 41.4687 304.491 41.3474 304.275 41.1314C304.059 40.9155 303.937 40.6226 303.937 40.3172C303.937 40.0118 304.059 39.7189 304.275 39.5029C304.491 39.287 304.783 39.1656 305.089 39.1656H332.265C332.57 39.1656 332.863 39.287 333.079 39.5029C333.295 39.7189 333.416 40.0118 333.416 40.3172C333.416 40.6226 333.295 40.9155 333.079 41.1314C332.863 41.3474 332.57 41.4687 332.265 41.4687V41.4687Z" fill="#F2F2F2"/>
<path d="M332.265 79.2382H305.089C304.783 79.2382 304.491 79.1169 304.275 78.9009C304.059 78.685 303.937 78.3921 303.937 78.0867C303.937 77.7813 304.059 77.4884 304.275 77.2724C304.491 77.0565 304.783 76.9352 305.089 76.9352H332.265C332.57 76.9352 332.863 77.0565 333.079 77.2724C333.295 77.4884 333.416 77.7813 333.416 78.0867C333.416 78.3921 333.295 78.685 333.079 78.9009C332.863 79.1169 332.57 79.2382 332.265 79.2382V79.2382Z" fill="#F2F2F2"/>
<path d="M332.264 91.6745H305.089C304.937 91.6748 304.787 91.6453 304.647 91.5875C304.507 91.5298 304.38 91.445 304.273 91.3381C304.166 91.2311 304.081 91.1041 304.023 90.9642C303.965 90.8244 303.935 90.6744 303.935 90.523C303.935 90.3716 303.965 90.2216 304.023 90.0818C304.081 89.9419 304.166 89.8149 304.273 89.7079C304.38 89.6009 304.507 89.5162 304.647 89.4584C304.787 89.4007 304.937 89.3712 305.089 89.3715H332.264C332.416 89.3712 332.566 89.4007 332.706 89.4584C332.846 89.5162 332.973 89.6009 333.08 89.7079C333.187 89.8149 333.273 89.9419 333.331 90.0818C333.389 90.2216 333.418 90.3716 333.418 90.523C333.418 90.6744 333.389 90.8244 333.331 90.9642C333.273 91.1041 333.187 91.2311 333.08 91.3381C332.973 91.445 332.846 91.5298 332.706 91.5875C332.566 91.6453 332.416 91.6748 332.264 91.6745V91.6745Z" fill="#F2F2F2"/>
<path d="M377.864 91.6745H350.689C350.384 91.6739 350.091 91.5523 349.876 91.3364C349.661 91.1205 349.54 90.828 349.54 90.523C349.54 90.218 349.661 89.9255 349.876 89.7096C350.091 89.4937 350.384 89.3721 350.689 89.3715H377.864C378.016 89.3712 378.166 89.4007 378.306 89.4584C378.446 89.5162 378.573 89.6009 378.68 89.7079C378.787 89.8149 378.872 89.9419 378.93 90.0818C378.988 90.2216 379.018 90.3716 379.018 90.523C379.018 90.6744 378.988 90.8244 378.93 90.9642C378.872 91.1041 378.787 91.2311 378.68 91.3381C378.573 91.445 378.446 91.5298 378.306 91.5875C378.166 91.6453 378.016 91.6748 377.864 91.6745V91.6745Z" fill="#F2F2F2"/>
<path d="M220.338 53.905H193.162C192.857 53.905 192.564 53.7837 192.348 53.5677C192.132 53.3518 192.011 53.0589 192.011 52.7535C192.011 52.4481 192.132 52.1552 192.348 51.9393C192.564 51.7233 192.857 51.602 193.162 51.602H220.338C220.643 51.602 220.936 51.7233 221.152 51.9393C221.368 52.1552 221.489 52.4481 221.489 52.7535C221.489 53.0589 221.368 53.3518 221.152 53.5677C220.936 53.7837 220.643 53.905 220.338 53.905V53.905Z" fill="#F2F2F2"/>
<path d="M288.392 227.783H193.508C193.202 227.783 192.909 227.662 192.693 227.446C192.477 227.23 192.356 226.937 192.356 226.631C192.356 226.326 192.477 226.033 192.693 225.817C192.909 225.601 193.202 225.48 193.508 225.48H288.392C288.697 225.48 288.99 225.601 289.206 225.817C289.422 226.033 289.544 226.326 289.544 226.631C289.544 226.937 289.422 227.23 289.206 227.446C288.99 227.662 288.697 227.783 288.392 227.783Z" fill="#F2F2F2"/>
<path d="M287.931 253.116H193.047C192.742 253.116 192.449 252.995 192.233 252.779C192.017 252.563 191.896 252.27 191.896 251.965C191.896 251.659 192.017 251.366 192.233 251.15C192.449 250.934 192.742 250.813 193.047 250.813H287.931C288.237 250.813 288.53 250.934 288.746 251.15C288.962 251.366 289.083 251.659 289.083 251.965C289.083 252.27 288.962 252.563 288.746 252.779C288.53 252.995 288.237 253.116 287.931 253.116Z" fill="#F2F2F2"/>
<path d="M288.162 265.783H193.277C193.126 265.783 192.976 265.754 192.836 265.696C192.696 265.638 192.569 265.553 192.462 265.446C192.354 265.339 192.269 265.212 192.211 265.073C192.153 264.933 192.123 264.783 192.123 264.631C192.123 264.48 192.153 264.33 192.211 264.19C192.269 264.05 192.354 263.923 192.462 263.816C192.569 263.709 192.696 263.624 192.836 263.567C192.976 263.509 193.126 263.479 193.277 263.48H288.162C288.313 263.479 288.463 263.509 288.603 263.567C288.743 263.624 288.87 263.709 288.978 263.816C289.085 263.923 289.17 264.05 289.228 264.19C289.286 264.33 289.316 264.48 289.316 264.631C289.316 264.783 289.286 264.933 289.228 265.073C289.17 265.212 289.085 265.339 288.978 265.446C288.87 265.553 288.743 265.638 288.603 265.696C288.463 265.754 288.313 265.783 288.162 265.783V265.783Z" fill="#F2F2F2"/>
<path d="M328.695 253.346H301.519C301.214 253.346 300.921 253.225 300.705 253.009C300.489 252.793 300.368 252.5 300.368 252.195C300.368 251.89 300.489 251.597 300.705 251.381C300.921 251.165 301.214 251.043 301.519 251.043H328.695C329 251.043 329.293 251.165 329.509 251.381C329.725 251.597 329.846 251.89 329.846 252.195C329.846 252.5 329.725 252.793 329.509 253.009C329.293 253.225 329 253.346 328.695 253.346Z" fill="#F2F2F2"/>
<path d="M328.695 265.783H301.519C301.214 265.783 300.921 265.661 300.705 265.446C300.489 265.23 300.368 264.937 300.368 264.631C300.368 264.326 300.489 264.033 300.705 263.817C300.921 263.601 301.214 263.48 301.519 263.48H328.695C329 263.48 329.293 263.601 329.509 263.817C329.725 264.033 329.846 264.326 329.846 264.631C329.846 264.937 329.725 265.23 329.509 265.446C329.293 265.661 329 265.783 328.695 265.783V265.783Z" fill="#F2F2F2"/>
<path d="M374.295 253.346H347.119C346.814 253.346 346.521 253.225 346.305 253.009C346.089 252.793 345.967 252.5 345.967 252.195C345.967 251.89 346.089 251.597 346.305 251.381C346.521 251.165 346.814 251.043 347.119 251.043H374.295C374.6 251.043 374.893 251.165 375.109 251.381C375.325 251.597 375.446 251.89 375.446 252.195C375.446 252.5 375.325 252.793 375.109 253.009C374.893 253.225 374.6 253.346 374.295 253.346V253.346Z" fill="#F2F2F2"/>
<path d="M392.258 240.45H243.022C242.717 240.45 242.424 240.328 242.208 240.112C241.992 239.896 241.871 239.603 241.871 239.298C241.871 238.993 241.992 238.7 242.208 238.484C242.424 238.268 242.717 238.147 243.022 238.147H392.258C392.564 238.147 392.856 238.268 393.072 238.484C393.288 238.7 393.41 238.993 393.41 239.298C393.41 239.603 393.288 239.896 393.072 240.112C392.856 240.328 392.564 240.45 392.258 240.45V240.45Z" fill="#F2F2F2"/>
<path d="M220.453 240.45H193.277C192.972 240.45 192.679 240.328 192.463 240.112C192.247 239.896 192.126 239.603 192.126 239.298C192.126 238.993 192.247 238.7 192.463 238.484C192.679 238.268 192.972 238.147 193.277 238.147H220.453C220.758 238.147 221.051 238.268 221.267 238.484C221.483 238.7 221.604 238.993 221.604 239.298C221.604 239.603 221.483 239.896 221.267 240.112C221.051 240.328 220.758 240.45 220.453 240.45V240.45Z" fill="#F2F2F2"/>
<path d="M392.258 278.68H243.022C242.871 278.68 242.721 278.65 242.581 278.593C242.441 278.535 242.314 278.45 242.207 278.343C242.099 278.236 242.014 278.109 241.956 277.969C241.898 277.83 241.869 277.68 241.869 277.528C241.869 277.377 241.898 277.227 241.956 277.087C242.014 276.947 242.099 276.82 242.207 276.713C242.314 276.606 242.441 276.521 242.581 276.464C242.721 276.406 242.871 276.376 243.022 276.377H392.258C392.564 276.377 392.856 276.498 393.072 276.714C393.288 276.93 393.41 277.223 393.41 277.528C393.41 277.834 393.288 278.126 393.072 278.342C392.856 278.558 392.564 278.68 392.258 278.68V278.68Z" fill="#F2F2F2"/>
<path d="M220.453 278.68H193.277C193.126 278.68 192.976 278.65 192.836 278.593C192.696 278.535 192.569 278.45 192.462 278.343C192.354 278.236 192.269 278.109 192.211 277.969C192.153 277.83 192.123 277.68 192.123 277.528C192.123 277.377 192.153 277.227 192.211 277.087C192.269 276.947 192.354 276.82 192.462 276.713C192.569 276.606 192.696 276.521 192.836 276.464C192.976 276.406 193.126 276.376 193.277 276.377H220.453C220.604 276.376 220.754 276.406 220.894 276.464C221.034 276.521 221.162 276.606 221.269 276.713C221.376 276.82 221.461 276.947 221.519 277.087C221.577 277.227 221.607 277.377 221.607 277.528C221.607 277.68 221.577 277.83 221.519 277.969C221.461 278.109 221.376 278.236 221.269 278.343C221.162 278.45 221.034 278.535 220.894 278.593C220.754 278.65 220.604 278.68 220.453 278.68Z" fill="#F2F2F2"/>
<path d="M265.477 122.305L228.629 158.692L265.477 195.08L273.768 186.789L245.902 158.923L273.998 130.826L265.477 122.305Z" fill="#4D8AF0"/>
<path d="M319.828 122.305L356.677 158.692L319.828 195.08L311.537 186.789L339.404 158.923L311.307 130.826L319.828 122.305Z" fill="#4D8AF0"/>
<path d="M110.574 12.275C113.116 12.275 115.177 10.2141 115.177 7.67187C115.177 5.12964 113.116 3.06876 110.574 3.06876C108.032 3.06876 105.971 5.12964 105.971 7.67187C105.971 10.2141 108.032 12.275 110.574 12.275Z" fill="#4D8AF0"/>
<path d="M122.849 12.275C125.391 12.275 127.452 10.2141 127.452 7.67187C127.452 5.12964 125.391 3.06876 122.849 3.06876C120.306 3.06876 118.246 5.12964 118.246 7.67187C118.246 10.2141 120.306 12.275 122.849 12.275Z" fill="#4D8AF0"/>
<path d="M135.124 12.275C137.666 12.275 139.727 10.2141 139.727 7.67187C139.727 5.12964 137.666 3.06876 135.124 3.06876C132.582 3.06876 130.521 5.12964 130.521 7.67187C130.521 10.2141 132.582 12.275 135.124 12.275Z" fill="#4D8AF0"/>
<path opacity="0.1" d="M484.961 15.3438H100.345V16.8781H484.961V15.3438Z" fill="black"/>
<path d="M576 227.831C576 260.447 556.61 271.835 532.692 271.835C508.773 271.835 489.383 260.447 489.383 227.831C489.383 195.214 532.692 153.721 532.692 153.721C532.692 153.721 576 195.214 576 227.831Z" fill="#FAFBFB"/>
<path d="M531.114 266.846L531.558 239.549L550.017 205.779L531.627 235.267L531.827 222.993L544.548 198.561L531.879 219.745L532.238 197.67L545.861 178.219L532.294 194.199L532.518 153.722L531.11 207.306L531.226 205.096L517.375 183.896L531.004 209.34L529.713 233.993L529.675 233.339L513.708 211.028L529.626 235.65L529.465 238.733L529.436 238.78L529.449 239.033L526.175 301.582H530.55L531.074 269.275L546.955 244.712L531.114 266.846Z" fill="#3F3D56"/>
<path d="M62.7157 301.295C61.387 302.035 59.9853 302.635 58.533 303.087C55.9354 303.796 53.159 303.536 50.5353 304.142C49.461 304.39 48.2919 304.908 47.9503 305.957C47.6997 306.725 47.9723 307.556 48.2333 308.321C51.1325 316.821 52.88 325.847 57.5036 333.546C59.4467 336.78 61.8585 339.708 64.6602 342.235C65.7114 343.182 66.9025 344.109 68.3097 344.258C68.9582 344.326 69.6133 344.222 70.2089 343.957C70.8045 343.691 71.3194 343.273 71.7018 342.745C72.0842 342.217 72.3205 341.597 72.3868 340.948C72.4531 340.299 72.347 339.645 72.0794 339.05C71.6649 338.129 70.8942 337.415 70.3972 336.536C69.8583 335.416 69.5423 334.201 69.4667 332.96C69.0099 329.325 68.5698 325.525 69.8295 322.084C70.6744 319.776 72.2242 317.809 73.5153 315.718C74.8064 313.627 75.8791 311.231 75.5918 308.791C75.3957 307.125 74.5832 305.601 73.725 304.16C72.865 302.716 71.1653 298.836 69.4375 298.355C67.644 297.855 64.2799 300.494 62.7157 301.295Z" fill="#2F2E41"/>
<path d="M109.992 330.657C110.019 331.48 109.905 332.301 109.653 333.084C109.112 334.513 107.77 335.491 107.077 336.852C106.113 338.745 106.55 341.033 107.189 343.058C107.589 344.328 108.114 345.65 109.19 346.435C110.11 347.005 111.155 347.34 112.235 347.411C121.46 348.688 130.831 347.955 140.139 348.223C141.836 348.271 143.632 348.331 145.113 347.502C146.594 346.672 147.51 344.588 146.503 343.222C145.598 341.995 143.81 342.006 142.287 341.934C138.323 341.733 134.547 340.177 131.591 337.528C131.008 337.03 130.503 336.448 130.091 335.801C129.774 335.227 129.512 334.625 129.306 334.002C128.001 330.467 126.449 327.029 124.66 323.712C124.16 322.784 123.593 321.817 122.663 321.32C121.982 321.011 121.242 320.849 120.494 320.847C118.174 320.697 112.166 319.907 110.372 321.711C108.714 323.378 110.029 328.54 109.992 330.657Z" fill="#2F2E41"/>
<path d="M124.269 124.64C132.454 124.64 139.089 118.005 139.089 109.82C139.089 101.636 132.454 95.0009 124.269 95.0009C116.085 95.0009 109.45 101.636 109.45 109.82C109.45 118.005 116.085 124.64 124.269 124.64Z" fill="#FBBEBE"/>
<path d="M110.887 122.057C110.005 124.417 108.51 126.633 106.335 127.903L126.831 132.084C126.088 129.093 125.99 125.977 126.544 122.945C126.747 122.211 126.789 121.442 126.666 120.69C126.281 119.203 124.607 118.487 123.109 118.146C119.368 117.293 116.06 116.836 112.584 115.183C111.522 117.002 111.67 119.96 110.887 122.057Z" fill="#FBBEBE"/>
<path d="M106.163 122.354C108.368 121.357 110.771 120.871 113.19 120.934C115.609 120.998 117.983 121.608 120.133 122.719C122.761 124.104 124.937 126.194 127.074 128.257C129.045 130.158 131.147 132.334 131.287 135.069C131.354 136.393 130.941 137.689 130.732 138.998C130.357 141.707 130.834 144.466 132.097 146.892C133.359 149.317 135.346 151.29 137.78 152.536C139.408 155.249 139.744 158.535 139.769 161.699C139.864 173.685 136.082 185.82 138.782 197.498C139.416 200.24 140.399 202.896 140.947 205.657C141.656 209.232 141.621 212.909 141.992 216.535C142.394 220.462 143.273 224.326 144.607 228.041C143.715 229.46 141.859 230.003 140.187 229.889C138.515 229.774 136.952 229.048 135.46 228.285C128.237 224.588 121.621 219.714 114.139 216.573C109.189 214.494 103.916 213.2 99.1145 210.799C94.3127 208.399 89.847 204.589 88.3788 199.425C87.7439 197.193 87.7049 194.84 87.6702 192.519C87.5243 182.743 87.3887 172.861 89.5166 163.318C91.3931 154.903 95.0104 146.852 95.7995 138.267C96.0564 135.472 96.0619 132.48 97.6233 130.148C99.8304 126.852 104.596 125.998 106.163 122.354Z" fill="#2F2E41"/>
<path d="M115.841 110.03C116.714 108.891 118.398 108.735 119.793 109.072C121.188 109.409 122.475 110.128 123.884 110.401C124.204 110.492 124.54 110.515 124.869 110.469C125.199 110.423 125.515 110.308 125.798 110.132C126.291 109.647 126.585 108.996 126.624 108.306C127.118 105.37 127.233 102.383 126.967 99.4169C126.894 99.0009 126.922 98.5733 127.049 98.1703C127.398 97.3297 128.462 97.1297 129.331 96.86C130.765 96.3753 131.996 95.4267 132.831 94.164C133.666 92.9013 134.056 91.3965 133.941 89.8873C133.919 89.1634 133.615 88.4767 133.093 87.9741C132.492 87.4844 131.651 87.4543 130.876 87.448C126.892 87.416 122.908 87.417 118.925 87.4509C117.45 87.4635 115.902 87.4998 114.623 88.2349C113.678 88.7783 112.976 89.6531 112.127 90.3377C109.915 92.1233 106.922 92.4866 104.23 93.4017C102.916 93.776 101.722 94.4875 100.769 95.4658C99.8733 96.4885 99.4429 98.0093 100.005 99.2468C100.294 99.7626 100.616 100.259 100.97 100.732C102.558 103.271 101.501 106.564 101.738 109.549C102.034 113.277 107.551 119.324 111.291 120.206C117.331 121.63 113.842 112.476 115.841 110.03Z" fill="#2F2E41"/>
<path d="M107.475 273.467C107.856 276.189 108.345 278.92 108.214 281.666C108.031 285.498 106.649 289.191 106.394 293.02C106.203 295.879 106.644 298.77 106.247 301.608C105.993 303.425 105.4 305.177 105.033 306.975C104.452 309.905 104.469 312.922 105.082 315.846C105.694 318.769 106.891 321.539 108.6 323.989C108.851 324.408 109.208 324.754 109.635 324.992C110.044 325.143 110.483 325.201 110.917 325.161C115.231 325.074 119.532 324.683 123.791 323.991C124.103 323.979 124.398 323.848 124.618 323.627C124.714 323.48 124.775 323.313 124.797 323.139C125.587 319.08 123.786 315.01 123.328 310.9C122.839 306.512 123.892 302.115 124.937 297.825C125.411 295.709 126.003 293.621 126.711 291.571C127.216 290.192 127.826 288.85 128.264 287.447C128.884 285.244 129.262 282.98 129.39 280.695C129.694 277.089 129.855 273.475 129.873 269.852C129.976 266.42 129.691 262.987 129.022 259.618C128.061 255.354 126.094 251.394 124.144 247.481C123.102 247.731 122.123 248.196 121.271 248.847C118.759 250.474 116.135 251.923 113.42 253.184C111.596 254.032 108.039 254.633 106.881 256.399C105.739 258.14 106.476 261.693 106.563 263.614C106.713 266.91 107.017 270.195 107.475 273.467Z" fill="#2F2E41"/>
<path opacity="0.1" d="M107.475 273.467C107.856 276.189 108.345 278.92 108.214 281.666C108.031 285.498 106.649 289.191 106.394 293.02C106.203 295.879 106.644 298.77 106.247 301.608C105.993 303.425 105.4 305.177 105.033 306.975C104.452 309.905 104.469 312.922 105.082 315.846C105.694 318.769 106.891 321.539 108.6 323.989C108.851 324.408 109.208 324.754 109.635 324.992C110.044 325.143 110.483 325.201 110.917 325.161C115.231 325.074 119.532 324.683 123.791 323.991C124.103 323.979 124.398 323.848 124.618 323.627C124.714 323.48 124.775 323.313 124.797 323.139C125.587 319.08 123.786 315.01 123.328 310.9C122.839 306.512 123.892 302.115 124.937 297.825C125.411 295.709 126.003 293.621 126.711 291.571C127.216 290.192 127.826 288.85 128.264 287.447C128.884 285.244 129.262 282.98 129.39 280.695C129.694 277.089 129.855 273.475 129.873 269.852C129.976 266.42 129.691 262.987 129.022 259.618C128.061 255.354 126.094 251.394 124.144 247.481C123.102 247.731 122.123 248.196 121.271 248.847C118.759 250.474 116.135 251.923 113.42 253.184C111.596 254.032 108.039 254.633 106.881 256.399C105.739 258.14 106.476 261.693 106.563 263.614C106.713 266.91 107.017 270.195 107.475 273.467Z" fill="black"/>
<path d="M87.4393 215.333C85.4714 220.631 88.3641 226.357 90.8774 231.419C97.0691 243.892 101.369 257.2 105.645 270.452C105.966 271.445 106.286 272.528 105.929 273.508C105.62 274.204 105.12 274.798 104.486 275.22C101.537 277.459 97.782 278.257 94.2693 279.429C90.8746 280.562 87.6233 282.086 84.5809 283.971C82.0355 285.548 79.651 287.369 77.2712 289.186L69.6955 294.972C69.2051 295.303 68.7765 295.718 68.4293 296.198C67.6986 297.344 67.9979 298.841 68.3617 300.15C69.325 303.618 70.5654 307.004 72.0708 310.273C72.3185 310.99 72.7901 311.608 73.416 312.036C74.5984 312.671 76.0447 311.829 76.9477 310.835C77.8506 309.842 78.6316 308.606 79.9044 308.18C81.1758 307.754 82.575 308.27 83.9028 308.083C86.0503 307.782 87.476 305.803 89.0239 304.285C95.3483 298.08 105.907 298.53 112.864 293.044C113.87 292.144 114.935 291.313 116.051 290.555C117.227 289.86 118.561 289.478 119.781 288.864C123.493 286.995 125.826 283.131 127.076 279.168C128.326 275.205 128.682 271.021 129.58 266.964C130.045 264.867 130.656 262.792 130.862 260.654C130.995 258.665 130.952 256.668 130.733 254.687L128.223 223.634C128.018 221.105 127.814 218.574 127.417 216.069C119.962 216.335 112.512 216.635 105.052 216.723C99.1162 216.794 93.0714 217.209 87.4393 215.333Z" fill="#2F2E41"/>
<path d="M84.6987 222.597C85.71 224.223 88.1716 224.19 89.8666 223.298C91.5616 222.406 92.8785 220.908 94.5775 220.024C96.8605 218.836 99.5622 218.881 102.135 218.954C106.208 219.069 110.331 219.191 114.25 220.307C118.303 221.462 122.249 223.685 126.44 223.241C127.169 223.164 127.966 222.955 128.363 222.338C128.596 221.891 128.705 221.391 128.68 220.888L128.817 217.226C128.901 216.593 128.8 215.949 128.526 215.372C128.174 214.892 127.692 214.523 127.137 214.308C121.171 211.421 114.368 210.883 107.745 210.656C104.378 210.541 101.009 210.493 97.6397 210.514C94.7801 210.531 91.3472 210.117 88.5671 210.882C84.836 211.907 82.8058 219.553 84.6987 222.597Z" fill="#2F2E41"/>
<path d="M122.156 126.701C114.34 126.632 107.257 121.473 99.4414 121.347C98.4972 121.282 97.5511 121.445 96.6833 121.823C95.5943 122.372 94.8782 123.432 94.051 124.328C91.7401 126.831 88.3936 128.167 86.0195 130.609C83.7935 132.9 82.5555 136.312 83.4343 139.382C84.3132 142.453 87.6301 144.808 90.7375 144.07C91.9894 140.018 94.5732 136.507 98.0701 134.107C99.8896 132.94 101.807 131.934 103.801 131.099C107.314 129.507 111.242 127.885 114.909 129.078C116.261 129.589 117.537 130.284 118.698 131.145L124.812 135.252C124.1 132.442 123.459 129.29 122.156 126.701Z" fill="#4D8AF0"/>
<path d="M89.8371 141.354C88.7992 142.648 90.2943 144.524 90.0655 146.168C89.9134 147.26 89.0148 148.094 88.6406 149.131C88.2529 150.205 88.4585 151.395 88.3115 152.528C88.1639 153.351 87.9457 154.161 87.6593 154.947C87.0008 157.295 86.5412 159.695 86.2853 162.12L84.9172 172.337C84.6798 173.874 84.5353 175.425 84.4845 176.98C84.5535 178.142 84.4758 179.308 84.2533 180.451C83.9504 181.567 83.2796 182.544 82.8283 183.609C82.377 184.675 82.1679 185.963 82.7775 186.946C80.736 188.647 80.129 191.986 81.5565 194.227C81.8282 194.576 82.0408 194.967 82.1856 195.386C82.2645 195.97 82.1681 196.564 81.9085 197.094L80.5252 200.78C80.1711 201.723 80.0591 203.16 81.0436 203.375C80.2281 204.222 79.5928 205.225 79.1761 206.325C78.9739 206.876 78.9135 207.47 79.0004 208.052C79.0873 208.633 79.3187 209.183 79.6735 209.652C80.0171 209.953 80.3098 210.309 80.5401 210.704C80.6754 211.254 80.6404 211.832 80.4399 212.362C80.233 213.167 80.1932 214.006 80.3227 214.827C80.4523 215.648 80.7486 216.434 81.1933 217.136C81.6541 217.829 82.3067 218.372 83.0713 218.7C83.836 219.028 84.6796 219.126 85.499 218.982C88.2662 218.357 90.7528 217.372 93.5429 217.884C99.5505 218.987 105.577 220.094 111.396 221.951C118.037 224.071 124.467 227.181 131.407 227.833C131.864 227.927 132.339 227.853 132.745 227.625C133.099 227.29 133.319 226.838 133.364 226.353C134.079 223 134.794 219.648 135.509 216.295C136.374 212.579 137.032 208.818 137.481 205.029C137.725 202.583 137.795 200.124 137.864 197.668L138.417 178.114C138.676 175.232 138.292 172.329 137.292 169.614L134.112 159.462C132.297 153.669 128.134 148.532 126.652 142.645C125.714 138.919 125.021 134.92 122.505 132.016C118.919 127.876 112.714 127.232 107.282 127.944C104.829 128.266 102.354 128.821 100.232 130.093C97.7777 131.564 95.9698 133.882 94.2207 136.147C92.7792 138.013 91.312 139.514 89.8371 141.354Z" fill="#4D8AF0"/>
<path d="M102.519 198.867C102.966 200.796 103.906 202.575 104.481 204.471C105.445 207.646 105.363 211.066 106.325 214.242C106.729 215.575 107.314 216.855 107.603 218.218C108.279 221.394 107.293 224.68 106.067 227.688C104.842 230.695 103.35 233.661 102.952 236.884C102.672 239.154 103.074 241.717 104.824 243.19C106.64 244.719 109.28 244.616 111.646 244.412C112.496 244.389 113.334 244.214 114.122 243.897C115.932 243.041 116.694 240.9 117.117 238.943C118.534 232.387 118.129 225.591 117.717 218.896L116.64 201.387C116.433 198.016 116.21 194.575 115.172 191.338C114.794 190.161 114.135 187.782 113.06 187.03C111.995 186.285 108.953 186.252 107.634 186.19C101.446 185.9 101.516 194.536 102.519 198.867Z" fill="#FBBEBE"/>
<path d="M109.374 135.218C108.111 134.557 106.518 134.842 105.297 135.579C104.118 136.386 103.085 137.389 102.243 138.544C99.512 141.877 96.6213 145.702 97.0263 149.992C97.1782 151.6 97.794 153.122 98.2116 154.683C100.042 161.526 98.0179 168.763 98.2501 175.843C98.3844 179.934 99.2746 183.958 100.161 187.954C100.342 188.77 100.632 189.714 101.421 189.989C102.013 190.195 102.654 189.93 103.24 189.707C105.425 188.899 107.773 188.63 110.084 188.921C112.395 189.212 114.603 190.056 116.519 191.38C117.984 190.598 117.435 188.126 117.107 186.498C116.131 181.661 117.456 176.671 119.065 172.006C120.674 167.341 122.599 162.682 122.866 157.754C123.168 152.171 121.317 146.722 119.49 141.437C119.092 140.284 118.656 139.074 117.732 138.277C116.94 137.689 116.033 137.274 115.071 137.061C113.131 136.488 111.166 136.157 109.374 135.218Z" fill="#2F2E41"/>
</svg>
