<svg width="40" height="40" viewBox="0 0 40 40" fill="none" xmlns="http://www.w3.org/2000/svg">
<path d="M20.0003 3.605C25.3404 3.605 25.9737 3.625 28.0837 3.72167C33.5037 3.96833 36.0354 6.54 36.2821 11.92C36.3787 14.0283 36.3971 14.6617 36.3971 20.0017C36.3971 25.3433 36.3771 25.975 36.2821 28.0833C36.0337 33.4583 33.5087 36.035 28.0837 36.2817C25.9737 36.3783 25.3437 36.3983 20.0003 36.3983C14.6603 36.3983 14.027 36.3783 11.9186 36.2817C6.48527 36.0333 3.96693 33.45 3.72026 28.0817C3.62359 25.9733 3.60359 25.3417 3.60359 20C3.60359 14.66 3.62526 14.0283 3.72026 11.9183C3.96859 6.54 6.49361 3.96667 11.9186 3.72C14.0286 3.625 14.6603 3.605 20.0003 3.605ZM20.0003 0C14.5686 0 13.8886 0.0233333 11.7553 0.12C4.49193 0.453333 0.455246 4.48333 0.121911 11.7533C0.0235776 13.8883 0.000244141 14.5683 0.000244141 20C0.000244141 25.4317 0.0235776 26.1133 0.120245 28.2467C0.453579 35.51 4.4836 39.5467 11.7536 39.88C13.8886 39.9767 14.5686 40 20.0003 40C25.432 40 26.1137 39.9767 28.247 39.88C35.5037 39.5467 39.5504 35.5167 39.8787 28.2467C39.9771 26.1133 40.0004 25.4317 40.0004 20C40.0004 14.5683 39.9771 13.8883 39.8804 11.755C39.5537 4.49833 35.5187 0.455 28.2487 0.121667C26.1137 0.0233333 25.432 0 20.0003 0V0ZM20.0003 9.73C14.3286 9.73 9.73029 14.3283 9.73029 20C9.73029 25.6717 14.3286 30.2717 20.0003 30.2717C25.672 30.2717 30.2704 25.6733 30.2704 20C30.2704 14.3283 25.672 9.73 20.0003 9.73ZM20.0003 26.6667C16.3186 26.6667 13.3336 23.6833 13.3336 20C13.3336 16.3183 16.3186 13.3333 20.0003 13.3333C23.682 13.3333 26.667 16.3183 26.667 20C26.667 23.6833 23.682 26.6667 20.0003 26.6667ZM30.677 6.925C29.3504 6.925 28.2754 8 28.2754 9.325C28.2754 10.65 29.3504 11.725 30.677 11.725C32.002 11.725 33.0754 10.65 33.0754 9.325C33.0754 8 32.002 6.925 30.677 6.925Z" fill="white"/>
</svg>
