<svg width="41" height="40" viewBox="0 0 41 40" fill="none" xmlns="http://www.w3.org/2000/svg">
<path d="M20.7503 0C9.70695 0 0.750244 9.18139 0.750244 20.5056C0.750244 29.5657 6.48027 37.2519 14.4286 39.9637C15.427 40.1534 15.7503 39.5177 15.7503 38.9777V35.1603C10.187 36.4009 9.02861 32.7406 9.02861 32.7406C8.11861 30.3705 6.80694 29.74 6.80694 29.74C4.99193 28.4669 6.94527 28.4942 6.94527 28.4942C8.95361 28.6378 10.0103 30.608 10.0103 30.608C11.7936 33.742 14.6886 32.8363 15.8303 32.3117C16.0086 30.9874 16.527 30.0817 17.1003 29.5708C12.6586 29.0496 7.98861 27.2913 7.98861 19.4359C7.98861 17.1957 8.77028 15.3672 10.0486 13.9319C9.84195 13.4141 9.15695 11.3276 10.2436 8.5047C10.2436 8.5047 11.9236 7.95447 15.7453 10.6065C17.3403 10.152 19.0503 9.92471 20.7503 9.91617C22.4503 9.92471 24.162 10.152 25.7604 10.6065C29.5787 7.95447 31.2554 8.5047 31.2554 8.5047C32.3437 11.3293 31.6587 13.4158 31.452 13.9319C32.7354 15.3672 33.5104 17.1974 33.5104 19.4359C33.5104 27.3118 28.832 29.0462 24.3787 29.5537C25.0953 30.1894 25.7504 31.4368 25.7504 33.3507V38.9777C25.7504 39.5228 26.0704 40.1636 27.0854 39.962C35.0271 37.2467 40.7504 29.5622 40.7504 20.5056C40.7504 9.18139 31.7954 0 20.7503 0Z" fill="white"/>
</svg>
