<svg width="40" height="41" viewBox="0 0 40 41" fill="none" xmlns="http://www.w3.org/2000/svg">
<g clip-path="url(#clip0)">
<path d="M20 3.62109C25.34 3.62109 25.9733 3.64118 28.0833 3.73828C33.5033 3.98605 36.035 6.5692 36.2817 11.9732C36.3783 14.091 36.3967 14.7271 36.3967 20.091C36.3967 25.4565 36.3767 26.091 36.2817 28.2087C36.0333 33.6077 33.5083 36.1959 28.0833 36.4436C25.9733 36.5407 25.3433 36.5608 20 36.5608C14.66 36.5608 14.0267 36.5407 11.9183 36.4436C6.485 36.1942 3.96667 33.5993 3.72 28.207C3.62333 26.0893 3.60333 25.4548 3.60333 20.0893C3.60333 14.7254 3.625 14.091 3.72 11.9715C3.96833 6.5692 6.49333 3.98438 11.9183 3.73661C14.0283 3.64118 14.66 3.62109 20 3.62109ZM20 0C14.5683 0 13.8883 0.0234375 11.755 0.120536C4.49167 0.455357 0.455 4.50335 0.121667 11.8058C0.0233333 13.9503 0 14.6334 0 20.0893C0 25.5452 0.0233333 26.2299 0.12 28.3728C0.453333 35.6685 4.48333 39.7232 11.7533 40.058C13.8883 40.1551 14.5683 40.1786 20 40.1786C25.4317 40.1786 26.1133 40.1551 28.2467 40.058C35.5033 39.7232 39.55 35.6752 39.8783 28.3728C39.9767 26.2299 40 25.5452 40 20.0893C40 14.6334 39.9767 13.9503 39.88 11.8075C39.5533 4.51841 35.5183 0.457031 28.2483 0.12221C26.1133 0.0234375 25.4317 0 20 0V0ZM20 9.77344C14.3283 9.77344 9.73 14.3923 9.73 20.0893C9.73 25.7863 14.3283 30.4068 20 30.4068C25.6717 30.4068 30.27 25.7879 30.27 20.0893C30.27 14.3923 25.6717 9.77344 20 9.77344ZM20 26.7857C16.3183 26.7857 13.3333 23.7891 13.3333 20.0893C13.3333 16.3912 16.3183 13.3929 20 13.3929C23.6817 13.3929 26.6667 16.3912 26.6667 20.0893C26.6667 23.7891 23.6817 26.7857 20 26.7857ZM30.6767 6.95592C29.35 6.95592 28.275 8.03571 28.275 9.36663C28.275 10.6975 29.35 11.7773 30.6767 11.7773C32.0017 11.7773 33.075 10.6975 33.075 9.36663C33.075 8.03571 32.0017 6.95592 30.6767 6.95592Z" fill="white"/>
</g>
<defs>
<clipPath id="clip0">
<rect width="40" height="40.1786" fill="white"/>
</clipPath>
</defs>
</svg>
