<svg width="40" height="40" viewBox="0 0 40 40" fill="none" xmlns="http://www.w3.org/2000/svg">
<path d="M20.0001 3.605C25.3401 3.605 25.9734 3.625 28.0835 3.72167C33.5035 3.96833 36.0352 6.54 36.2818 11.92C36.3785 14.0283 36.3968 14.6617 36.3968 20.0017C36.3968 25.3433 36.3768 25.975 36.2818 28.0833C36.0335 33.4583 33.5085 36.035 28.0835 36.2817C25.9734 36.3783 25.3434 36.3983 20.0001 36.3983C14.6601 36.3983 14.0267 36.3783 11.9184 36.2817C6.48503 36.0333 3.96668 33.45 3.72002 28.0817C3.62335 25.9733 3.60335 25.3417 3.60335 20C3.60335 14.66 3.62502 14.0283 3.72002 11.9183C3.96835 6.54 6.49336 3.96667 11.9184 3.72C14.0284 3.625 14.6601 3.605 20.0001 3.605V3.605ZM20.0001 0C14.5684 0 13.8884 0.0233333 11.7551 0.12C4.49169 0.453333 0.455002 4.48333 0.121667 11.7533C0.0233334 13.8883 0 14.5683 0 20C0 25.4317 0.0233334 26.1133 0.120001 28.2467C0.453335 35.51 4.48335 39.5467 11.7534 39.88C13.8884 39.9767 14.5684 40 20.0001 40C25.4318 40 26.1134 39.9767 28.2468 39.88C35.5035 39.5467 39.5502 35.5167 39.8785 28.2467C39.9768 26.1133 40.0002 25.4317 40.0002 20C40.0002 14.5683 39.9768 13.8883 39.8802 11.755C39.5535 4.49833 35.5185 0.455 28.2485 0.121667C26.1134 0.0233333 25.4318 0 20.0001 0V0ZM20.0001 9.73C14.3284 9.73 9.73004 14.3283 9.73004 20C9.73004 25.6717 14.3284 30.2717 20.0001 30.2717C25.6718 30.2717 30.2701 25.6733 30.2701 20C30.2701 14.3283 25.6718 9.73 20.0001 9.73ZM20.0001 26.6667C16.3184 26.6667 13.3334 23.6833 13.3334 20C13.3334 16.3183 16.3184 13.3333 20.0001 13.3333C23.6818 13.3333 26.6668 16.3183 26.6668 20C26.6668 23.6833 23.6818 26.6667 20.0001 26.6667ZM30.6768 6.925C29.3501 6.925 28.2751 8 28.2751 9.325C28.2751 10.65 29.3501 11.725 30.6768 11.725C32.0018 11.725 33.0751 10.65 33.0751 9.325C33.0751 8 32.0018 6.925 30.6768 6.925Z" fill="white"/>
</svg>
