<svg width="41" height="40" viewBox="0 0 41 40" fill="none" xmlns="http://www.w3.org/2000/svg">
<path d="M32.4175 0H9.0841C4.48242 0 0.750732 3.73167 0.750732 8.33333V31.6667C0.750732 36.2683 4.48242 40 9.0841 40H32.4175C37.0209 40 40.7509 36.2683 40.7509 31.6667V8.33333C40.7509 3.73167 37.0209 0 32.4175 0ZM14.0841 31.6667H9.0841V13.3333H14.0841V31.6667ZM11.5841 11.22C9.97411 11.22 8.66743 9.90333 8.66743 8.28C8.66743 6.65667 9.97411 5.34 11.5841 5.34C13.1941 5.34 14.5008 6.65667 14.5008 8.28C14.5008 9.90333 13.1958 11.22 11.5841 11.22ZM34.0842 31.6667H29.0842V22.3267C29.0842 16.7133 22.4175 17.1383 22.4175 22.3267V31.6667H17.4175V13.3333H22.4175V16.275C24.7442 11.965 34.0842 11.6467 34.0842 20.4017V31.6667Z" fill="#FAFBFB"/>
</svg>
