<svg width="40" height="41" viewBox="0 0 40 41" fill="none" xmlns="http://www.w3.org/2000/svg">
<g clip-path="url(#clip0)">
<path d="M40 20.0893C40 31.1836 31.045 40.1786 20 40.1786C10.3633 40.1786 2.31999 33.3298 0.426654 24.2126L8.36665 27.5658C8.84165 29.9782 10.9667 31.8298 13.5583 31.808C16.43 31.7796 18.7333 29.4408 18.7517 26.5698L18.7633 26.5647L24.7667 22.0714C28.6067 22.1116 31.6667 19.0028 31.6667 15.2227C31.6667 11.4392 28.61 8.37053 24.845 8.37053C21.1217 8.37053 18.0983 11.3689 18.0283 15.0921L13.6283 21.2746C12.515 21.2511 11.5133 21.5575 10.6433 22.1283L0.15332 17.6987C1.33332 7.7327 9.76165 0 20 0C31.045 0 40 8.99498 40 20.0893ZM12.3717 29.2584L9.79832 28.1719C10.4317 29.6083 11.8583 30.6177 13.5467 30.611C15.79 30.591 17.5833 28.7528 17.5633 26.5011C17.5433 24.2762 15.7233 22.4665 13.51 22.4665C13.0317 22.4682 12.56 22.5502 12.0767 22.7344L14.6467 23.8192C16.1433 24.452 16.845 26.1814 16.215 27.683C15.5883 29.183 13.8667 29.8895 12.3717 29.2584ZM24.845 19.88C22.29 19.88 20.21 17.7891 20.21 15.2227C20.21 12.6546 22.29 10.5653 24.845 10.5653C27.4017 10.5653 29.48 12.6546 29.48 15.2227C29.48 17.7891 27.4017 19.88 24.845 19.88ZM24.845 18.7383C26.7767 18.7383 28.345 17.1613 28.345 15.221C28.345 13.2824 26.7783 11.702 24.845 11.702C22.9117 11.702 21.3417 13.2807 21.3417 15.221C21.3433 17.1613 22.9133 18.7383 24.845 18.7383Z" fill="white"/>
</g>
<defs>
<clipPath id="clip0">
<rect width="40" height="40.1786" fill="white"/>
</clipPath>
</defs>
</svg>
