<svg width="39" height="41" viewBox="0 0 39 41" fill="none" xmlns="http://www.w3.org/2000/svg">
<g clip-path="url(#clip0)">
<path d="M38.4 7.62894C36.9872 8.28519 35.4688 8.72716 33.8752 8.92637C35.5024 7.90684 36.752 6.29133 37.3392 4.36611C35.8176 5.3103 34.1312 5.99669 32.336 6.36666C30.9008 4.76454 28.8512 3.76343 26.5856 3.76343C21.4992 3.76343 17.7616 8.72883 18.9104 13.8834C12.3648 13.5402 6.56 10.259 2.6736 5.2718C0.6096 8.9766 1.6032 13.8231 5.1104 16.2774C3.8208 16.2339 2.6048 15.8639 1.544 15.2461C1.4576 19.0648 4.0736 22.6373 7.8624 23.4325C6.7536 23.7472 5.5392 23.8209 4.304 23.5731C5.3056 26.8477 8.2144 29.2299 11.664 29.2969C8.352 32.014 4.1792 33.2277 0 32.7121C3.4864 35.0508 7.6288 36.4152 12.0768 36.4152C26.704 36.4152 34.968 23.4894 34.4688 11.8962C36.008 10.7327 37.344 9.28129 38.4 7.62894Z" fill="white"/>
</g>
<defs>
<clipPath id="clip0">
<rect width="38.4" height="40.1786" fill="white"/>
</clipPath>
</defs>
</svg>
