<svg width="40" height="40" viewBox="0 0 40 40" fill="none" xmlns="http://www.w3.org/2000/svg">
<path d="M22.9067 13.3333C22.9067 13.3333 25.4434 0 17.3484 0H5.83337C4.45266 0 3.33337 1.11929 3.33337 2.5V37.5C3.33337 38.8807 4.45266 40 5.83337 40H34.1667C35.5474 40 36.6667 38.8807 36.6667 37.5V18.3333C36.6667 12.635 27.9217 12.0917 22.9067 13.3333ZM23.3334 31.6667H10V30H23.3334V31.6667ZM30 26.6667H10V25H30V26.6667ZM30 21.6667H10V20H30V21.6667ZM24.28 0.125C27.95 2.08167 34.1767 8.26333 36.6667 11.5933C34.5234 10.0933 29.9267 8.83167 26.515 9.62833C26.885 7.18167 26.2067 2.07167 24.28 0.125Z" fill="#F7F7F7"/>
</svg>
