<svg width="40" height="40" viewBox="0 0 40 40" fill="none" xmlns="http://www.w3.org/2000/svg">
<g clip-path="url(#clip0)">
<path d="M31.6668 0H8.33337C3.73168 0 0 3.73167 0 8.33333V31.6667C0 36.2683 3.73168 40 8.33337 40H31.6668C36.2702 40 40.0002 36.2683 40.0002 31.6667V8.33333C40.0002 3.73167 36.2702 0 31.6668 0ZM13.3334 31.6667H8.33337V13.3333H13.3334V31.6667ZM10.8334 11.22C9.22337 11.22 7.9167 9.90333 7.9167 8.28C7.9167 6.65667 9.22337 5.34 10.8334 5.34C12.4434 5.34 13.7501 6.65667 13.7501 8.28C13.7501 9.90333 12.4451 11.22 10.8334 11.22ZM33.3335 31.6667H28.3335V22.3267C28.3335 16.7133 21.6668 17.1383 21.6668 22.3267V31.6667H16.6667V13.3333H21.6668V16.275C23.9934 11.965 33.3335 11.6467 33.3335 20.4017V31.6667Z" fill="#F7F7F7"/>
</g>
<defs>
<clipPath id="clip0">
<rect width="40" height="40" fill="white"/>
</clipPath>
</defs>
</svg>
